<?xml version="1.0" encoding="UTF-8"?>
<svg version="1.1" xmlns="http://www.w3.org/2000/svg" width="200" height="200">
<path d="M0 0 C3.6257273 0.08253569 7.22903885 0.02118194 10.85449219 -0.0559082 C29.69268159 -0.08730681 29.69268159 -0.08730681 36.36685181 6.44462585 C42.26074219 13.27730626 42.26074219 13.27730626 42.26074219 16.77026367 C43.15792969 16.75455322 44.05511719 16.73884277 44.97949219 16.72265625 C48.34169415 16.67120727 51.70347139 16.63375947 55.06591797 16.60546875 C56.5148788 16.5904795 57.96379502 16.57008096 59.41259766 16.54394531 C68.7120499 16.38051593 76.736802 16.25280393 84.57324219 22.02026367 C90.54945577 28.13545896 90.70214123 34.30122448 90.66479492 42.44384766 C90.67165817 43.49515869 90.67852142 44.54646973 90.68559265 45.62963867 C90.70383837 49.09201708 90.70002621 52.55394142 90.69433594 56.01635742 C90.69889873 58.43099616 90.70420459 60.84563361 90.71022034 63.26026917 C90.71914705 68.31647015 90.71673311 73.37251315 90.70678711 78.42871094 C90.69529717 84.89947712 90.71551223 91.36969761 90.74470425 97.84039211 C90.76307363 102.82562203 90.76277227 107.81072136 90.75706673 112.79597664 C90.75691361 115.1813337 90.76294996 117.56669967 90.7753582 119.95202446 C90.79027997 123.29079033 90.77958132 126.62855018 90.76245117 129.96728516 C90.77695312 131.43649162 90.77695312 131.43649162 90.79174805 132.93537903 C90.71969803 139.6613017 89.60944494 145.48263872 84.64805603 150.35353565 C76.60958249 156.94702704 65.84392704 156.0441735 56.03808594 155.96557617 C54.68331615 155.96183806 53.32854362 155.95899487 51.97377014 155.95700073 C48.43759471 155.94942699 44.90158805 155.92983372 41.36547852 155.90759277 C37.74530316 155.88699811 34.12510008 155.87797013 30.50488281 155.86791992 C23.42342765 155.84658073 16.34211382 155.81145102 9.26074219 155.77026367 C9.26074219 147.52026367 9.26074219 139.27026367 9.26074219 130.77026367 C11.83886719 130.08963867 14.41699219 129.40901367 17.07324219 128.70776367 C30.49395672 124.87327381 40.6592575 117.93855809 48.04589844 105.84838867 C51.47201658 99.34970758 53.57068169 92.90607464 55.26074219 85.77026367 C51.96074219 85.77026367 48.66074219 85.77026367 45.26074219 85.77026367 C44.95136719 87.93588867 44.95136719 87.93588867 44.63574219 90.14526367 C42.68990907 99.71227648 36.92719713 107.81313479 29.26074219 113.77026367 C18.32994819 120.29462576 8.14244415 122.38527867 -4.55957031 120.30932617 C-10.74802294 118.66036544 -15.7257689 115.70608674 -20.73925781 111.77026367 C-21.35671875 111.29073242 -21.97417969 110.81120117 -22.61035156 110.31713867 C-28.52955123 105.09664186 -34.40959686 95.8160946 -34.93066406 87.84057617 C-34.8675 87.15737305 -34.80433594 86.47416992 -34.73925781 85.77026367 C-39.19425781 86.26526367 -39.19425781 86.26526367 -43.73925781 86.77026367 C-40.50348005 102.08101699 -34.59065691 113.80683094 -21.23925781 122.70776367 C-14.52835999 126.69675888 -8.41179571 128.49150736 -0.73925781 129.77026367 C-0.73925781 138.35026367 -0.73925781 146.93026367 -0.73925781 155.77026367 C-8.26973834 155.81232034 -15.79978808 155.8523778 -23.33028412 155.87376404 C-26.83783547 155.88428106 -30.34528856 155.89831188 -33.8527832 155.92114258 C-37.88656512 155.94723163 -41.92024459 155.95677365 -45.95410156 155.96557617 C-47.19820297 155.97589874 -48.44230438 155.98622131 -49.72410583 155.99685669 C-58.84400907 155.99802367 -67.42251289 155.89591059 -74.73925781 149.77026367 C-78.48924782 144.90541177 -79.85339109 141.29124138 -79.88642883 135.24298096 C-79.89358414 134.34031494 -79.90073944 133.43764893 -79.90811157 132.50762939 C-79.91080048 131.5246991 -79.91348938 130.5417688 -79.91625977 129.52905273 C-79.92611656 127.96737366 -79.92611656 127.96737366 -79.93617249 126.37414551 C-79.95588614 122.92805915 -79.96756354 119.48201633 -79.97753906 116.03588867 C-79.98161459 114.85802544 -79.98569012 113.6801622 -79.98988914 112.46660614 C-80.01074115 106.23286617 -80.02504694 99.99914816 -80.03442383 93.76538086 C-80.0454893 87.33157136 -80.07989376 80.8981076 -80.11959553 74.46442032 C-80.1457558 69.51266848 -80.15411515 64.56099913 -80.15770531 59.60918427 C-80.16257235 57.23776666 -80.17418963 54.86635277 -80.1927433 52.49500275 C-80.21712233 49.17274144 -80.21617157 45.85137634 -80.20922852 42.52905273 C-80.22203857 41.55421936 -80.23484863 40.57938599 -80.24804688 39.57501221 C-80.19259421 32.27633157 -78.65660068 26.76864384 -73.48925781 21.45776367 C-67.38623335 17.71272594 -62.87938408 16.57761343 -55.74707031 16.75073242 C-53.82314453 16.79230469 -53.82314453 16.79230469 -51.86035156 16.8347168 C-49.20242175 16.91655921 -46.54545913 17.0414043 -43.89160156 17.2097168 C-39.76880321 17.25313644 -36.64119619 17.13831963 -32.73925781 15.77026367 C-31.06464342 13.43057357 -29.7683048 11.31690256 -28.44238281 8.80151367 C-22.40427219 -1.951169 -11.04789557 -0.29093091 0 0 Z M-8.87011719 46.30737305 C-11.3332613 50.8707529 -11.31689567 54.44815647 -11.27050781 59.55151367 C-11.27433472 60.48322388 -11.27816162 61.41493408 -11.28210449 62.37487793 C-11.28481778 64.33822718 -11.27749757 66.30161295 -11.26074219 68.26489258 C-11.23932406 71.26099648 -11.26056354 74.25470263 -11.28613281 77.25073242 C-11.28348943 79.1634981 -11.27836424 81.0762623 -11.27050781 82.98901367 C-11.27860474 83.87979614 -11.28670166 84.77057861 -11.29504395 85.68835449 C-11.21020946 91.34732984 -10.38763376 94.39789429 -6.73925781 98.77026367 C-3.49431427 101.65980864 -0.00748 103.01731126 4.32324219 103.20776367 C9.89110332 102.58911243 13.37620915 101.00512953 17.07324219 96.83276367 C20.62732511 91.85704758 20.44279639 87.3270834 20.49902344 81.34838867 C20.50709518 80.52957214 20.51516693 79.71075562 20.52348328 78.86712646 C20.53729273 77.13564145 20.54802888 75.40412958 20.5559082 73.67260742 C20.56741792 71.91145792 20.58785388 70.15034302 20.61743164 68.3894043 C20.66032815 65.83382662 20.6763075 63.27928271 20.68652344 60.72338867 C20.70403152 59.94602356 20.72153961 59.16865845 20.73957825 58.36773682 C20.71771521 52.7832929 19.4707724 48.39679648 16.26074219 43.77026367 C11.8904676 39.85345931 7.4002778 39.12449574 1.62402344 39.38745117 C-3.2112912 40.17069222 -5.81409387 42.66871651 -8.87011719 46.30737305 Z " fill="#000000" transform="translate(94.7392578125,21.229736328125)"/>
<path d="M0 0 C2 1 2 1 2 1 Z " fill="#FFFFFF" transform="translate(63,196)"/>
<path d="" fill="#FFFFFF" transform="translate(0,0)"/>
<path d="" fill="#FFFFFF" transform="translate(0,0)"/>
<path d="" fill="#FFFFFF" transform="translate(0,0)"/>
<path d="" fill="#FFFFFF" transform="translate(0,0)"/>
<path d="" fill="#FEFFFF" transform="translate(0,0)"/>
<path d="" fill="#FFFFFF" transform="translate(0,0)"/>
<path d="" fill="#FFFFFF" transform="translate(0,0)"/>
<path d="" fill="#FFFFFF" transform="translate(0,0)"/>
<path d="" fill="#FFFFFF" transform="translate(0,0)"/>
<path d="" fill="#FFFFFF" transform="translate(0,0)"/>
<path d="" fill="#FFFFFF" transform="translate(0,0)"/>
<path d="" fill="#FFFFFF" transform="translate(0,0)"/>
<path d="" fill="#FFFFFF" transform="translate(0,0)"/>
<path d="" fill="#FFFFFF" transform="translate(0,0)"/>
<path d="" fill="#FFFFFF" transform="translate(0,0)"/>
<path d="" fill="#FFFFFF" transform="translate(0,0)"/>
<path d="" fill="#FFFFFF" transform="translate(0,0)"/>
<path d="" fill="#FFFFFF" transform="translate(0,0)"/>
<path d="" fill="#FFFFFF" transform="translate(0,0)"/>
<path d="" fill="#FFFFFF" transform="translate(0,0)"/>
<path d="" fill="#FFFFFF" transform="translate(0,0)"/>
<path d="" fill="#FFFFFF" transform="translate(0,0)"/>
<path d="" fill="#FFFFFF" transform="translate(0,0)"/>
<path d="" fill="#FFFFFF" transform="translate(0,0)"/>
<path d="" fill="#FFFFFF" transform="translate(0,0)"/>
<path d="" fill="#FFFFFF" transform="translate(0,0)"/>
<path d="" fill="#FFFFFF" transform="translate(0,0)"/>
<path d="" fill="#FFFFFF" transform="translate(0,0)"/>
<path d="" fill="#FFFFFF" transform="translate(0,0)"/>
<path d="" fill="#FFFFFF" transform="translate(0,0)"/>
<path d="" fill="#FFFFFF" transform="translate(0,0)"/>
<path d="" fill="#FFFFFF" transform="translate(0,0)"/>
<path d="" fill="#FFFFFF" transform="translate(0,0)"/>
<path d="" fill="#FFFFFF" transform="translate(0,0)"/>
<path d="" fill="#FFFEFF" transform="translate(0,0)"/>
<path d="" fill="#FFFFFF" transform="translate(0,0)"/>
<path d="" fill="#FFFFFF" transform="translate(0,0)"/>
<path d="" fill="#FFFFFF" transform="translate(0,0)"/>
</svg>
