<?xml version="1.0" encoding="UTF-8"?>
<svg version="1.1" xmlns="http://www.w3.org/2000/svg" width="251" height="200">
<path d="M0 0 C0.5775 0.165 1.155 0.33 1.75 0.5 C4.26664369 1.14462031 4.26664369 1.14462031 8 1 C9.69514137 1.95093297 11.36368108 2.95107762 13 4 C13.99 4.33 14.98 4.66 16 5 C16 5.66 16 6.32 16 7 C16.61488281 7.12117188 17.22976562 7.24234375 17.86328125 7.3671875 C18.67152344 7.53476563 19.47976562 7.70234375 20.3125 7.875 C21.11300781 8.03742188 21.91351563 8.19984375 22.73828125 8.3671875 C25.50348586 9.14087169 27.47993524 10.63982638 29.82006836 12.26049805 C36.31846035 16.36037462 41.99681811 16.77145652 49.5625 16.8125 C50.66658203 16.83763672 51.77066406 16.86277344 52.90820312 16.88867188 C55.60582805 16.94706202 58.30184832 16.98369407 61 17 C61 17.66 61 18.32 61 19 C62.32 19 63.64 19 65 19 C65.33 18.34 65.66 17.68 66 17 C67.051875 17.185625 68.10375 17.37125 69.1875 17.5625 C72.60839386 17.95506159 74.79833656 18.18918928 78 17 C79.36020151 15.03241727 79.36020151 15.03241727 80 13 C81.32 13 82.64 13 84 13 C84 12.34 84 11.68 84 11 C90.72571592 6.76808886 96.81768392 5.5061108 104.625 5.5 C105.41173096 5.49419922 106.19846191 5.48839844 107.0090332 5.48242188 C112.78781919 5.60287599 117.62373167 6.95112139 123 9 C123.99 9.33 124.98 9.66 126 10 C126 10.66 126 11.32 126 12 C126.721875 12.268125 127.44375 12.53625 128.1875 12.8125 C131 14 131 14 133.1875 15.5625 C136.77472508 17.39597059 139.890054 17.33388794 143.8125 17.1875 C144.50537109 17.17396484 145.19824219 17.16042969 145.91210938 17.14648438 C147.60841265 17.11138845 149.30431136 17.05758943 151 17 C151 16.34 151 15.68 151 15 C151.86625 15.0825 152.7325 15.165 153.625 15.25 C157.79694919 14.94096673 159.7543096 13.56635985 163 11 C163.33 10.34 163.66 9.68 164 9 C165.32 9 166.64 9 168 9 C168 8.01 168 7.02 168 6 C169.65 5.67 171.3 5.34 173 5 C173 4.34 173 3.68 173 3 C173.598125 2.87625 174.19625 2.7525 174.8125 2.625 C177.26231348 2.04524015 177.26231348 2.04524015 180 0 C182.94973778 0.09515283 183.93651262 0.93843648 186.0625 3 C189.15864356 7.79402873 190.44268824 13.04940883 192 18.5 C192.33 19.325 192.66 20.15 193 21 C193.99 21.33 194.98 21.66 196 22 C196.87890625 23.99609375 196.87890625 23.99609375 197.5625 26.4375 C198.58507259 30.09858228 198.58507259 30.09858228 201 33 C201 34.32 201 35.64 201 37 C201.99 37.33 202.98 37.66 204 38 C204 39.32 204 40.64 204 42 C204.66 42.33 205.32 42.66 206 43 C207.0703125 44.99609375 207.0703125 44.99609375 208.125 47.4375 C208.65480469 48.64212891 208.65480469 48.64212891 209.1953125 49.87109375 C210 52 210 52 210 54 C210.66 54 211.32 54 212 54 C212 55.32 212 56.64 212 58 C212.66 58.33 213.32 58.66 214 59 C215.0703125 60.99609375 215.0703125 60.99609375 216.125 63.4375 C216.65480469 64.64212891 216.65480469 64.64212891 217.1953125 65.87109375 C218 68 218 68 218 70 C218.66 70 219.32 70 220 70 C220 71.32 220 72.64 220 74 C220.66 74 221.32 74 222 74 C222.25 77.3125 222.25 77.3125 222 81 C220.125 82.9375 220.125 82.9375 218 84 C217.34 84 216.68 84 216 84 C216 84.66 216 85.32 216 86 C214.68 86 213.36 86 212 86 C211.67 86.66 211.34 87.32 211 88 C208.45740679 89.13004143 205.86443242 90.0492973 203.25 91 C200.84296517 91.78431361 200.84296517 91.78431361 200 94 C198.67511887 94.36548445 197.33981486 94.6937566 196 95 C195.360625 95.350625 194.72125 95.70125 194.0625 96.0625 C191.49041305 97.23163043 189.79708881 97.35860113 187 97 C186.505 96.484375 186.01 95.96875 185.5 95.4375 C185.005 94.963125 184.51 94.48875 184 94 C181.34533951 94.23043864 181.34533951 94.23043864 179 95 C178.67 95.99 178.34 96.98 178 98 C177.01 98.33 176.02 98.66 175 99 C174.19787372 100.87387216 174.19787372 100.87387216 173.8125 103.0625 C173.65394531 103.79597656 173.49539062 104.52945313 173.33203125 105.28515625 C173.22246094 105.85105469 173.11289063 106.41695313 173 107 C173.66 107.33 174.32 107.66 175 108 C174.06981474 109.46300982 173.13055973 110.92025579 172.1875 112.375 C171.40439453 113.59316406 171.40439453 113.59316406 170.60546875 114.8359375 C169 117 169 117 166 119 C165.01 119 164.02 119 163 119 C163 119.66 163 120.32 163 121 C162.360625 121.2475 161.72125 121.495 161.0625 121.75 C158.81258459 122.81562433 158.81258459 122.81562433 158.25 125.125 C158.1675 125.74375 158.085 126.3625 158 127 C157.01 127 156.02 127 155 127 C154.67 127.99 154.34 128.98 154 130 C151.66736169 132.6336239 149.98840178 133.90176435 146.4453125 134.25390625 C143.95155852 134.25037402 141.48732137 134.17387101 139 134 C139 133.34 139 132.68 139 132 C138.34 132.33 137.68 132.66 137 133 C136.855625 133.66 136.71125 134.32 136.5625 135 C136.376875 135.66 136.19125 136.32 136 137 C135.01 137.33 134.02 137.66 133 138 C132.34 138.66 131.68 139.32 131 140 C128.1599454 140.94668487 126.54968291 141.07985482 123.625 141 C120.27033353 140.95621969 117.26946503 141.15626709 114 142 C114 141.34 114 140.68 114 140 C112.02463255 140.34786708 112.02463255 140.34786708 110 141 C109.67 141.66 109.34 142.32 109 143 C100.07018562 143.46321804 93.02668177 143.1428035 85 139 C84.67 139.99 84.34 140.98 84 142 C83.01 141.67 82.02 141.34 81 141 C79.72125 141.04125 78.4425 141.0825 77.125 141.125 C72.3475982 141.18636112 69.76319911 139.51999923 66.1875 136.4375 C65 135 65 135 65 133 C63.68 133 62.36 133 61 133 C61 133.66 61 134.32 61 135 C59.68 134.67 58.36 134.34 57 134 C57 133.34 57 132.68 57 132 C56.443125 131.938125 55.88625 131.87625 55.3125 131.8125 C52.00931958 130.6519231 50.28105267 128.59786554 48 126 C48 125.34 48 124.68 48 124 C44.535 124.495 44.535 124.495 41 125 C41 124.34 41 123.68 41 123 C39.68 123 38.36 123 37 123 C32 117.77272727 32 117.77272727 32 115 C31.38511719 114.89042969 30.77023438 114.78085938 30.13671875 114.66796875 C28.92435547 114.43013672 28.92435547 114.43013672 27.6875 114.1875 C26.48673828 113.96126953 26.48673828 113.96126953 25.26171875 113.73046875 C22.73617721 112.91479298 21.74451996 111.94915573 20 110 C19.01 109.505 19.01 109.505 18 109 C17.59367909 107.01354224 17.27050453 105.00946222 17 103 C16.67364302 101.33195323 16.34274406 99.66475686 16 98 C14.68 98 13.36 98 12 98 C10.25 96.5 10.25 96.5 9 95 C8.15695313 95.50660156 8.15695313 95.50660156 7.296875 96.0234375 C4.60273356 97.1689058 3.11961767 97.0470026 0.25 96.625 C-0.54921875 96.51414062 -1.3484375 96.40328125 -2.171875 96.2890625 C-2.77515625 96.19367188 -3.3784375 96.09828125 -4 96 C-4 95.34 -4 94.68 -4 94 C-4.64066406 93.96261719 -5.28132813 93.92523438 -5.94140625 93.88671875 C-11.65661979 93.45232845 -15.8495852 92.47616096 -21 90 C-22.093125 89.649375 -23.18625 89.29875 -24.3125 88.9375 C-27 88 -27 88 -29 86 C-29.37438516 81.13299294 -28.70070745 77.53521987 -27 73 C-26.30329119 70.67449898 -25.65459922 68.33785435 -25 66 C-24.34 66 -23.68 66 -23 66 C-23.0825 65.175 -23.165 64.35 -23.25 63.5 C-22.96794736 59.55126303 -21.80594157 57.42678049 -19.94921875 54.01953125 C-18.58089371 51.10832118 -18.36609763 48.17284613 -18 45 C-16.9375 42.5625 -16.9375 42.5625 -16 41 C-15.34 41 -14.68 41 -14 41 C-14.04125 39.906875 -14.0825 38.81375 -14.125 37.6875 C-14 34 -14 34 -12 31 C-12 30.34 -12 29.68 -12 29 C-11.34 29 -10.68 29 -10 29 C-10.04125 28.071875 -10.0825 27.14375 -10.125 26.1875 C-10 23 -10 23 -8 20 C-8 19.01 -8 18.02 -8 17 C-7.34 17 -6.68 17 -6 17 C-5.80083984 16.09507813 -5.80083984 16.09507813 -5.59765625 15.171875 C-5.42105469 14.37265625 -5.24445312 13.5734375 -5.0625 12.75 C-4.80146484 11.56664063 -4.80146484 11.56664063 -4.53515625 10.359375 C-4.35855469 9.58078125 -4.18195312 8.8021875 -4 8 C-3.85433594 7.26265625 -3.70867188 6.5253125 -3.55859375 5.765625 C-3.37425781 5.18296875 -3.18992187 4.6003125 -3 4 C-2.34 3.67 -1.68 3.34 -1 3 C-0.67 2.01 -0.34 1.02 0 0 Z M8 14 C8 14.66 8 15.32 8 16 C7.37351562 16.07734375 6.74703125 16.1546875 6.1015625 16.234375 C3.83784572 16.79019416 3.83784572 16.79019416 3.0234375 18.890625 C2.80945313 19.66921875 2.59546875 20.4478125 2.375 21.25 C2.01535156 22.48169922 2.01535156 22.48169922 1.6484375 23.73828125 C1.43445313 24.48464844 1.22046875 25.23101562 1 26 C0.67 26.804375 0.34 27.60875 0 28.4375 C-1.2701008 31.69213331 -2.22124188 35.01185367 -3.203125 38.36328125 C-4.19309934 41.63893164 -5.30768861 44.86428936 -6.44921875 48.08984375 C-7.138528 50.14909721 -7.138528 50.14909721 -7 53 C-7.66 53 -8.32 53 -9 53 C-9.20496094 53.78246094 -9.40992188 54.56492188 -9.62109375 55.37109375 C-10.02521484 56.88896484 -10.02521484 56.88896484 -10.4375 58.4375 C-10.70433594 59.44683594 -10.97117187 60.45617187 -11.24609375 61.49609375 C-12 64 -12 64 -13 65 C-13.04063832 66.66617115 -13.042721 68.33388095 -13 70 C-13.66 70 -14.32 70 -15 70 C-15.12375 70.9075 -15.2475 71.815 -15.375 72.75 C-15.9275659 75.62334269 -16.64482241 77.46592809 -18 80 C-16.39935157 80.53154742 -14.79431126 81.04988353 -13.1875 81.5625 C-12.29417969 81.85253906 -11.40085937 82.14257812 -10.48046875 82.44140625 C-7.88784861 83.24979556 -7.88784861 83.24979556 -5 82 C-5 82.66 -5 83.32 -5 84 C-3.35 84.33 -1.7 84.66 0 85 C0 84.01 0 83.02 0 82 C0.99 82 1.98 82 3 82 C3.9590625 80.3603125 3.9590625 80.3603125 4.9375 78.6875 C5.29714844 78.07261719 5.65679687 77.45773438 6.02734375 76.82421875 C7.13901247 74.86180445 7.13901247 74.86180445 8 72 C8.33 71.01 8.66 70.02 9 69 C8.67 68.01 8.34 67.02 8 66 C8.99 66 9.98 66 11 66 C11.38091797 64.93072266 11.38091797 64.93072266 11.76953125 63.83984375 C14.92052841 55.07133854 14.92052841 55.07133854 16.6875 51.1875 C17.96642073 48.08154967 18.59473044 45.32321043 19 42 C19.33 42 19.66 42 20 42 C20.36402369 40.56496445 20.71586591 39.12683494 21.0625 37.6875 C21.25972656 36.88699219 21.45695312 36.08648437 21.66015625 35.26171875 C22.19885554 32.84042821 22.19885554 32.84042821 21 30 C21.66 30 22.32 30 23 30 C23.33 27.69 23.66 25.38 24 23 C23.34 22.67 22.68 22.34 22 22 C22.33 21.34 22.66 20.68 23 20 C21.6078125 19.8453125 21.6078125 19.8453125 20.1875 19.6875 C16.73789079 18.94346664 16.30973218 18.40597102 14 16 C10.89992799 14.79950593 10.89992799 14.79950593 8 14 Z M171 18 C168.3597113 19.70931985 165.68022267 21.35413511 163 23 C163.33 23.66 163.66 24.32 164 25 C164.66 25 165.32 25 166 25 C165.79375 25.86625 165.5875 26.7325 165.375 27.625 C164.95952378 31.36428602 165.60333724 33.54942141 167 37 C167.66 37 168.32 37 169 37 C168.67 37.99 168.34 38.98 168 40 C168.75347275 42.55065942 168.75347275 42.55065942 169.9375 45.1875 C170.50791016 46.53908203 170.50791016 46.53908203 171.08984375 47.91796875 C171.39019531 48.60503906 171.69054687 49.29210937 172 50 C172.66 50 173.32 50 174 50 C174.12375 51.051875 174.2475 52.10375 174.375 53.1875 C175.10192386 57.62173553 175.79436939 60.79436939 179 64 C179.68800816 65.41779819 180.32912438 66.85875104 180.9375 68.3125 C182.41011711 71.70663609 183.84856289 74.96842953 186 78 C186.66 78 187.32 78 188 78 C188.33 79.32 188.66 80.64 189 82 C189.99 82 190.98 82 192 82 C192.33 82.99 192.66 83.98 193 85 C194.31602523 84.38245741 195.62773556 83.75571258 196.9375 83.125 C197.66839844 82.77695313 198.39929688 82.42890625 199.15234375 82.0703125 C201.16332459 81.1315023 201.16332459 81.1315023 202 79 C203.65391846 78.60828247 205.32345271 78.27942455 207 78 C207.99 77.67 208.98 77.34 210 77 C209.61589404 74.23443708 209.29148655 72.38302778 207.58203125 70.13671875 C205.88079627 67.83900138 204.98918237 65.737414 204 63.0625 C202.61485444 59.48332617 201.28685909 56.11844421 199 53 C198.34 53 197.68 53 197 53 C197.04125 52.21625 197.0825 51.4325 197.125 50.625 C197.28728734 47.83883881 197.28728734 47.83883881 195 46 C194.08134935 44.14599596 193.21126276 42.26759467 192.375 40.375 C191.92898437 39.37210938 191.48296875 38.36921875 191.0234375 37.3359375 C190.68570313 36.56507812 190.34796875 35.79421875 190 35 C189.34 35 188.68 35 188 35 C188 33.68 188 32.36 188 31 C187.34 31 186.68 31 186 31 C185.938125 30.21625 185.87625 29.4325 185.8125 28.625 C184.6967665 23.64711207 182.39693773 19.47546306 180 15 C175.70831008 14.86654319 174.31596895 15.25248287 171 18 Z M83.875 23.875 C82.88242188 24.53242187 81.88984375 25.18984375 80.8671875 25.8671875 C75.6283153 29.7299153 75.6283153 29.7299153 72.125 35.0625 C71.98401182 37.24781682 72.33236371 38.92290932 73 41 C72.34 41 71.68 41 71 41 C71.0825 41.7425 71.165 42.485 71.25 43.25 C70.92535373 46.82110901 69.67209691 47.72085852 67 50 C64.73160017 51.83265325 64.73160017 51.83265325 64.8125 54.5625 C64.72996677 56.94689723 64.72996677 56.94689723 66 58 C72.38208497 58.27748196 75.53914956 56.9248773 80.21875 52.8203125 C83.82354993 49.13645994 86.37507359 44.87477924 88 40 C89.98 39.67 91.96 39.34 94 39 C94 38.34 94 37.68 94 37 C94.69867188 37.0721875 95.39734375 37.144375 96.1171875 37.21875 C97.02726562 37.3115625 97.93734375 37.404375 98.875 37.5 C100.23238281 37.63921875 100.23238281 37.63921875 101.6171875 37.78125 C103.93313211 38.03047295 103.93313211 38.03047295 106 38 C106 38.66 106 39.32 106 40 C107.40475472 40.94571233 108.81408129 41.88528035 110.24462891 42.79150391 C113.98830308 45.36885956 117.14004088 48.69976121 120.40820312 51.84179688 C123.79877716 55.05506215 123.79877716 55.05506215 128 57 C129.53515625 58.62890625 129.53515625 58.62890625 131.0625 60.5625 C132.52753465 62.4710222 132.52753465 62.4710222 134 64 C134.66 64 135.32 64 136 64 C136.33 64.99 136.66 65.98 137 67 C138.79008327 68.85206604 138.79008327 68.85206604 140.9375 70.625 C141.64777344 71.23601562 142.35804688 71.84703125 143.08984375 72.4765625 C144.92714018 74.05026342 144.92714018 74.05026342 147 75 C147.66 74.67 148.32 74.34 149 74 C149.226875 74.556875 149.45375 75.11375 149.6875 75.6875 C151.3703574 78.65253447 153.53621374 80.65353689 156 83 C160 87 160 87 161.4375 88.6875 C163.59421802 90.49914313 165.20455944 90.86022797 168 91 C169.64555699 89.77190909 169.64555699 89.77190909 171 88 C173.41460158 86.03813622 175.01245926 84.99584691 178 84 C178 83.34 178 82.68 178 82 C177.34 82 176.68 82 176 82 C175.87625 81.195625 175.7525 80.39125 175.625 79.5625 C175.315625 78.2940625 175.315625 78.2940625 175 77 C174.34 76.67 173.68 76.34 173 76 C172.0703125 73.92578125 172.0703125 73.92578125 171.125 71.3125 C169.52685145 67.11062629 167.51651268 63.73138086 165 60 C164.64080332 58.33871537 164.31088368 56.67099977 164 55 C163.40025825 53.59312917 162.77174877 52.19839023 162.125 50.8125 C159.90811673 46.00655597 158.40397933 41.09474318 157 36 C156.34 36 155.68 36 155 36 C155.2784375 35.1028125 155.2784375 35.1028125 155.5625 34.1875 C156.22093687 31.83591238 156.22093687 31.83591238 155 29 C154.505 27.515 154.505 27.515 154 26 C153.01 26 152.02 26 151 26 C151 26.66 151 27.32 151 28 C150.484375 27.835 149.96875 27.67 149.4375 27.5 C146.26636124 26.84951 143.22781666 26.9379266 140 27 C140 27.66 140 28.32 140 29 C139.01 28.01 139.01 28.01 138 27 C137.39929688 27.19207031 136.79859375 27.38414063 136.1796875 27.58203125 C134 28 134 28 131.6328125 26.63671875 C130.80523437 25.99347656 129.97765625 25.35023437 129.125 24.6875 C125.46441296 21.97435902 122.45093556 20.16572122 118 19 C117.45730469 18.66226563 116.91460937 18.32453125 116.35546875 17.9765625 C112.86394257 16.52899775 109.40602202 16.67143033 105.6875 16.6875 C104.95337891 16.67138672 104.21925781 16.65527344 103.46289062 16.63867188 C95.75497217 16.63183255 90.21261874 19.622342 83.875 23.875 Z M33 26 C32.63536268 27.74784829 32.2836922 29.49840502 31.9375 31.25 C31.74027344 32.22453125 31.54304688 33.1990625 31.33984375 34.203125 C31.01602465 36.868119 31.14496801 38.48871723 32 41 C31.34 41 30.68 41 30 41 C29.67 42.98 29.34 44.96 29 47 C28.67 47 28.34 47 28 47 C28 48.98 28 50.96 28 53 C27.34 53 26.68 53 26 53 C25.690625 54.11375 25.38125 55.2275 25.0625 56.375 C24 60 24 60 23 62 C23.33 62.99 23.66 63.98 24 65 C22.515 65.495 22.515 65.495 21 66 C19.79056185 68.29027742 19.79056185 68.29027742 18.875 71 C17.06726457 75.93273543 17.06726457 75.93273543 16 77 C15.95936168 78.66617115 15.957279 80.33388095 16 82 C14.68 82.66 13.36 83.32 12 84 C12.95441455 86.36232168 12.95441455 86.36232168 16.1875 87.875 C17.445625 88.24625 18.70375 88.6175 20 89 C22.93282876 87.29582863 22.93282876 87.29582863 26 85 C30.46673772 83.53750362 34.4349697 82.54353283 39 83.875 C39.66 84.24625 40.32 84.6175 41 85 C41.66 85 42.32 85 43 85 C43.33 86.32 43.66 87.64 44 89 C44.66 88.34 45.32 87.68 46 87 C48.34260643 87.2602896 50.67724823 87.59952556 53 88 C54.32 88 55.64 88 57 88 C57 88.66 57 89.32 57 90 C57.99 90.33 58.98 90.66 60 91 C60.33 91.99 60.66 92.98 61 94 C64.06836426 95.23313967 64.06836426 95.23313967 67.75 94.75 C71.88793195 94.71957403 74.26134134 95.82650782 77.484375 98.3671875 C79.64887191 100.69904242 80.64689493 103.31178832 81.90234375 106.203125 C83.84206537 109.37847001 86.55100672 109.87123856 90 111 C91.485 111.99 91.485 111.99 93 113 C93.59683594 112.773125 94.19367188 112.54625 94.80859375 112.3125 C97 112 97 112 99.91015625 114.125 C100.9719193 115.0711518 102.02239688 116.03008789 103.0625 117 C104.99520152 118.78910251 106.90000206 120.39325052 109 122 C109.99 121.67 110.98 121.34 112 121 C112.103125 121.61875 112.20625 122.2375 112.3125 122.875 C112.87525373 125.36526484 112.87525373 125.36526484 116 127 C119.77777778 129.77777778 119.77777778 129.77777778 121 131 C122.66617115 131.04063832 124.33388095 131.042721 126 131 C126.66 129.35 127.32 127.7 128 126 C127.236875 125.01 126.47375 124.02 125.6875 123 C125.25824219 122.443125 124.82898438 121.88625 124.38671875 121.3125 C122.95508863 119.65629795 122.95508863 119.65629795 120 120 C119.71125 119.360625 119.4225 118.72125 119.125 118.0625 C117.5431334 115.16241122 116.13872499 115.04624166 113 114 C112.690625 113.34 112.38125 112.68 112.0625 112 C111.711875 111.34 111.36125 110.68 111 110 C109.67405895 109.63837971 108.34061543 109.30271961 107 109 C106.67 108.01 106.34 107.02 106 106 C104.515 105.505 104.515 105.505 103 105 C102.67 104.01 102.34 103.02 102 102 C100.68 102 99.36 102 98 102 C97.938125 101.4225 97.87625 100.845 97.8125 100.25 C96.66615826 97.07551517 94.74043158 95.87151425 92 94 C91.34 94 90.68 94 90 94 C89.34 92.68 88.68 91.36 88 90 C87.34 90 86.68 90 86 90 C86 88.68 86 87.36 86 86 C87.32 85.67 88.64 85.34 90 85 C90 84.01 90 83.02 90 82 C91.32 82 92.64 82 94 82 C94 82.66 94 83.32 94 84 C95.48928959 85.324494 95.48928959 85.324494 97.375 86.5625 C98.00148438 86.99691406 98.62796875 87.43132812 99.2734375 87.87890625 C101.00568714 89.04951638 101.00568714 89.04951638 103 90 C104.02408568 90.9753197 105.01834406 91.98198643 106 93 C108.59534707 95.66023074 110.90109671 97.93406448 114 100 C115.32 100 116.64 100 118 100 C117.505 101.485 117.505 101.485 117 103 C117.639375 103.103125 118.27875 103.20625 118.9375 103.3125 C119.618125 103.539375 120.29875 103.76625 121 104 C121.33 104.99 121.66 105.98 122 107 C123.32 107 124.64 107 126 107 C126 108.32 126 109.64 126 111 C127.32 111 128.64 111 130 111 C130.33 112.32 130.66 113.64 131 115 C131.99 115 132.98 115 134 115 C134.103125 115.639375 134.20625 116.27875 134.3125 116.9375 C134.539375 117.618125 134.76625 118.29875 135 119 C136.485 119.495 136.485 119.495 138 120 C139 121 140 122 141 123 C141.66 123 142.32 123 143 123 C143 122.34 143 121.68 143 121 C143.99 121 144.98 121 146 121 C147.10636395 118.60931266 147.10636395 118.60931266 148 116 C147.67 115.34 147.34 114.68 147 114 C145.68 114 144.36 114 143 114 C142.938125 113.4225 142.87625 112.845 142.8125 112.25 C141.66615826 109.07551517 139.74043158 107.87151425 137 106 C136.34 106 135.68 106 135 106 C134.65775391 105.13761719 134.65775391 105.13761719 134.30859375 104.2578125 C132.64740758 101.39164651 130.67602152 99.90732233 128.0625 97.875 C122.90826337 93.78692299 118.09654072 89.47464882 113.3125 84.96875 C111.07888919 82.81841082 111.07888919 82.81841082 108 82 C106.25 80.1875 106.25 80.1875 105 78 C105.24796367 75.83031791 105.44233607 74.55766393 107 73 C109.32548007 72.30643577 111.65880445 71.63850788 114 71 C114 71.99 114 72.98 114 74 C115.485 74.495 115.485 74.495 117 75 C118.61770388 76.75672531 120.04034929 78.61472291 121.5 80.50390625 C123.00092071 82.35309213 123.00092071 82.35309213 126 82 C126.99 83.98 126.99 83.98 128 86 C128.66 86 129.32 86 130 86 C130 86.66 130 87.32 130 88 C131.69903023 89.51740976 133.46072723 90.965128 135.25 92.375 C138.02804313 94.57244682 140.69777063 96.69016053 143.171875 99.2265625 C144.97557993 101.23273903 144.97557993 101.23273903 148 102 C149 103 150 104 151 105 C151.66 105 152.32 105 153 105 C153.33 105.99 153.66 106.98 154 108 C156.475 107.505 156.475 107.505 159 107 C159 107.99 159 108.98 159 110 C160.32 109.67 161.64 109.34 163 109 C163 108.01 163 107.02 163 106 C162.34 106 161.68 106 161 106 C161.33 104.68 161.66 103.36 162 102 C161.360625 101.731875 160.72125 101.46375 160.0625 101.1875 C158 100 158 100 157 97 C156.01 97 155.02 97 154 97 C153.73960937 96.40574219 153.47921875 95.81148438 153.2109375 95.19921875 C151.92230431 92.85889461 150.65189559 91.53403359 148.625 89.8125 C147.74714844 89.04873047 147.74714844 89.04873047 146.8515625 88.26953125 C144.88975091 86.92440727 143.323911 86.42485598 141 86 C141 85.34 141 84.68 141 84 C140.34 84 139.68 84 139 84 C138.90203125 83.40058594 138.8040625 82.80117187 138.703125 82.18359375 C137.85747621 79.55738445 136.89989182 78.74969771 134.75 77.0625 C130.82062142 73.87239101 127.30098766 70.41578068 123.875 66.6875 C122.04877868 64.66551763 122.04877868 64.66551763 119 65 C118.7525 64.4225 118.505 63.845 118.25 63.25 C116.80606301 60.65091342 115.26478013 58.92163162 113 57 C112.01 57 111.02 57 110 57 C110 56.01 110 55.02 110 54 C109.38125 53.9175 108.7625 53.835 108.125 53.75 C107.42375 53.5025 106.7225 53.255 106 53 C105.5978125 52.01 105.5978125 52.01 105.1875 51 C104.5996875 50.01 104.5996875 50.01 104 49 C100.14090895 48.08785121 97.78396692 47.73867769 94 49 C92.95450199 50.63850898 91.96014004 52.31005655 91 54 C83.33667887 63.8790205 77.3029088 67.30918432 65 69 C65 68.34 65 67.68 65 67 C64.236875 66.71125 63.47375 66.4225 62.6875 66.125 C59.62345914 64.84237825 57.50104239 63.82671995 55.75 60.9375 C54.69177139 56.79277128 55.39206658 53.18159607 56 49 C56 48.34 56 47.68 56 47 C57.33538993 44.51999013 58.50458403 42.43825259 60.625 40.5625 C62.74433567 38.15416401 62.87368977 36.15775568 63 33 C62.26051003 30.01742082 62.26051003 30.01742082 60 28 C56.08750071 27.28419971 52.7462782 27.7512406 49 29 C49 28.34 49 27.68 49 27 C47.60974609 27.01740234 47.60974609 27.01740234 46.19140625 27.03515625 C44.99386719 27.04417969 43.79632813 27.05320312 42.5625 27.0625 C41.36753906 27.07410156 40.17257813 27.08570312 38.94140625 27.09765625 C36 27 36 27 35 26 C34.34 26 33.68 26 33 26 Z M87 87 C88 89 88 89 88 89 Z M31 93 C31 94.65 31 96.3 31 98 C30.01 98 29.02 98 28 98 C27.67 98.99 27.34 99.98 27 101 C27.33 101.66 27.66 102.32 28 103 C30.43717258 102.72965366 30.43717258 102.72965366 33 102 C34.54571278 99.68143083 35.79618552 97.49361571 37 95 C35.02 94.34 33.04 93.68 31 93 Z M46.359375 99.35546875 C42.84384594 103.08763356 42.84384594 103.08763356 42.125 107.9375 C42.41375 108.618125 42.7025 109.29875 43 110 C42.34 110 41.68 110 41 110 C41.66 111.32 42.32 112.64 43 114 C43.66 114 44.32 114 45 114 C45.33 113.34 45.66 112.68 46 112 C46.99 112 47.98 112 49 112 C49.103125 111.38125 49.20625 110.7625 49.3125 110.125 C50 108 50 108 53 106 C53.73343428 102.93443402 53.73343428 102.93443402 54 100 C50.16255933 97.40437575 50.16255933 97.40437575 46.359375 99.35546875 Z M65 105 C63.99157547 106.43160268 62.99352109 107.87051453 62 109.3125 C61.443125 110.11300781 60.88625 110.91351563 60.3125 111.73828125 C58.74904036 113.99663018 58.74904036 113.99663018 59 117 C59 117.66 59 118.32 59 119 C58.34 119 57.68 119 57 119 C57.66 120.32 58.32 121.64 59 123 C61.37374861 123.33425735 61.37374861 123.33425735 64 123 C65.77797841 121.09502313 66.83981519 119.32036962 68 117 C68.98020375 115.9805881 69.97803008 114.97753644 71 114 C70.67 113.01 70.34 112.02 70 111 C70.99 111 71.98 111 73 111 C72.67 109.35 72.34 107.7 72 106 C69.69 105.67 67.38 105.34 65 105 Z M80 118 C79.67 119.32 79.34 120.64 79 122 C78.34 122 77.68 122 77 122 C77 123.65 77 125.3 77 127 C76.01 127 75.02 127 74 127 C74 128.32 74 129.64 74 131 C75.32 131 76.64 131 78 131 C78 129.68 78 128.36 78 127 C78.78375 126.731875 79.5675 126.46375 80.375 126.1875 C83.28114923 125.15185568 83.28114923 125.15185568 85 122 C84.69159401 119.84725052 84.69159401 119.84725052 84 118 C82.68 118 81.36 118 80 118 Z M147 119 C148 121 148 121 148 121 Z M95 123 C92.06342985 126.65152843 92.06342985 126.65152843 91 131 C95.67952614 132.80441192 95.67952614 132.80441192 100.4375 132.125 C100.953125 131.75375 101.46875 131.3825 102 131 C101.67 129.68 101.34 128.36 101 127 C100.01 127 99.02 127 98 127 C97.34 125.68 96.68 124.36 96 123 C95.67 123 95.34 123 95 123 Z M102 131 C102.33 131.99 102.66 132.98 103 134 C103.99 133.67 104.98 133.34 106 133 C106 132.34 106 131.68 106 131 C104.68 131 103.36 131 102 131 Z " fill="#010101" transform="translate(29,57)"/>
<path d="M0 0 C3.375 -0.125 3.375 -0.125 7 0 C10.71656547 3.71656547 10.9466586 9.47977004 11.125 14.5625 C11.08375 15.366875 11.0425 16.17125 11 17 C11.66 17 12.32 17 13 17 C12.95875 18.2375 12.9175 19.475 12.875 20.75 C12.84748218 24.0158922 12.84748218 24.0158922 14.0625 27 C15.62393998 30.33107195 14.59425347 33.43447918 14 37 C14.66 37 15.32 37 16 37 C15.67 39.64 15.34 42.28 15 45 C15.66 45 16.32 45 17 45 C16.67 46.32 16.34 47.64 16 49 C9.6812749 50.21513944 9.6812749 50.21513944 6.625 49.25 C5 48 5 48 4 45 C4.495 44.505 4.495 44.505 5 44 C5.04092937 41.66702567 5.04241723 39.33294775 5 37 C4.34 37 3.68 37 3 37 C2.93941406 36.38511719 2.87882812 35.77023438 2.81640625 35.13671875 C2.73261719 34.32847656 2.64882812 33.52023438 2.5625 32.6875 C2.48128906 31.88699219 2.40007812 31.08648438 2.31640625 30.26171875 C2.04734307 27.83912821 2.04734307 27.83912821 1 25 C1.4375 22.3125 1.4375 22.3125 2 20 C1.34 20 0.68 20 0 20 C0.04125 19.030625 0.0825 18.06125 0.125 17.0625 C0.15634752 13.20675506 -0.69600206 9.80340025 -1.7578125 6.11328125 C-2.05949425 3.48086468 -1.35729871 2.2269753 0 0 Z " fill="#000000" transform="translate(102,0)"/>
<path d="M0 0 C3.33333333 0 6.66666667 0 10 0 C10 3.96 10 7.92 10 12 C9.34 12 8.68 12 8 12 C8.02320313 12.80824219 8.04640625 13.61648438 8.0703125 14.44921875 C8.09738281 16.05216797 8.09738281 16.05216797 8.125 17.6875 C8.14820313 18.74324219 8.17140625 19.79898437 8.1953125 20.88671875 C7.99858729 24.02251859 7.33057654 26.17645373 6 29 C6.66 29.33 7.32 29.66 8 30 C7.34 30.99 6.68 31.98 6 33 C5.75944532 35.05709596 5.75944532 35.05709596 5.875 37.1875 C5.91625 38.445625 5.9575 39.70375 6 41 C5.67 41 5.34 41 5 41 C3.43727811 45.39253773 3.43727811 45.39253773 3 50 C-3.4 49.63076923 -3.4 49.63076923 -6.4375 46.4375 C-6.953125 45.633125 -7.46875 44.82875 -8 44 C-7.67 43.29875 -7.34 42.5975 -7 41.875 C-5.89822228 38.70738906 -5.93056823 36.33272484 -6 33 C-5.69327878 31.32823118 -5.35697156 29.66176418 -5 28 C-4.835 27.14019531 -4.67 26.28039062 -4.5 25.39453125 C-4.335 24.54246094 -4.17 23.69039062 -4 22.8125 C-3.835 21.95269531 -3.67 21.09289062 -3.5 20.20703125 C-3 18 -3 18 -2 16 C-2.66 16 -3.32 16 -4 16 C-3.67 15.319375 -3.34 14.63875 -3 13.9375 C-1.82692685 10.49159762 -1.85819507 7.61602578 -2 4 C-1.34 4 -0.68 4 0 4 C0 2.68 0 1.36 0 0 Z " fill="#010101" transform="translate(143,0)"/>
<path d="M0 0 C1.32 0 2.64 0 4 0 C4 0.99 4 1.98 4 3 C5.32 3.33 6.64 3.66 8 4 C8 4.66 8 5.32 8 6 C7.34 6 6.68 6 6 6 C5.9175 6.9075 5.835 7.815 5.75 8.75 C4.89073449 12.47348388 3.72010026 13.44990601 1 16 C0.3574765 18.06874034 0.3574765 18.06874034 0 20 C-2 22 -2 22 -4 23 C-4.65213292 25.02463255 -4.65213292 25.02463255 -5 27 C-5.66 27 -6.32 27 -7 27 C-7.226875 27.7425 -7.45375 28.485 -7.6875 29.25 C-9.564674 33.18312648 -12.15549393 35.26219757 -16.1875 36.875 C-16.785625 36.91625 -17.38375 36.9575 -18 37 C-18.66 36.34 -19.32 35.68 -20 35 C-20 34.01 -20 33.02 -20 32 C-20.0825 31.195625 -20.165 30.39125 -20.25 29.5625 C-19.91163556 26.09426447 -18.48750604 25.42027614 -16 23 C-13.59113138 19.15561375 -11.43622296 15.30866889 -10 11 C-9.34 11 -8.68 11 -8 11 C-7.87625 10.360625 -7.7525 9.72125 -7.625 9.0625 C-7.41875 8.381875 -7.2125 7.70125 -7 7 C-6.34 6.67 -5.68 6.34 -5 6 C-4.67 5.01 -4.34 4.02 -4 3 C-1.9375 2.3125 -1.9375 2.3125 0 2 C0 1.34 0 0.68 0 0 Z " fill="#010101" transform="translate(184,18)"/>
<path d="M0 0 C9.04109589 1.80821918 9.04109589 1.80821918 12 6 C12 7.32 12 8.64 12 10 C12.99 10 13.98 10 15 10 C16.4606285 12.64738916 17 13.89448334 17 17 C17.66 17.33 18.32 17.66 19 18 C22 20 22 20 22.51171875 22.3828125 C22.56972656 23.28773437 22.62773438 24.19265625 22.6875 25.125 C22.75324219 26.03507812 22.81898437 26.94515625 22.88671875 27.8828125 C22.92410156 28.58148438 22.96148437 29.28015625 23 30 C20 32 20 32 16 32 C16 31.34 16 30.68 16 30 C14.68 30 13.36 30 12 30 C12 28.68 12 27.36 12 26 C10.68 25.34 9.36 24.68 8 24 C8 23.01 8 22.02 8 21 C7.03968962 19.96182662 6.03149954 18.96747543 5 18 C3.9022269 16.52561861 2.84091189 15.02357318 1.8125 13.5 C1.28269531 12.7265625 0.75289063 11.953125 0.20703125 11.15625 C-1 9 -1 9 -1 6 C-1.66 6 -2.32 6 -3 6 C-3 4.68 -3 3.36 -3 2 C-2.01 1.67 -1.02 1.34 0 1 C0 0.67 0 0.34 0 0 Z " fill="#010101" transform="translate(66,23)"/>
<path d="M0 0 C0.66 1.32 1.32 2.64 2 4 C1.34 4 0.68 4 0 4 C0 2.68 0 1.36 0 0 Z " fill="#000000" transform="translate(123,184)"/>
<path d="M0 0 C3 1 3 1 3 1 Z " fill="#000000" transform="translate(152,199)"/>
<path d="M0 0 C0.66 0.66 1.32 1.32 2 2 C1.34 2 0.68 2 0 2 C0 1.34 0 0.68 0 0 Z " fill="#000000" transform="translate(119,165)"/>
<path d="M0 0 C0.66 0.66 1.32 1.32 2 2 C1.34 2 0.68 2 0 2 C0 1.34 0 0.68 0 0 Z " fill="#000000" transform="translate(172,153)"/>
<path d="M0 0 C0.66 0.66 1.32 1.32 2 2 C1.34 2 0.68 2 0 2 C0 1.34 0 0.68 0 0 Z " fill="#000000" transform="translate(107,153)"/>
<path d="M0 0 C0.66 0.66 1.32 1.32 2 2 C1.34 2 0.68 2 0 2 C0 1.34 0 0.68 0 0 Z " fill="#000000" transform="translate(127,141)"/>
<path d="M0 0 C3 1 3 1 3 1 Z " fill="#000000" transform="translate(66,72)"/>
<path d="" fill="#000000" transform="translate(0,0)"/>
<path d="" fill="#000000" transform="translate(0,0)"/>
<path d="M0 0 C2 1 2 1 2 1 Z " fill="#000000" transform="translate(152,180)"/>
<path d="" fill="#000000" transform="translate(0,0)"/>
<path d="" fill="#000000" transform="translate(0,0)"/>
<path d="" fill="#000000" transform="translate(0,0)"/>
<path d="M0 0 C2 1 2 1 2 1 Z " fill="#000000" transform="translate(141,154)"/>
<path d="M0 0 C2 1 2 1 2 1 Z " fill="#7F7F7F" transform="translate(97,150)"/>
<path d="" fill="#000000" transform="translate(0,0)"/>
<path d="M0 0 C2 1 2 1 2 1 Z " fill="#000000" transform="translate(139,127)"/>
<path d="M0 0 C2 1 2 1 2 1 Z " fill="#000000" transform="translate(164,72)"/>
<path d="" fill="#000000" transform="translate(0,0)"/>
<path d="" fill="#000000" transform="translate(0,0)"/>
<path d="" fill="#000000" transform="translate(0,0)"/>
<path d="" fill="#FFFFFF" transform="translate(0,0)"/>
<path d="" fill="#000000" transform="translate(0,0)"/>
<path d="" fill="#FFFFFF" transform="translate(0,0)"/>
<path d="" fill="#000000" transform="translate(0,0)"/>
<path d="" fill="#000000" transform="translate(0,0)"/>
<path d="" fill="#000000" transform="translate(0,0)"/>
<path d="" fill="#FFFFFF" transform="translate(0,0)"/>
<path d="" fill="#000000" transform="translate(0,0)"/>
<path d="" fill="#000000" transform="translate(0,0)"/>
<path d="" fill="#FFFFFF" transform="translate(0,0)"/>
<path d="" fill="#FFFFFF" transform="translate(0,0)"/>
<path d="" fill="#000000" transform="translate(0,0)"/>
<path d="" fill="#000000" transform="translate(0,0)"/>
<path d="" fill="#000000" transform="translate(0,0)"/>
<path d="" fill="#000000" transform="translate(0,0)"/>
<path d="" fill="#000000" transform="translate(0,0)"/>
<path d="" fill="#000000" transform="translate(0,0)"/>
<path d="" fill="#000000" transform="translate(0,0)"/>
<path d="" fill="#000000" transform="translate(0,0)"/>
<path d="" fill="#000000" transform="translate(0,0)"/>
<path d="" fill="#FFFFFF" transform="translate(0,0)"/>
<path d="" fill="#FFFFFF" transform="translate(0,0)"/>
<path d="" fill="#000000" transform="translate(0,0)"/>
<path d="" fill="#000000" transform="translate(0,0)"/>
<path d="" fill="#000000" transform="translate(0,0)"/>
<path d="" fill="#000000" transform="translate(0,0)"/>
<path d="" fill="#000000" transform="translate(0,0)"/>
<path d="" fill="#000000" transform="translate(0,0)"/>
<path d="" fill="#000000" transform="translate(0,0)"/>
<path d="" fill="#000000" transform="translate(0,0)"/>
<path d="" fill="#000000" transform="translate(0,0)"/>
<path d="" fill="#000000" transform="translate(0,0)"/>
<path d="" fill="#000000" transform="translate(0,0)"/>
<path d="" fill="#000000" transform="translate(0,0)"/>
<path d="" fill="#000000" transform="translate(0,0)"/>
<path d="" fill="#000000" transform="translate(0,0)"/>
<path d="" fill="#000000" transform="translate(0,0)"/>
<path d="" fill="#000000" transform="translate(0,0)"/>
<path d="" fill="#000000" transform="translate(0,0)"/>
<path d="" fill="#FFFFFF" transform="translate(0,0)"/>
<path d="" fill="#000000" transform="translate(0,0)"/>
<path d="" fill="#000000" transform="translate(0,0)"/>
<path d="" fill="#FF00FF" transform="translate(0,0)"/>
<path d="" fill="#FFFFFF" transform="translate(0,0)"/>
<path d="" fill="#000000" transform="translate(0,0)"/>
<path d="" fill="#FFFFFF" transform="translate(0,0)"/>
<path d="" fill="#FFFFFF" transform="translate(0,0)"/>
<path d="" fill="#FFFFFF" transform="translate(0,0)"/>
<path d="" fill="#000000" transform="translate(0,0)"/>
<path d="" fill="#000000" transform="translate(0,0)"/>
<path d="" fill="#000000" transform="translate(0,0)"/>
<path d="" fill="#000000" transform="translate(0,0)"/>
<path d="" fill="#000000" transform="translate(0,0)"/>
<path d="" fill="#000000" transform="translate(0,0)"/>
<path d="" fill="#000000" transform="translate(0,0)"/>
<path d="" fill="#000000" transform="translate(0,0)"/>
<path d="" fill="#000000" transform="translate(0,0)"/>
<path d="" fill="#000000" transform="translate(0,0)"/>
<path d="" fill="#000000" transform="translate(0,0)"/>
<path d="" fill="#000000" transform="translate(0,0)"/>
<path d="" fill="#000000" transform="translate(0,0)"/>
<path d="" fill="#000000" transform="translate(0,0)"/>
<path d="" fill="#000000" transform="translate(0,0)"/>
<path d="" fill="#FFFFFF" transform="translate(0,0)"/>
<path d="" fill="#FFFFFF" transform="translate(0,0)"/>
<path d="" fill="#FFFFFF" transform="translate(0,0)"/>
<path d="" fill="#000000" transform="translate(0,0)"/>
<path d="" fill="#000000" transform="translate(0,0)"/>
<path d="" fill="#FFFFFF" transform="translate(0,0)"/>
<path d="" fill="#FFFFFF" transform="translate(0,0)"/>
<path d="" fill="#FFFFFF" transform="translate(0,0)"/>
<path d="" fill="#000000" transform="translate(0,0)"/>
<path d="" fill="#FFFFFF" transform="translate(0,0)"/>
<path d="" fill="#FFFFFF" transform="translate(0,0)"/>
<path d="" fill="#000000" transform="translate(0,0)"/>
<path d="" fill="#FFFFFF" transform="translate(0,0)"/>
<path d="" fill="#000000" transform="translate(0,0)"/>
<path d="" fill="#000000" transform="translate(0,0)"/>
<path d="" fill="#FFFFFF" transform="translate(0,0)"/>
<path d="" fill="#FFFFFF" transform="translate(0,0)"/>
<path d="" fill="#FFFFFF" transform="translate(0,0)"/>
<path d="" fill="#000000" transform="translate(0,0)"/>
<path d="" fill="#000000" transform="translate(0,0)"/>
<path d="" fill="#000000" transform="translate(0,0)"/>
<path d="" fill="#000000" transform="translate(0,0)"/>
<path d="" fill="#000000" transform="translate(0,0)"/>
<path d="" fill="#000000" transform="translate(0,0)"/>
<path d="" fill="#FFFFFF" transform="translate(0,0)"/>
<path d="" fill="#000000" transform="translate(0,0)"/>
<path d="" fill="#FFFFFF" transform="translate(0,0)"/>
<path d="" fill="#000000" transform="translate(0,0)"/>
<path d="" fill="#000000" transform="translate(0,0)"/>
<path d="" fill="#FFFFFF" transform="translate(0,0)"/>
<path d="" fill="#FFFFFF" transform="translate(0,0)"/>
<path d="" fill="#FFFFFF" transform="translate(0,0)"/>
<path d="" fill="#FFFFFF" transform="translate(0,0)"/>
<path d="" fill="#000000" transform="translate(0,0)"/>
<path d="" fill="#FFFFFF" transform="translate(0,0)"/>
<path d="" fill="#000000" transform="translate(0,0)"/>
<path d="" fill="#FFFFFF" transform="translate(0,0)"/>
<path d="" fill="#FFFFFF" transform="translate(0,0)"/>
<path d="" fill="#FFFFFF" transform="translate(0,0)"/>
<path d="" fill="#FFFFFF" transform="translate(0,0)"/>
<path d="" fill="#FFFFFF" transform="translate(0,0)"/>
<path d="" fill="#FFFFFF" transform="translate(0,0)"/>
<path d="" fill="#000000" transform="translate(0,0)"/>
<path d="" fill="#FFFFFF" transform="translate(0,0)"/>
<path d="" fill="#FFFFFF" transform="translate(0,0)"/>
<path d="" fill="#FFFFFF" transform="translate(0,0)"/>
<path d="" fill="#FFFFFF" transform="translate(0,0)"/>
<path d="" fill="#FFFFFF" transform="translate(0,0)"/>
<path d="" fill="#FFFFFF" transform="translate(0,0)"/>
<path d="" fill="#FFFFFF" transform="translate(0,0)"/>
<path d="" fill="#000000" transform="translate(0,0)"/>
<path d="" fill="#FFFFFF" transform="translate(0,0)"/>
<path d="" fill="#FFFFFF" transform="translate(0,0)"/>
<path d="" fill="#FFFFFF" transform="translate(0,0)"/>
<path d="" fill="#FFFFFF" transform="translate(0,0)"/>
<path d="" fill="#FFFFFF" transform="translate(0,0)"/>
<path d="" fill="#FFFFFF" transform="translate(0,0)"/>
<path d="" fill="#FFFFFF" transform="translate(0,0)"/>
<path d="" fill="#FFFFFF" transform="translate(0,0)"/>
<path d="" fill="#FF00FF" transform="translate(0,0)"/>
</svg>
