<?xml version="1.0" encoding="UTF-8"?>
<svg version="1.1" xmlns="http://www.w3.org/2000/svg" width="225" height="225">
<path d="M0 0 C3.2110545 3.00163791 4.85582969 4.77455239 5.375 9.1875 C5 12 5 12 4 15 C4.680625 15.556875 5.36125 16.11375 6.0625 16.6875 C8 19 8 19 7.85083008 21.37939453 C6.26788163 26.2549666 2.26642629 29.34606693 -1.3125 32.875 C-2.08529297 33.67164063 -2.85808594 34.46828125 -3.65429688 35.2890625 C-4.40388672 36.03671875 -5.15347656 36.784375 -5.92578125 37.5546875 C-6.61067627 38.24030762 -7.29557129 38.92592773 -8.0012207 39.63232422 C-10 41 -10 41 -12.25463867 40.71533203 C-12.83060791 40.47927246 -13.40657715 40.24321289 -14 40 C-14.6640625 38.21875 -14.6640625 38.21875 -15 36 C-13.9609375 34.21875 -13.9609375 34.21875 -12.375 32.5 C-11.81941406 31.89542969 -11.26382813 31.29085937 -10.69140625 30.66796875 C-8.59353784 28.59917011 -6.31733091 26.81628639 -4 25 C-2.23676495 22.87396815 -2.23676495 22.87396815 -1 21 C-2.60657259 22.38204481 -4.21266034 23.7646556 -5.81689453 25.14941406 C-7.31296717 26.41761252 -8.82820003 27.66345149 -10.35888672 28.88964844 C-12.94800343 30.98601257 -15.43936439 33.17132144 -17.9375 35.375 C-18.81212891 36.05304687 -19.68675781 36.73109375 -20.58789062 37.4296875 C-25.67310409 42.06632241 -27.18500326 45.21079082 -27.56298828 52.01660156 C-27.65847745 58.02493716 -27.4236195 64.00712128 -27 70 C-25.8515435 69.99000725 -25.8515435 69.99000725 -24.67988586 69.97981262 C-17.45583584 69.91964039 -10.23190776 69.87399472 -3.00767231 69.84456348 C0.70617574 69.82892377 4.41981628 69.80771691 8.13354492 69.77368164 C11.71916041 69.74102705 15.30457662 69.72313424 18.89032936 69.71536827 C20.25665231 69.70983565 21.62296465 69.69903164 22.9892025 69.68280983 C24.90634857 69.66095725 26.82369622 69.65977393 28.7409668 69.65942383 C29.83128708 69.65276199 30.92160736 69.64610016 32.04496765 69.63923645 C36.30112682 70.15884737 38.75732574 71.78515917 41.78625488 74.74624634 C43.49536522 77.91982341 43.39608319 80.46449448 43.41992188 84.06005859 C43.42839142 84.76301559 43.43686096 85.4659726 43.44558716 86.19023132 C43.46895075 88.50981839 43.46997943 90.82874175 43.46875 93.1484375 C43.47585275 94.76502751 43.48355191 96.381615 43.49182129 97.99819946 C43.50526513 101.38591518 43.50683571 104.77339789 43.50097656 108.16113281 C43.49508488 112.49467024 43.52564918 116.82708561 43.56609344 121.16040611 C43.59199269 124.49939966 43.59484581 127.83812398 43.59120178 131.17720413 C43.59289142 132.77435752 43.60251905 134.37152355 43.62034607 135.96857834 C43.64257879 138.2068575 43.63281524 140.44287839 43.61523438 142.68115234 C43.61728882 143.95260101 43.61934326 145.22404968 43.62145996 146.5340271 C42.79668856 151.13389756 41.31041988 152.74453514 38 156 C34.52217417 157.15927528 31.81196743 157.11313066 28.14453125 157.09765625 C27.15207649 157.09553383 27.15207649 157.09553383 26.13957214 157.09336853 C24.03050172 157.08777996 21.92153823 157.07522965 19.8125 157.0625 C18.38086091 157.05748352 16.94922015 157.05292087 15.51757812 157.04882812 C12.01168412 157.0378143 8.5058525 157.02055755 5 157 C5.10658936 157.59014893 5.21317871 158.18029785 5.32299805 158.78833008 C5.79544757 161.46028584 6.24171772 164.13597181 6.6875 166.8125 C6.85572266 167.74126953 7.02394531 168.67003906 7.19726562 169.62695312 C7.41479492 170.9659668 7.41479492 170.9659668 7.63671875 172.33203125 C7.77811279 173.15421143 7.91950684 173.9763916 8.06518555 174.82348633 C8 177 8 177 6.52270508 178.79174805 C6.0202124 179.19047119 5.51771973 179.58919434 5 180 C0.27670456 178.55070787 -2.72584462 175.74875361 -6.1875 172.375 C-7.81181925 170.80570788 -9.44235252 169.25800241 -11.1237793 167.74975586 C-13 166 -13 166 -14.87036133 163.84594727 C-21.32687979 157.29168013 -27.59767033 157.16257729 -36.32218933 157.0770874 C-39.31982841 157.08805318 -42.31532819 157.13468109 -45.3125 157.1875 C-48.33254713 157.21375709 -51.35195426 157.22853734 -54.37211609 157.22737122 C-56.24202303 157.22939207 -58.11201268 157.24852356 -59.98152161 157.28715515 C-64.83420149 157.32163629 -68.06649372 157.18367265 -72 154 C-75.53111218 149.73616255 -75.53193885 145.48991294 -75.6875 140.1875 C-75.72166016 139.39923828 -75.75582031 138.61097656 -75.79101562 137.79882812 C-75.87299875 135.86636881 -75.93818845 133.93320965 -76 132 C-80.16181178 131.45877784 -81.63973876 131.72668242 -85.04296875 134.30859375 C-86.10439867 135.33807204 -87.15203378 136.38191072 -88.1875 137.4375 C-89.32315518 138.540202 -90.46121514 139.64043231 -91.6015625 140.73828125 C-92.1677832 141.28822754 -92.73400391 141.83817383 -93.31738281 142.40478516 C-98.32582518 147.15306757 -103.66205026 152.16036432 -110 155 C-110.99 154.34 -111.98 153.68 -113 153 C-112.69088746 150.08293797 -112.37784575 147.1663891 -112.0625 144.25 C-111.93198242 143.0125 -111.93198242 143.0125 -111.79882812 141.75 C-111.71181641 140.95078125 -111.62480469 140.1515625 -111.53515625 139.328125 C-111.456604 138.5949707 -111.37805176 137.86181641 -111.29711914 137.10644531 C-111.0026123 135.01852006 -110.54882504 133.03447232 -110 131 C-110.90766113 131.01571045 -111.81532227 131.0314209 -112.75048828 131.04760742 C-116.13873072 131.0989313 -119.52655619 131.13644416 -122.91503906 131.16479492 C-124.37767075 131.17982196 -125.84025782 131.20024955 -127.30273438 131.22631836 C-129.4128728 131.26297267 -131.52241226 131.27978676 -133.6328125 131.29296875 C-135.53377686 131.31653442 -135.53377686 131.31653442 -137.47314453 131.34057617 C-141.40499701 130.96089085 -143.70601476 130.16718868 -147 128 C-150.13228309 123.90219665 -150.38295595 120.73123647 -150.40405273 115.64282227 C-150.41091599 114.9202121 -150.41777924 114.19760193 -150.42485046 113.45309448 C-150.44309138 111.07399623 -150.43928499 108.69555916 -150.43359375 106.31640625 C-150.43815696 104.6564055 -150.44346295 102.99640664 -150.44947815 101.33641052 C-150.45840398 97.86050737 -150.45599233 94.38483404 -150.44604492 90.90893555 C-150.43455741 86.46235231 -150.45476555 82.01656347 -150.48396206 77.57008457 C-150.50233986 74.14274587 -150.50202846 70.71559698 -150.49632454 67.28822136 C-150.49617151 65.64921899 -150.5022008 64.0102036 -150.51461601 62.37124825 C-150.52955437 60.07585465 -150.51882988 57.78192129 -150.50170898 55.48657227 C-150.50154282 54.18261002 -150.50137665 52.87864777 -150.50120544 51.53517151 C-149.90474429 47.32812925 -148.75783565 45.21234347 -146 42 C-141.74176945 39.32617219 -137.34225408 39.93959544 -132.51416016 40.30004883 C-130.75993386 40.40731081 -129.00559329 40.51271561 -127.25115967 40.61653137 C-126.32227684 40.67378702 -125.39339401 40.73104267 -124.43636322 40.79003334 C-74.46956402 45.87152059 -74.46956402 45.87152059 -30.35641479 27.70576477 C-22.53607503 19.92952416 -15.81573448 11.08639526 -10.21554565 1.59411621 C-7.49180986 -1.97790214 -3.83984619 -1.15195386 0 0 Z M-8.54370117 8.203125 C-9.55118515 9.21108431 -10.55044193 10.22730922 -11.54296875 11.25 C-12.07142899 11.78270508 -12.59988922 12.31541016 -13.1443634 12.86425781 C-14.83256735 14.56927029 -16.51005145 16.28441127 -18.1875 18 C-19.32938778 19.15693178 -20.47195776 20.31319065 -21.61523438 21.46875 C-24.41813541 24.30474911 -27.2114652 27.14987676 -30 30 C-29.01 31.32 -28.02 32.64 -27 34 C-23.84164893 32.60249952 -21.67727175 30.94801766 -19.25 28.5 C-18.63640625 27.8915625 -18.0228125 27.283125 -17.390625 26.65625 C-15.78565912 25.10515723 -15.78565912 25.10515723 -16 23 C-15.44957031 22.76925781 -14.89914063 22.53851563 -14.33203125 22.30078125 C-11.34298351 20.63352347 -9.14868722 18.5632046 -6.6875 16.1875 C-5.78386719 15.33542969 -4.88023437 14.48335937 -3.94921875 13.60546875 C-1.67762518 11.16295422 -1.67762518 11.16295422 -2.20703125 8.17578125 C-2.59955078 7.09876953 -2.59955078 7.09876953 -3 6 C-6.18290822 5.6726549 -6.18290822 5.6726549 -8.54370117 8.203125 Z M-35 35 C-36.32 36.65 -37.64 38.3 -39 40 C-38.01 40.99 -37.02 41.98 -36 43 C-34.68 42.34 -33.36 41.68 -32 41 C-32 39.68 -32 38.36 -32 37 C-32.99 36.34 -33.98 35.68 -35 35 Z M-44 44 C-46.99967307 46.85423167 -49.97073804 49.73660534 -52.9375 52.625 C-53.78763672 53.43324219 -54.63777344 54.24148437 -55.51367188 55.07421875 C-56.32255859 55.86699219 -57.13144531 56.65976563 -57.96484375 57.4765625 C-58.7137085 58.19924316 -59.46257324 58.92192383 -60.23413086 59.66650391 C-62.34217016 62.4521585 -62.68623557 64.5594107 -63 68 C-56.29169059 65.76977361 -52.38728411 61.86682553 -47.5625 56.8125 C-46.83095703 56.06291016 -46.09941406 55.31332031 -45.34570312 54.54101562 C-43.55432565 52.70280475 -41.77300908 50.85590467 -40 49 C-41.3089572 45.87802522 -41.3089572 45.87802522 -44 44 Z M-143 49 C-143.30817876 52.14424961 -143.30817876 52.14424961 -143.25878906 55.89648438 C-143.2622937 56.60557449 -143.26579834 57.31466461 -143.26940918 58.04524231 C-143.27822921 60.39484375 -143.27237652 62.74414537 -143.265625 65.09375 C-143.26697158 66.72277891 -143.26891204 68.35180743 -143.27142334 69.98083496 C-143.27437497 73.39725567 -143.27007577 76.81357189 -143.26074219 80.22998047 C-143.24934758 84.61517401 -143.25590686 89.00012276 -143.26788712 93.38530731 C-143.27510471 96.74983575 -143.27281826 100.11430589 -143.26763153 103.47883606 C-143.26629475 105.09601368 -143.26794374 106.71319655 -143.27259064 108.33036804 C-143.27765428 110.58822709 -143.26994826 112.84568644 -143.25878906 115.10351562 C-143.25719788 116.38987915 -143.25560669 117.67624268 -143.25396729 119.00158691 C-143.31484589 122.11509093 -143.31484589 122.11509093 -141 124 C-138.20783209 124.24569272 -135.50759395 124.37363138 -132.7109375 124.4140625 C-131.89251373 124.43342865 -131.07408997 124.4527948 -130.23086548 124.4727478 C-127.61235024 124.53261082 -124.99379119 124.57895532 -122.375 124.625 C-120.60154314 124.66317364 -118.82810495 124.70222501 -117.0546875 124.7421875 C-112.70327625 124.83831771 -108.35177821 124.92232351 -104 125 C-102.93723686 128.76440006 -103.08577931 131.84199237 -103.4375 135.75 C-103.53933594 136.92046875 -103.64117187 138.0909375 -103.74609375 139.296875 C-103.82988281 140.18890625 -103.91367188 141.0809375 -104 142 C-103.071875 141.195625 -102.14375 140.39125 -101.1875 139.5625 C-96.97528971 135.94586862 -92.66717378 132.45006646 -88.35546875 128.953125 C-85.99772976 127.05971454 -85.99772976 127.05971454 -84 125 C-81.95068359 124.73498535 -81.95068359 124.73498535 -79.3984375 124.71289062 C-78.44404785 124.69947632 -77.4896582 124.68606201 -76.50634766 124.67224121 C-75.47300293 124.66696411 -74.4396582 124.66168701 -73.375 124.65625 C-72.31716309 124.6416272 -71.25932617 124.62700439 -70.16943359 124.61193848 C-65.62935463 124.54948644 -61.08913695 124.51001612 -56.54882812 124.46826172 C-53.2407378 124.43461209 -49.93294176 124.38947669 -46.625 124.34375 C-45.59165527 124.3384729 -44.55831055 124.3331958 -43.49365234 124.32775879 C-42.5392627 124.31434448 -41.58487305 124.30093018 -40.6015625 124.28710938 C-39.33820068 124.27617249 -39.33820068 124.27617249 -38.04931641 124.26501465 C-35.77601377 124.18306742 -35.77601377 124.18306742 -34 122 C-33.70599437 118.96300567 -33.70599437 118.96300567 -33.77294922 115.34716797 C-33.77265717 114.66412598 -33.77236511 113.98108398 -33.77206421 113.27734375 C-33.77345961 111.01549659 -33.78903033 108.75397724 -33.8046875 106.4921875 C-33.80841689 104.92563049 -33.81126421 103.35907116 -33.81326294 101.79251099 C-33.82090524 97.66605203 -33.84055876 93.53973349 -33.8626709 89.41333008 C-33.88311654 85.20395813 -33.8922619 80.99456352 -33.90234375 76.78515625 C-33.92380417 68.523373 -33.95794721 60.26170396 -34 52 C-36.7550315 54.74591213 -39.4857574 57.4889623 -42.09375 60.375 C-51.13700233 70.10419152 -58.5714688 74.98172373 -72 77 C-70.95757958 65.27277028 -66.78222054 57.92238666 -58.265625 50.1171875 C-57.51796875 49.41851562 -56.7703125 48.71984375 -56 48 C-56 47.67 -56 47.34 -56 47 C-67.04806431 46.95372989 -78.09610571 46.91815796 -89.14424706 46.89637566 C-94.27393381 46.88592307 -99.40355444 46.87173707 -104.53320312 46.84912109 C-109.48040037 46.82744517 -114.42753388 46.81544249 -119.37477493 46.81024551 C-121.26548898 46.80654029 -123.15619941 46.79930527 -125.04688644 46.78853989 C-127.68807357 46.77409467 -130.3289948 46.77201912 -132.97021484 46.77294922 C-134.15164818 46.76216339 -134.15164818 46.76216339 -135.35694885 46.75115967 C-139.64125992 46.60850058 -139.64125992 46.60850058 -143 49 Z M-27 77 C-27.00586624 77.56518845 -27.01173248 78.13037689 -27.01777649 78.71269226 C-27.08177072 84.6016769 -27.16620584 90.4901181 -27.26245117 96.37866211 C-27.29568055 98.57552927 -27.32371866 100.7724814 -27.34643555 102.96948242 C-27.38001754 106.12976243 -27.43233634 109.28926521 -27.48828125 112.44921875 C-27.49786613 113.91979988 -27.49786613 113.91979988 -27.50764465 115.42008972 C-27.69980082 124.3567937 -27.69980082 124.3567937 -31 128 C-35.0103429 130.32477253 -38.92237922 130.30491743 -43.48828125 130.4140625 C-44.19147995 130.43342865 -44.89467865 130.4527948 -45.6191864 130.4727478 C-47.85017019 130.53220183 -50.08120654 130.57879049 -52.3125 130.625 C-53.83140186 130.66321137 -55.35028278 130.70226492 -56.86914062 130.7421875 C-60.57923467 130.83787416 -64.28948651 130.92203072 -68 131 C-68.05380578 133.79192205 -68.09357669 136.5828141 -68.125 139.375 C-68.14175781 140.1690625 -68.15851563 140.963125 -68.17578125 141.78125 C-68.19335473 143.85492015 -68.10335168 145.92883241 -68 148 C-66.24381857 150.17624304 -66.24381857 150.17624304 -64.10063171 150.19772339 C-63.32709854 150.1748526 -62.55356537 150.15198181 -61.7565918 150.12841797 C-60.87774826 150.10955536 -59.99890472 150.09069275 -59.09342957 150.07125854 C-58.13834 150.0451651 -57.18325043 150.01907166 -56.19921875 149.9921875 C-54.1686458 149.97348514 -52.13804152 149.95796708 -50.10742188 149.9453125 C-46.91088854 149.91895336 -43.71934247 149.87598302 -40.52416992 149.77734375 C-20.87935609 149.2130403 -20.87935609 149.2130403 -14.02680969 155.17605591 C-12.4738723 156.74038923 -11.02259309 158.34349902 -9.59692383 160.02392578 C-6.87429595 163.14405682 -4.50345866 164.87678906 -1 167 C-1.08378906 165.92878906 -1.16757813 164.85757813 -1.25390625 163.75390625 C-1.35704896 162.35679134 -1.45989843 160.95965476 -1.5625 159.5625 C-1.61857422 158.85544922 -1.67464844 158.14839844 -1.73242188 157.41992188 C-1.86190993 155.61572163 -1.93521608 153.80768048 -2 152 C0.11583981 149.88416019 4.63292433 150.57550878 7.5625 150.4375 C8.41062256 150.39431641 9.25874512 150.35113281 10.13256836 150.30664062 C17.08673186 149.97972164 24.01299259 149.95125662 30.97265625 150.0625 C33.92121267 150.2180006 33.92121267 150.2180006 36 149 C36.02312524 139.76002448 36.04091601 130.52005886 36.05181217 121.28006077 C36.05704061 116.99000085 36.06413753 112.69996067 36.07543945 108.40991211 C36.08626975 104.273206 36.09227714 100.13651892 36.09487724 95.99979973 C36.09673124 94.41807696 36.10035136 92.83635529 36.10573006 91.25464058 C36.1129424 89.04677162 36.11399086 86.83898227 36.11352539 84.63110352 C36.115746 83.37201675 36.11796661 82.11292999 36.12025452 80.81568909 C36.32207726 78.09664705 36.32207726 78.09664705 35 77 C33.06693502 76.90603943 31.13041162 76.88256483 29.19506836 76.88647461 C27.95385727 76.88655014 26.71264618 76.88662567 25.43382263 76.88670349 C24.0691626 76.89181089 22.70450298 76.8970269 21.33984375 76.90234375 C19.95121817 76.904208 18.56259193 76.90563187 17.17396545 76.90663147 C13.51278885 76.91045613 9.8516517 76.92028597 6.19049072 76.93133545 C2.45707737 76.94155068 -1.27634234 76.94612933 -5.00976562 76.95117188 C-12.33986177 76.96190829 -19.66992536 76.97898409 -27 77 Z " fill="#222222" transform="translate(166,23)"/>
<path d="M0 0 C3.2110545 3.00163791 4.85582969 4.77455239 5.375 9.1875 C5 12 5 12 4 15 C4.680625 15.556875 5.36125 16.11375 6.0625 16.6875 C8 19 8 19 7.85083008 21.37939453 C6.26788163 26.2549666 2.26642629 29.34606693 -1.3125 32.875 C-2.08529297 33.67164063 -2.85808594 34.46828125 -3.65429688 35.2890625 C-4.40388672 36.03671875 -5.15347656 36.784375 -5.92578125 37.5546875 C-6.61067627 38.24030762 -7.29557129 38.92592773 -8.0012207 39.63232422 C-10 41 -10 41 -12.25463867 40.71533203 C-12.83060791 40.47927246 -13.40657715 40.24321289 -14 40 C-14.6640625 38.21875 -14.6640625 38.21875 -15 36 C-13.9609375 34.21875 -13.9609375 34.21875 -12.375 32.5 C-11.81941406 31.89542969 -11.26382813 31.29085937 -10.69140625 30.66796875 C-8.59353784 28.59917011 -6.31733091 26.81628639 -4 25 C-2.23676495 22.87396815 -2.23676495 22.87396815 -1 21 C-2.60657259 22.38204481 -4.21266034 23.7646556 -5.81689453 25.14941406 C-7.31296717 26.41761252 -8.82820003 27.66345149 -10.35888672 28.88964844 C-12.94800343 30.98601257 -15.43936439 33.17132144 -17.9375 35.375 C-18.81212891 36.05304687 -19.68675781 36.73109375 -20.58789062 37.4296875 C-23.70393441 40.06329989 -23.70393441 40.06329989 -27 46 C-27 53.92 -27 61.84 -27 70 C-6.54 70 13.92 70 35 70 C35 70.33 35 70.66 35 71 C14.21 71 -6.58 71 -28 71 C-28.33 69.35 -28.66 67.7 -29 66 C-30.98 65.505 -30.98 65.505 -33 65 C-33.33 60.71 -33.66 56.42 -34 52 C-34.9075 53.0725 -35.815 54.145 -36.75 55.25 C-38.16044667 56.83887667 -39.5780576 58.42140293 -41 60 C-41.42893555 60.48710449 -41.85787109 60.97420898 -42.29980469 61.47607422 C-49.19032507 69.22242356 -55.52699861 74.66057631 -66 77 C-67.99895542 77.06463135 -70.00174421 77.0835092 -72 77 C-73.49950241 73.08783666 -72.52032457 70.33113181 -71.25 66.4375 C-70.90453125 65.30183594 -70.5590625 64.16617188 -70.203125 62.99609375 C-68.44653129 58.99881322 -65.44773962 56.24410679 -62.36230469 53.25024414 C-61.84759613 52.74362495 -61.33288757 52.23700577 -60.80258179 51.71503448 C-59.53909717 50.47256521 -58.27009203 49.23571417 -57 48 C-67.93496471 47.97687703 -78.86992366 47.95908515 -89.8049078 47.94818783 C-94.88191018 47.9429589 -99.95889589 47.93586108 -105.03588867 47.92456055 C-109.93120552 47.91373201 -114.82650629 47.90772324 -119.72183418 47.90512276 C-121.59382951 47.90326845 -123.46582391 47.89964772 -125.33781242 47.89426994 C-127.95040699 47.88705996 -130.56293427 47.88600904 -133.17553711 47.88647461 C-134.34833725 47.8810817 -134.34833725 47.8810817 -135.54483032 47.87557983 C-139.06522819 47.55716038 -139.06522819 47.55716038 -142 49 C-142.1241622 51.26920225 -142.17803748 53.5422645 -142.20532227 55.81469727 C-142.21522186 56.52685394 -142.22512146 57.23901062 -142.23532104 57.9727478 C-142.26702212 60.33726628 -142.29172724 62.70180489 -142.31640625 65.06640625 C-142.33696836 66.70166052 -142.35796463 68.33690938 -142.37937927 69.97215271 C-142.43467672 74.28428786 -142.48405201 78.59647158 -142.53222656 82.90869141 C-142.58238572 87.30570824 -142.63810087 91.7026542 -142.69335938 96.09960938 C-142.80103473 104.73301307 -142.90245871 113.3664759 -143 122 C-143.33 122 -143.66 122 -144 122 C-144.33 105.5 -144.66 89 -145 72 C-145.99 72.495 -145.99 72.495 -147 73 C-147.33 72.01 -147.66 71.02 -148 70 C-148.33 87.49 -148.66 104.98 -149 123 C-149.33 123 -149.66 123 -150 123 C-150.09277792 113.32490347 -150.16380435 103.64996063 -150.20724869 93.97451591 C-150.22810237 89.48154841 -150.25637917 84.9888858 -150.30175781 80.49609375 C-150.34529518 76.15833677 -150.3691538 71.82087262 -150.37950897 67.48291397 C-150.38688623 65.82992062 -150.40129247 64.17694287 -150.42292023 62.52407455 C-150.4520602 60.20433979 -150.45595174 57.88580701 -150.45410156 55.56591797 C-150.46298401 54.24687469 -150.47186646 52.92783142 -150.48101807 51.56881714 C-149.90958671 47.32919673 -148.78108551 45.22916704 -146 42 C-141.74176945 39.32617219 -137.34225408 39.93959544 -132.51416016 40.30004883 C-130.75993386 40.40731081 -129.00559329 40.51271561 -127.25115967 40.61653137 C-126.32227684 40.67378702 -125.39339401 40.73104267 -124.43636322 40.79003334 C-74.46956402 45.87152059 -74.46956402 45.87152059 -30.35641479 27.70576477 C-22.53607503 19.92952416 -15.81573448 11.08639526 -10.21554565 1.59411621 C-7.49180986 -1.97790214 -3.83984619 -1.15195386 0 0 Z M-8.54370117 8.203125 C-9.55118515 9.21108431 -10.55044193 10.22730922 -11.54296875 11.25 C-12.07142899 11.78270508 -12.59988922 12.31541016 -13.1443634 12.86425781 C-14.83256735 14.56927029 -16.51005145 16.28441127 -18.1875 18 C-19.32938778 19.15693178 -20.47195776 20.31319065 -21.61523438 21.46875 C-24.41813541 24.30474911 -27.2114652 27.14987676 -30 30 C-29.01 31.32 -28.02 32.64 -27 34 C-23.84164893 32.60249952 -21.67727175 30.94801766 -19.25 28.5 C-18.63640625 27.8915625 -18.0228125 27.283125 -17.390625 26.65625 C-15.78565912 25.10515723 -15.78565912 25.10515723 -16 23 C-15.44957031 22.76925781 -14.89914063 22.53851563 -14.33203125 22.30078125 C-11.34298351 20.63352347 -9.14868722 18.5632046 -6.6875 16.1875 C-5.78386719 15.33542969 -4.88023437 14.48335937 -3.94921875 13.60546875 C-1.67762518 11.16295422 -1.67762518 11.16295422 -2.20703125 8.17578125 C-2.59955078 7.09876953 -2.59955078 7.09876953 -3 6 C-6.18290822 5.6726549 -6.18290822 5.6726549 -8.54370117 8.203125 Z M-35 35 C-36.32 36.65 -37.64 38.3 -39 40 C-38.01 40.99 -37.02 41.98 -36 43 C-34.68 42.34 -33.36 41.68 -32 41 C-32 39.68 -32 38.36 -32 37 C-32.99 36.34 -33.98 35.68 -35 35 Z M-44 44 C-46.99967307 46.85423167 -49.97073804 49.73660534 -52.9375 52.625 C-53.78763672 53.43324219 -54.63777344 54.24148437 -55.51367188 55.07421875 C-56.32255859 55.86699219 -57.13144531 56.65976563 -57.96484375 57.4765625 C-58.7137085 58.19924316 -59.46257324 58.92192383 -60.23413086 59.66650391 C-62.34217016 62.4521585 -62.68623557 64.5594107 -63 68 C-56.29169059 65.76977361 -52.38728411 61.86682553 -47.5625 56.8125 C-46.83095703 56.06291016 -46.09941406 55.31332031 -45.34570312 54.54101562 C-43.55432565 52.70280475 -41.77300908 50.85590467 -40 49 C-41.3089572 45.87802522 -41.3089572 45.87802522 -44 44 Z " fill="#2B2B2B" transform="translate(166,23)"/>
<path d="M0 0 C0.33 0 0.66 0 1 0 C1.11598358 9.41428963 1.20476032 18.82833234 1.25906086 28.24318123 C1.28512603 32.61517749 1.32046689 36.98668402 1.37719727 41.35839844 C1.43162831 45.57946441 1.46144371 49.80006013 1.47438622 54.02145004 C1.48360633 55.62981441 1.5016116 57.23815379 1.52865028 58.84631729 C1.56509091 61.10399707 1.5699395 63.359748 1.56762695 65.61767578 C1.58428154 67.54294601 1.58428154 67.54294601 1.60127258 69.5071106 C0.80371077 74.1402758 -0.66699822 75.73099152 -4 79 C-7.47782583 80.15927528 -10.18803257 80.11313066 -13.85546875 80.09765625 C-14.51710526 80.0962413 -15.17874176 80.09482635 -15.86042786 80.09336853 C-17.96949828 80.08777996 -20.07846177 80.07522965 -22.1875 80.0625 C-23.61913909 80.05748352 -25.05077985 80.05292087 -26.48242188 80.04882812 C-29.98831588 80.0378143 -33.4941475 80.02055755 -37 80 C-36.84011597 80.88522339 -36.84011597 80.88522339 -36.67700195 81.78833008 C-36.20455243 84.46028584 -35.75828228 87.13597181 -35.3125 89.8125 C-35.14427734 90.74126953 -34.97605469 91.67003906 -34.80273438 92.62695312 C-34.65771484 93.51962891 -34.51269531 94.41230469 -34.36328125 95.33203125 C-34.22188721 96.15421143 -34.08049316 96.9763916 -33.93481445 97.82348633 C-34 100 -34 100 -35.47729492 101.79174805 C-35.9797876 102.19047119 -36.48228027 102.58919434 -37 103 C-41.99424526 101.50078941 -45.01770617 98.52433201 -48.6875 95 C-49.26822266 94.4534375 -49.84894531 93.906875 -50.44726562 93.34375 C-56.92112844 87.23661467 -56.92112844 87.23661467 -58 84 C-57.0625 81.3125 -57.0625 81.3125 -56 79 C-55.32904297 79.58007812 -55.32904297 79.58007812 -54.64453125 80.171875 C-54.03996094 80.69265625 -53.43539062 81.2134375 -52.8125 81.75 C-51.92498047 82.51570313 -51.92498047 82.51570313 -51.01953125 83.296875 C-48.71349564 85.24161683 -46.36182489 87.12359335 -44 89 C-44.09539062 88.01257813 -44.19078125 87.02515625 -44.2890625 86.0078125 C-44.39992187 84.72648437 -44.51078125 83.44515625 -44.625 82.125 C-44.74101562 80.84882813 -44.85703125 79.57265625 -44.9765625 78.2578125 C-44.98816406 76.64519531 -44.98816406 76.64519531 -45 75 C-41.99607214 71.99607214 -38.54281244 72.5297488 -34.5 72.375 C-33.75363281 72.33632812 -33.00726563 72.29765625 -32.23828125 72.2578125 C-23.48453834 71.8579678 -14.77929742 72 -6 72 C-6 48.9 -6 25.8 -6 2 C-5.67 2 -5.34 2 -5 2 C-4.67 10.58 -4.34 19.16 -4 28 C-2.68 27.67 -1.36 27.34 0 27 C0 18.09 0 9.18 0 0 Z " fill="#323233" transform="translate(208,100)"/>
<path d="M0 0 C1.90625 0.1328125 1.90625 0.1328125 4 1 C5.28125 3.1796875 5.28125 3.1796875 6.5 5.875 C8.40764887 9.33446686 9.38938759 10.73451634 13.0546875 12.328125 C16.03586848 13.04360843 18.9592776 13.6162195 22 14 C22.71484375 16.28515625 22.71484375 16.28515625 23 19 C21.56640625 20.74609375 21.56640625 20.74609375 19.5625 22.4375 C15.78615791 26.32623322 15.51922462 29.13926169 15.5625 34.5 C15.67412417 36.66869819 15.80860054 38.83688233 16 41 C11.85938714 42.19666648 10.01384916 41.81127611 6.25 39.8125 C2.49086382 38.14059701 2.49086382 38.14059701 -1.47265625 38.65625 C-3.80547365 39.76609519 -3.80547365 39.76609519 -5.89453125 41.08203125 C-8.61577828 42.26847476 -10.19797905 41.79708449 -13 41 C-12.87818359 39.62328125 -12.87818359 39.62328125 -12.75390625 38.21875 C-12.18286386 31.02439423 -12.18286386 31.02439423 -14.59375 24.46484375 C-16.50705447 22.42775531 -16.50705447 22.42775531 -18.56640625 20.74609375 C-19.27603516 19.88177734 -19.27603516 19.88177734 -20 19 C-19.71484375 16.28515625 -19.71484375 16.28515625 -19 14 C-18.20335937 13.89945313 -17.40671875 13.79890625 -16.5859375 13.6953125 C-10.00480199 12.59908698 -10.00480199 12.59908698 -4.90234375 8.609375 C-3.45409527 6.11852994 -2.18904043 3.62246861 -1 1 C-0.67 0.67 -0.34 0.34 0 0 Z M1 11 C0.46375 11.94875 -0.0725 12.8975 -0.625 13.875 C-3.49127395 17.64641309 -5.4408556 18.12324146 -10 19 C-9.360625 19.66 -8.72125 20.32 -8.0625 21 C-5.41087498 24.85690912 -5.31332879 27.37840033 -5 32 C-4.09507812 31.87431641 -4.09507812 31.87431641 -3.171875 31.74609375 C-2.37265625 31.64425781 -1.5734375 31.54242188 -0.75 31.4375 C0.03890625 31.33308594 0.8278125 31.22867188 1.640625 31.12109375 C4.00532874 30.99972651 5.7511037 31.30366743 8 32 C8.0825 30.783125 8.165 29.56625 8.25 28.3125 C8.73758372 24.21534129 10.09510536 21.99860092 13 19 C11.9275 18.79375 10.855 18.5875 9.75 18.375 C5.28046152 16.73616922 4.29127236 15.05378956 2 11 C1.67 11 1.34 11 1 11 Z " fill="#232323" transform="translate(169,115)"/>
<path d="M0 0 C0.33 0 0.66 0 1 0 C1 18.81 1 37.62 1 57 C4.78504482 58.26168161 8.37028959 58.19379238 12.31640625 58.24609375 C13.98372956 58.27901416 15.65104714 58.3122261 17.31835938 58.34570312 C19.94747198 58.3932365 22.57655839 58.43770905 25.20581055 58.47680664 C27.74291424 58.51640073 30.27955528 58.56795436 32.81640625 58.62109375 C33.60600235 58.6295079 34.39559845 58.63792206 35.2091217 58.64659119 C40.77327663 58.77327663 40.77327663 58.77327663 43 61 C43.13367039 66.46934662 41.64915223 71.83265634 40 77 C39.67 76.34 39.34 75.68 39 75 C37.68 75 36.36 75 35 75 C35 72.03 35 69.06 35 66 C33.6385083 66.02356567 33.6385083 66.02356567 32.24951172 66.04760742 C28.86126928 66.0989313 25.47344381 66.13644416 22.08496094 66.16479492 C20.62232925 66.17982196 19.15974218 66.20024955 17.69726562 66.22631836 C15.5871272 66.26297267 13.47758774 66.27978676 11.3671875 66.29296875 C10.09987793 66.3086792 8.83256836 66.32438965 7.52685547 66.34057617 C3.65055043 65.96625487 1.28704436 65.05914626 -2 63 C-4.27121709 59.59317436 -4.24468887 58.42202816 -4.22705078 54.42700195 C-4.22689972 53.28604568 -4.22674866 52.14508942 -4.22659302 50.96955872 C-4.21627045 49.73823715 -4.20594788 48.50691559 -4.1953125 47.23828125 C-4.1924826 45.97735153 -4.18965271 44.71642181 -4.18673706 43.4172821 C-4.17743125 40.06839578 -4.15946703 36.71978209 -4.1373291 33.37097168 C-4.11685386 29.95241653 -4.10773176 26.5338332 -4.09765625 23.11523438 C-4.0755818 16.41008081 -4.04209362 9.70505615 -4 3 C-3.01 4.32 -2.02 5.64 -1 7 C-1.020625 6.030625 -1.04125 5.06125 -1.0625 4.0625 C-1 1 -1 1 0 0 Z " fill="#151515" transform="translate(21,88)"/>
<path d="M0 0 C0.76937393 0.00045319 1.53874786 0.00090637 2.33143616 0.00137329 C3.13791595 -0.00198532 3.94439575 -0.00534393 4.77531433 -0.00880432 C7.45492573 -0.01834319 10.13447483 -0.02025889 12.81410217 -0.02133179 C14.66876248 -0.02454232 16.52342252 -0.02790623 18.37808228 -0.03141785 C22.27123095 -0.03741646 26.1643574 -0.039257 30.05751038 -0.03866577 C35.0558952 -0.0385641 40.05413812 -0.05221778 45.05248928 -0.06943798 C48.88452819 -0.08053486 52.71653255 -0.08258569 56.54858589 -0.08205605 C58.39184623 -0.08323961 60.23510736 -0.08768228 62.07835197 -0.09538841 C64.65239894 -0.10514189 67.2261346 -0.1023288 69.80018616 -0.09628296 C70.56753586 -0.10190247 71.33488556 -0.10752197 72.12548828 -0.11331177 C77.40219288 -0.08167858 77.40219288 -0.08167858 79.63050842 2.14663696 C79.09479414 5.68235125 79.09479414 5.68235125 77.63050842 7.14663696 C74.44658929 7.534101 71.22835671 7.5950099 68.02503967 7.72866821 C66.50122429 7.7928167 66.50122429 7.7928167 64.94662476 7.85826111 C52.42011047 8.31489012 39.90028211 8.13187637 27.37049866 7.9046936 C23.93783077 7.84276697 20.50513198 7.7964839 17.07217693 7.75386333 C13.76203097 7.71025684 10.45217893 7.65231525 7.14222717 7.59585571 C5.91227524 7.58116745 4.6823233 7.56647919 3.4151001 7.55134583 C2.28824295 7.52824844 1.1613858 7.50515106 0.00038147 7.48135376 C-0.99169815 7.46501389 -1.98377777 7.44867401 -3.00592041 7.43183899 C-5.36949158 7.14663696 -5.36949158 7.14663696 -7.36949158 5.14663696 C-6.57451857 -0.10018489 -5.07370131 0.03105255 0 0 Z " fill="#2F2F2F" transform="translate(41.36949157714844,112.85336303710938)"/>
<path d="M0 0 C0.76937393 0.00045319 1.53874786 0.00090637 2.33143616 0.00137329 C3.13791595 -0.00198532 3.94439575 -0.00534393 4.77531433 -0.00880432 C7.45492573 -0.01834319 10.13447483 -0.02025889 12.81410217 -0.02133179 C14.66876248 -0.02454232 16.52342252 -0.02790623 18.37808228 -0.03141785 C22.27123095 -0.03741646 26.1643574 -0.039257 30.05751038 -0.03866577 C35.0558952 -0.0385641 40.05413812 -0.05221778 45.05248928 -0.06943798 C48.88452819 -0.08053486 52.71653255 -0.08258569 56.54858589 -0.08205605 C58.39184623 -0.08323961 60.23510736 -0.08768228 62.07835197 -0.09538841 C64.65239894 -0.10514189 67.2261346 -0.1023288 69.80018616 -0.09628296 C70.56753586 -0.10190247 71.33488556 -0.10752197 72.12548828 -0.11331177 C77.40219288 -0.08167858 77.40219288 -0.08167858 79.63050842 2.14663696 C79.09479414 5.68235125 79.09479414 5.68235125 77.63050842 7.14663696 C75.05488423 7.25235068 72.50593667 7.29341819 69.92958069 7.29190063 C69.12310089 7.29525925 68.31662109 7.29861786 67.48570251 7.30207825 C64.80609112 7.31161712 62.12654201 7.31353282 59.44691467 7.31460571 C57.59225437 7.31781624 55.73759433 7.32118015 53.88293457 7.32469177 C49.98978589 7.33069039 46.09665944 7.33253092 42.20350647 7.3319397 C37.20512164 7.33183803 32.20687873 7.34549171 27.20852757 7.36271191 C23.37648865 7.37380878 19.54448429 7.37585962 15.71243095 7.37532997 C13.86917062 7.37651353 12.02590948 7.3809562 10.18266487 7.38866234 C7.6086179 7.39841582 5.03488224 7.39560272 2.46083069 7.38955688 C1.69348099 7.39517639 0.92613129 7.4007959 0.13552856 7.40658569 C-5.14117604 7.3749525 -5.14117604 7.3749525 -7.36949158 5.14663696 C-6.57451857 -0.10018489 -5.07370131 0.03105255 0 0 Z " fill="#5C5C5C" transform="translate(41.36949157714844,128.85336303710938)"/>
<path d="M0 0 C1.43169777 -0.00956978 1.43169777 -0.00956978 2.89231873 -0.01933289 C4.45007774 -0.02100212 4.45007774 -0.02100212 6.03930664 -0.02270508 C7.0985585 -0.02603348 8.15781036 -0.02936188 9.24916077 -0.03279114 C11.49455327 -0.03786502 13.73995334 -0.04019932 15.98535156 -0.04003906 C19.43119667 -0.04222474 22.87672141 -0.06037354 26.32250977 -0.0793457 C28.49894096 -0.08227961 30.67537368 -0.08426443 32.85180664 -0.08520508 C34.40652931 -0.09598335 34.40652931 -0.09598335 35.99266052 -0.10697937 C36.95027786 -0.10390274 37.9078952 -0.10082611 38.89453125 -0.09765625 C39.73978867 -0.09908127 40.58504608 -0.10050629 41.45591736 -0.10197449 C43.51196289 0.14526367 43.51196289 0.14526367 45.51196289 2.14526367 C44.9762486 5.68097796 44.9762486 5.68097796 43.51196289 7.14526367 C42.01874992 7.24876561 40.52070632 7.28377106 39.02392578 7.29052734 C38.0694606 7.2969072 37.11499542 7.30328705 36.13160706 7.30986023 C34.57384804 7.31152946 34.57384804 7.31152946 32.98461914 7.31323242 C31.92536728 7.31656082 30.86611542 7.31988922 29.77476501 7.32331848 C27.52937252 7.32839236 25.28397244 7.33072667 23.03857422 7.33056641 C19.59272911 7.33275209 16.14720437 7.35090088 12.70141602 7.36987305 C10.52498483 7.37280696 8.34855211 7.37479177 6.17211914 7.37573242 C5.13563736 7.38291794 4.09915558 7.39010345 3.03126526 7.39750671 C2.07364792 7.39443008 1.11603058 7.39135345 0.12939453 7.38818359 C-0.71586288 7.38960861 -1.5611203 7.39103363 -2.43199158 7.39250183 C-4.48803711 7.14526367 -4.48803711 7.14526367 -6.48803711 5.14526367 C-5.75864082 0.33124819 -4.65618009 0.02101743 0 0 Z " fill="#313131" transform="translate(40.488037109375,96.854736328125)"/>
<path d="M0 0 C1.43169777 -0.00956978 1.43169777 -0.00956978 2.89231873 -0.01933289 C4.45007774 -0.02100212 4.45007774 -0.02100212 6.03930664 -0.02270508 C7.0985585 -0.02603348 8.15781036 -0.02936188 9.24916077 -0.03279114 C11.49455327 -0.03786502 13.73995334 -0.04019932 15.98535156 -0.04003906 C19.43119667 -0.04222474 22.87672141 -0.06037354 26.32250977 -0.0793457 C28.49894096 -0.08227961 30.67537368 -0.08426443 32.85180664 -0.08520508 C34.40652931 -0.09598335 34.40652931 -0.09598335 35.99266052 -0.10697937 C36.95027786 -0.10390274 37.9078952 -0.10082611 38.89453125 -0.09765625 C39.73978867 -0.09908127 40.58504608 -0.10050629 41.45591736 -0.10197449 C43.51196289 0.14526367 43.51196289 0.14526367 45.51196289 2.14526367 C44.9762486 5.68097796 44.9762486 5.68097796 43.51196289 7.14526367 C42.01874992 7.24876561 40.52070632 7.28377106 39.02392578 7.29052734 C38.0694606 7.2969072 37.11499542 7.30328705 36.13160706 7.30986023 C34.57384804 7.31152946 34.57384804 7.31152946 32.98461914 7.31323242 C31.92536728 7.31656082 30.86611542 7.31988922 29.77476501 7.32331848 C27.52937252 7.32839236 25.28397244 7.33072667 23.03857422 7.33056641 C19.59272911 7.33275209 16.14720437 7.35090088 12.70141602 7.36987305 C10.52498483 7.37280696 8.34855211 7.37479177 6.17211914 7.37573242 C5.13563736 7.38291794 4.09915558 7.39010345 3.03126526 7.39750671 C2.07364792 7.39443008 1.11603058 7.39135345 0.12939453 7.38818359 C-0.71586288 7.38960861 -1.5611203 7.39103363 -2.43199158 7.39250183 C-4.48803711 7.14526367 -4.48803711 7.14526367 -6.48803711 5.14526367 C-5.75864082 0.33124819 -4.65618009 0.02101743 0 0 Z " fill="#2F2F2F" transform="translate(40.488037109375,80.854736328125)"/>
<path d="M0 0 C1.02814316 0.00222061 2.05628632 0.00444122 3.11558533 0.00672913 C4.85727745 0.00684242 4.85727745 0.00684242 6.63415527 0.00695801 C8.52943214 0.01469994 8.52943214 0.01469994 10.46299744 0.02259827 C12.39193092 0.02472069 12.39193092 0.02472069 14.35983276 0.02688599 C17.78427561 0.03071034 21.20867628 0.0405399 24.63310242 0.05158997 C28.12522308 0.06180587 31.61735053 0.06638399 35.10948181 0.07142639 C41.96561897 0.08216225 48.82172806 0.09923767 55.67784119 0.12025452 C55.34784119 0.78025452 55.01784119 1.44025452 54.67784119 2.12025452 C53.02784119 2.12025452 51.37784119 2.12025452 49.67784119 2.12025452 C51.65784119 2.78025452 53.63784119 3.44025452 55.67784119 4.12025452 C55.67784119 4.45025452 55.67784119 4.78025452 55.67784119 5.12025452 C36.53784119 5.12025452 17.39784119 5.12025452 -2.32215881 5.12025452 C-2.65215881 3.80025452 -2.98215881 2.48025452 -3.32215881 1.12025452 C-2.32215881 0.12025452 -2.32215881 0.12025452 0 0 Z " fill="#030303" transform="translate(37.32215881347656,129.87974548339844)"/>
<path d="M0 0 C0.33 0 0.66 0 1 0 C1 1.65 1 3.3 1 5 C2.32 5 3.64 5 5 5 C5.66 4.01 6.32 3.02 7 2 C7.16834933 3.77067416 7.33461909 5.54154612 7.5 7.3125 C7.5928125 8.29863281 7.685625 9.28476563 7.78125 10.30078125 C8 13 8 13 8 16 C5.69 17.32 3.38 18.64 1 20 C0.01 19.34 -0.98 18.68 -2 18 C-1.34 12.06 -0.68 6.12 0 0 Z " fill="#4F4F4F" transform="translate(55,158)"/>
<path d="M0 0 C2.0625 0.4375 2.0625 0.4375 4 1 C3.70703125 3.01822917 3.4140625 5.03645833 3.12109375 7.0546875 C2.8315703 9.08140667 2.8315703 9.08140667 4 11 C2.68 11.33 1.36 11.66 0 12 C-1.29449495 8.11651516 -1.13203312 5.09302664 -1 1 C-0.67 0.67 -0.34 0.34 0 0 Z " fill="#363636" transform="translate(55,164)"/>
<path d="M0 0 C0.33 0 0.66 0 1 0 C1 2.97 1 5.94 1 9 C-1.3125 9.625 -1.3125 9.625 -4 10 C-4.99 9.34 -5.98 8.68 -7 8 C-6.34 8 -5.68 8 -5 8 C-4.67 7.01 -4.34 6.02 -4 5 C-2.68 5 -1.36 5 0 5 C0 3.35 0 1.7 0 0 Z " fill="#4B4B4B" transform="translate(184,147)"/>
<path d="M0 0 C0.99 0.33 1.98 0.66 3 1 C2.34 1.66 1.68 2.32 1 3 C1.33 3.99 1.66 4.98 2 6 C1.34 6 0.68 6 0 6 C0 7.32 0 8.64 0 10 C-0.66 10 -1.32 10 -2 10 C-1.85950482 8.52031676 -1.71245174 7.04125484 -1.5625 5.5625 C-1.48128906 4.73878906 -1.40007812 3.91507813 -1.31640625 3.06640625 C-1 1 -1 1 0 0 Z " fill="#19191B" transform="translate(205,127)"/>
<path d="M0 0 C-0.33 0.99 -0.66 1.98 -1 3 C-5.455 3.495 -5.455 3.495 -10 4 C-10 3.34 -10 2.68 -10 2 C-6.38026598 0.68373308 -3.90432869 0 0 0 Z " fill="#1B1B1B" transform="translate(97,130)"/>
<path d="M0 0 C1.32 0.33 2.64 0.66 4 1 C3.67 2.98 3.34 4.96 3 7 C2.34 6.67 1.68 6.34 1 6 C0.375 2.9375 0.375 2.9375 0 0 Z " fill="#050505" transform="translate(55,164)"/>
<path d="" fill="#FFFFFF" transform="translate(0,0)"/>
<path d="" fill="#FFFFFF" transform="translate(0,0)"/>
<path d="" fill="#FFFFFF" transform="translate(0,0)"/>
<path d="" fill="#FFFFFF" transform="translate(0,0)"/>
<path d="" fill="#FFFFFF" transform="translate(0,0)"/>
<path d="" fill="#FFFFFF" transform="translate(0,0)"/>
<path d="" fill="#FFFFFF" transform="translate(0,0)"/>
<path d="" fill="#FFFFFF" transform="translate(0,0)"/>
<path d="" fill="#FFFFFF" transform="translate(0,0)"/>
<path d="" fill="#FFFFFF" transform="translate(0,0)"/>
<path d="" fill="#FFFFFF" transform="translate(0,0)"/>
<path d="" fill="#FFFFFF" transform="translate(0,0)"/>
<path d="" fill="#FFFFFF" transform="translate(0,0)"/>
<path d="" fill="#FFFFFF" transform="translate(0,0)"/>
<path d="" fill="#FFFFFF" transform="translate(0,0)"/>
<path d="" fill="#FFFFFF" transform="translate(0,0)"/>
<path d="" fill="#FFFFFF" transform="translate(0,0)"/>
<path d="" fill="#FFFFFF" transform="translate(0,0)"/>
<path d="" fill="#FFFFFF" transform="translate(0,0)"/>
<path d="" fill="#FFFFFF" transform="translate(0,0)"/>
<path d="" fill="#FFFFFF" transform="translate(0,0)"/>
<path d="" fill="#FFFFFF" transform="translate(0,0)"/>
<path d="" fill="#FFFFFF" transform="translate(0,0)"/>
<path d="" fill="#FFFFFF" transform="translate(0,0)"/>
<path d="" fill="#FFFFFF" transform="translate(0,0)"/>
<path d="" fill="#FFFFFF" transform="translate(0,0)"/>
<path d="" fill="#FFFFFF" transform="translate(0,0)"/>
<path d="" fill="#FFFFFF" transform="translate(0,0)"/>
<path d="" fill="#FFFFFF" transform="translate(0,0)"/>
<path d="" fill="#FFFFFF" transform="translate(0,0)"/>
<path d="" fill="#FFFFFF" transform="translate(0,0)"/>
<path d="" fill="#FFFFFF" transform="translate(0,0)"/>
<path d="" fill="#FFFFFF" transform="translate(0,0)"/>
<path d="" fill="#FFFFFF" transform="translate(0,0)"/>
<path d="" fill="#FFFFFF" transform="translate(0,0)"/>
<path d="" fill="#FFFFFF" transform="translate(0,0)"/>
<path d="" fill="#FFFFFF" transform="translate(0,0)"/>
<path d="" fill="#FFFFFF" transform="translate(0,0)"/>
<path d="" fill="#FFFFFF" transform="translate(0,0)"/>
<path d="" fill="#FFFFFF" transform="translate(0,0)"/>
<path d="" fill="#FFFFFF" transform="translate(0,0)"/>
<path d="" fill="#FFFFFF" transform="translate(0,0)"/>
<path d="" fill="#FFFFFF" transform="translate(0,0)"/>
<path d="" fill="#FFFFFF" transform="translate(0,0)"/>
<path d="" fill="#FFFFFF" transform="translate(0,0)"/>
<path d="" fill="#FFFFFF" transform="translate(0,0)"/>
<path d="" fill="#FFFFFF" transform="translate(0,0)"/>
<path d="" fill="#FFFFFF" transform="translate(0,0)"/>
<path d="" fill="#FFFFFF" transform="translate(0,0)"/>
<path d="" fill="#FFFFFF" transform="translate(0,0)"/>
<path d="" fill="#FFFFFF" transform="translate(0,0)"/>
<path d="" fill="#FFFFFF" transform="translate(0,0)"/>
<path d="" fill="#FFFFFF" transform="translate(0,0)"/>
<path d="" fill="#FFFFFF" transform="translate(0,0)"/>
<path d="" fill="#FFFFFF" transform="translate(0,0)"/>
<path d="" fill="#FFFFFF" transform="translate(0,0)"/>
<path d="" fill="#FFFFFF" transform="translate(0,0)"/>
<path d="" fill="#FFFFFF" transform="translate(0,0)"/>
<path d="" fill="#FFFFFF" transform="translate(0,0)"/>
<path d="" fill="#FFFFFF" transform="translate(0,0)"/>
<path d="" fill="#FFFFFF" transform="translate(0,0)"/>
<path d="" fill="#FFFFFF" transform="translate(0,0)"/>
<path d="" fill="#FFFFFF" transform="translate(0,0)"/>
<path d="" fill="#FFFFFF" transform="translate(0,0)"/>
<path d="" fill="#FFFFFF" transform="translate(0,0)"/>
<path d="" fill="#FFFFFF" transform="translate(0,0)"/>
<path d="" fill="#FFFFFF" transform="translate(0,0)"/>
<path d="" fill="#FFFFFF" transform="translate(0,0)"/>
<path d="" fill="#FFFFFF" transform="translate(0,0)"/>
<path d="" fill="#FFFFFF" transform="translate(0,0)"/>
<path d="" fill="#FFFFFF" transform="translate(0,0)"/>
<path d="" fill="#FFFFFF" transform="translate(0,0)"/>
<path d="" fill="#FFFFFF" transform="translate(0,0)"/>
<path d="" fill="#FFFFFF" transform="translate(0,0)"/>
<path d="" fill="#FFFFFF" transform="translate(0,0)"/>
<path d="" fill="#FFFFFF" transform="translate(0,0)"/>
<path d="" fill="#FFFFFF" transform="translate(0,0)"/>
<path d="" fill="#FFFFFF" transform="translate(0,0)"/>
<path d="" fill="#FFFFFF" transform="translate(0,0)"/>
<path d="" fill="#FFFFFF" transform="translate(0,0)"/>
<path d="" fill="#FFFFFF" transform="translate(0,0)"/>
<path d="" fill="#FFFFFF" transform="translate(0,0)"/>
<path d="" fill="#FFFFFF" transform="translate(0,0)"/>
</svg>
