<?xml version="1.0" encoding="UTF-8"?>
<svg version="1.1" xmlns="http://www.w3.org/2000/svg" width="225" height="225">
<path d="M0 0 C4.27162858 2.83578704 7.24590513 5.7401105 8.51171875 10.8671875 C9.53011801 16.88604154 8.23212623 20.82552454 5.296875 26.171875 C2.77491464 29.32432545 0.79158996 30.55022884 -2.953125 31.984375 C-3.943125 31.984375 -4.933125 31.984375 -5.953125 31.984375 C-5.953125 32.644375 -5.953125 33.304375 -5.953125 33.984375 C-5.26347656 34.149375 -4.57382812 34.314375 -3.86328125 34.484375 C0.43463897 36.69967885 2.720791 40.18168214 5.609375 43.984375 C6.72882443 45.44797517 7.85490511 46.90653261 8.98828125 48.359375 C9.72606812 49.33003906 9.72606812 49.33003906 10.47875977 50.3203125 C12.92762331 52.9190131 15.08214555 53.91128944 18.625 54.1796875 C19.94757813 54.14488281 19.94757813 54.14488281 21.296875 54.109375 C22.63492188 54.08230469 22.63492188 54.08230469 24 54.0546875 C24.67546875 54.03148437 25.3509375 54.00828125 26.046875 53.984375 C26.541875 52.994375 26.541875 52.994375 27.046875 51.984375 C29.109375 51.359375 29.109375 51.359375 31.046875 50.984375 C31.046875 51.644375 31.046875 52.304375 31.046875 52.984375 C32.696875 53.314375 34.346875 53.644375 36.046875 53.984375 C38.3341527 59.16084559 38.3341527 59.16084559 37.109375 62.671875 C32.63322221 67.69059177 26.21903082 68.74036301 19.796875 69.234375 C13.963484 68.84548227 8.91281911 67.22833774 4.046875 63.984375 C3.716875 69.264375 3.386875 74.544375 3.046875 79.984375 C5.521875 79.489375 5.521875 79.489375 8.046875 78.984375 C11.01953125 78.96484375 11.01953125 78.96484375 14.109375 79.171875 C15.13160156 79.22730469 16.15382812 79.28273438 17.20703125 79.33984375 C20.71382263 80.13574551 21.92377945 81.10303103 24.046875 83.984375 C24.76953125 86.5234375 24.76953125 86.5234375 25.109375 89.609375 C25.25246094 90.8365625 25.39554688 92.06375 25.54296875 93.328125 C25.6188623 94.04355469 25.69475586 94.75898438 25.77294922 95.49609375 C26.09521308 98.42346746 26.46331344 101.34374314 26.83203125 104.265625 C27.11296409 106.54675392 27.39290405 108.82800532 27.671875 111.109375 C27.80730713 112.19299316 27.94273926 113.27661133 28.08227539 114.39306641 C28.71346915 119.76736993 29.19741584 125.12974591 29.3828125 130.5390625 C29.41681152 131.49022949 29.45081055 132.44139648 29.48583984 133.42138672 C28.91032641 136.78164258 27.71989629 137.93254462 25.046875 139.984375 C21.43527331 140.43582521 19.1015421 140.58474611 15.89990234 138.76220703 C13.58818248 136.54429609 13.34873839 135.2466783 12.8984375 132.1015625 C12.75180664 131.1228418 12.60517578 130.14412109 12.45410156 129.13574219 C12.3197168 128.09579102 12.18533203 127.05583984 12.046875 125.984375 C11.83369629 124.42058105 11.83369629 124.42058105 11.61621094 122.82519531 C11.19164759 119.58925422 10.80185468 116.35083432 10.421875 113.109375 C10.22078125 111.45808594 10.22078125 111.45808594 10.015625 109.7734375 C9.46517219 105.14514038 8.96745522 100.65108132 9.046875 95.984375 C7.97373047 96.0157959 7.97373047 96.0157959 6.87890625 96.04785156 C3.60170848 96.13158333 0.32473659 96.18321551 -2.953125 96.234375 C-4.07847656 96.26789063 -5.20382813 96.30140625 -6.36328125 96.3359375 C-12.82862713 96.41155558 -18.84197357 96.39289134 -23.953125 91.984375 C-28.36682171 86.84905666 -28.54331416 82.69963372 -28.484375 76.23828125 C-28.4882019 75.30894272 -28.49202881 74.37960419 -28.49597168 73.42210388 C-28.4986852 71.46295077 -28.49136332 69.50376109 -28.47460938 67.54467773 C-28.45321587 64.55955472 -28.47441739 61.57684492 -28.5 58.59179688 C-28.49735615 56.68228639 -28.49222999 54.77277741 -28.484375 52.86328125 C-28.49247192 51.97766006 -28.50056885 51.09203888 -28.50891113 50.17958069 C-28.42066833 44.29377891 -27.36050682 40.81823163 -23.953125 35.984375 C-21.8125 34.42578125 -21.8125 34.42578125 -19.703125 33.546875 C-18.99671875 33.23878906 -18.2903125 32.93070313 -17.5625 32.61328125 C-17.03140625 32.40574219 -16.5003125 32.19820312 -15.953125 31.984375 C-16.84 31.365625 -17.726875 30.746875 -18.640625 30.109375 C-22.76929608 26.66881576 -25.35103598 22.08555398 -26.953125 16.984375 C-26.20930516 10.31974922 -23.09691988 5.21371745 -17.953125 0.984375 C-12.0299192 -2.3077072 -6.15297027 -3.19954454 0 0 Z " fill="#010101" transform="translate(48.953125,52.015625)"/>
<path d="M0 0 C4.14432124 3.30942157 5.7223793 7.67895519 6.609375 12.72265625 C6.96599963 17.69841896 5.49464693 21.27833661 2.609375 25.28515625 C-1.490625 29.28515625 -1.490625 29.28515625 -5.390625 29.28515625 C-5.390625 29.94515625 -5.390625 30.60515625 -5.390625 31.28515625 C-4.38 31.28515625 -3.369375 31.28515625 -2.328125 31.28515625 C2.21105871 31.95787523 4.2891554 34.49147113 7.13394165 37.90863037 C9.66337447 41.98286562 9.55608504 45.7932611 9.43359375 50.48046875 C9.43317581 51.4315451 9.43275787 52.38262146 9.43232727 53.36251831 C9.4239889 55.36112185 9.39866545 57.35971987 9.35717773 59.35791016 C9.29689612 62.40908737 9.29561459 65.45612346 9.30273438 68.5078125 C9.28732929 70.45706181 9.26856385 72.40628808 9.24609375 74.35546875 C9.24477951 75.26185089 9.24346527 76.16823303 9.24211121 77.1020813 C9.09808031 82.62405717 8.34553796 85.94468182 4.609375 90.28515625 C-1.36234581 95.43593864 -8.96218881 94.75639261 -16.390625 94.53515625 C-17.54691406 94.51710938 -18.70320313 94.4990625 -19.89453125 94.48046875 C-22.72743775 94.43364385 -25.55858384 94.36807637 -28.390625 94.28515625 C-28.41568115 94.94636475 -28.4407373 95.60757324 -28.46655273 96.28881836 C-28.58215602 99.2669793 -28.70504254 102.24479545 -28.828125 105.22265625 C-28.86744141 106.26357422 -28.90675781 107.30449219 -28.94726562 108.37695312 C-28.98916016 109.36630859 -29.03105469 110.35566406 -29.07421875 111.375 C-29.11087646 112.29144287 -29.14753418 113.20788574 -29.18530273 114.15209961 C-29.390625 116.28515625 -29.390625 116.28515625 -30.390625 117.28515625 C-30.80501518 120.37424665 -31.16006525 123.46093052 -31.46484375 126.5625 C-31.95841708 130.8206157 -32.81266243 133.83923644 -35.390625 137.28515625 C-38.24386937 138.71177844 -40.22517049 138.59549493 -43.390625 138.28515625 C-46.265625 137.03515625 -46.265625 137.03515625 -48.390625 134.28515625 C-49.31194987 125.75296195 -47.94273122 116.99939819 -46.890625 108.53515625 C-46.01716525 101.41370514 -45.17837007 94.46644794 -45.390625 87.28515625 C-44.730625 87.28515625 -44.070625 87.28515625 -43.390625 87.28515625 C-43.473125 86.54265625 -43.555625 85.80015625 -43.640625 85.03515625 C-43.390625 82.28515625 -43.390625 82.28515625 -41.859375 80.12890625 C-38.51615919 77.63207419 -35.63301164 77.83893309 -31.640625 78.03515625 C-30.94324219 78.05320312 -30.24585938 78.07125 -29.52734375 78.08984375 C-27.81450961 78.13677071 -26.10238676 78.2085102 -24.390625 78.28515625 C-23.24984843 74.86282653 -23.29247383 72.19842408 -23.328125 68.59765625 C-23.33714844 67.41816406 -23.34617188 66.23867187 -23.35546875 65.0234375 C-23.36707031 64.11980469 -23.37867188 63.21617188 -23.390625 62.28515625 C-24.463125 62.92453125 -25.535625 63.56390625 -26.640625 64.22265625 C-33.36793566 68.23316837 -39.81635609 67.34481674 -47.390625 66.28515625 C-50.99099572 65.2556188 -53.70613443 63.96964682 -56.390625 61.28515625 C-56.390625 60.29515625 -56.390625 59.30515625 -56.390625 58.28515625 C-57.050625 58.28515625 -57.710625 58.28515625 -58.390625 58.28515625 C-57.21928291 54.77112998 -56.35920657 53.49256306 -53.390625 51.28515625 C-49.54316425 50.71113993 -46.09138552 51.05156941 -42.390625 52.28515625 C-36.51175273 52.97205444 -36.51175273 52.97205444 -31.4453125 50.1796875 C-27.70661045 46.86111067 -24.95109186 42.907756 -22.09179688 38.83789062 C-19.53432472 35.34308271 -17.60372085 33.44920234 -13.390625 32.28515625 C-13.390625 31.62515625 -13.390625 30.96515625 -13.390625 30.28515625 C-14.2775 30.20265625 -15.164375 30.12015625 -16.078125 30.03515625 C-20.81586675 28.96246 -23.24370136 26.80073391 -26.140625 22.97265625 C-28.463385 17.97872225 -28.80072398 13.91089254 -27.265625 8.66015625 C-25.40369071 3.77257874 -23.13381219 0.58322635 -18.27734375 -1.71484375 C-11.36427661 -4.3174102 -6.4451297 -3.97829908 0 0 Z " fill="#000000" transform="translate(195.390625,53.71484375)"/>
<path d="M0 0 C0.7354303 -0.00540298 1.4708606 -0.01080597 2.22857666 -0.01637268 C4.65540017 -0.02886252 7.08103785 -0.01236846 9.5078125 0.00561523 C11.19645246 0.00546025 12.88509277 0.00397138 14.57373047 0.00120544 C18.11116275 -0.00017866 21.64818963 0.01238104 25.18554688 0.03515625 C29.71858153 0.06354113 34.2509426 0.06080382 38.7840271 0.04806614 C42.2704849 0.04110923 45.75678716 0.04889834 49.2432251 0.06132317 C50.91456506 0.06583757 52.58592172 0.06617456 54.25726318 0.06225777 C56.59373159 0.05934537 58.92927369 0.07585274 61.265625 0.09765625 C62.30061127 0.09090378 62.30061127 0.09090378 63.35650635 0.08401489 C67.37737579 0.14632031 69.77696212 0.58700862 72.6328125 3.50170898 C73.64099265 6.31021084 73.84175766 7.83688347 72.9453125 10.68920898 C71.6328125 12.50170898 71.6328125 12.50170898 67.6328125 14.50170898 C64.6628125 14.50170898 61.6928125 14.50170898 58.6328125 14.50170898 C58.6328125 32.32170898 58.6328125 50.14170898 58.6328125 68.50170898 C40.1528125 68.50170898 21.6728125 68.50170898 2.6328125 68.50170898 C2.6328125 50.68170898 2.6328125 32.86170898 2.6328125 14.50170898 C-0.3371875 14.50170898 -3.3071875 14.50170898 -6.3671875 14.50170898 C-9.4296875 12.87670898 -9.4296875 12.87670898 -11.3671875 10.50170898 C-11.9296875 7.50170898 -11.9296875 7.50170898 -11.3671875 4.50170898 C-8.18648143 0.14657651 -5.07411801 -0.0710972 0 0 Z " fill="#000000" transform="translate(80.3671875,120.498291015625)"/>
<path d="M0 0 C1.93715881 -0.0238678 1.93715881 -0.0238678 3.91345215 -0.04821777 C5.32446234 -0.04948486 6.73547386 -0.049662 8.14648438 -0.04882812 C9.59232887 -0.055928 11.03817053 -0.06362675 12.48400879 -0.07189941 C15.5136702 -0.08534738 18.543071 -0.08691137 21.57275391 -0.08105469 C25.45714364 -0.07515337 29.34028568 -0.10576406 33.2244339 -0.14617157 C36.20988716 -0.17200662 39.19503813 -0.17493 42.18058777 -0.17127991 C43.61275879 -0.17297466 45.04494326 -0.18265152 46.477005 -0.20042419 C48.47803824 -0.22252788 50.47936539 -0.20973138 52.48046875 -0.1953125 C53.61947632 -0.19736694 54.75848389 -0.19942139 55.93200684 -0.20153809 C58.74023438 0.41992188 58.74023438 0.41992188 60.5892334 2.75622559 C65.1993504 13.42515793 63.4003424 29.25700021 61.66601562 40.48632812 C60.74023438 42.41992188 60.74023438 42.41992188 58.15820312 43.69726562 C57.36027344 43.93574219 56.56234375 44.17421875 55.74023438 44.41992188 C56.73023438 47.05992188 57.72023438 49.69992188 58.74023438 52.41992188 C55.92646366 51.22948042 54.49811446 50.15959239 52.3737793 47.87548828 C47.70634623 43.96479513 42.02085151 44.75188201 36.22851562 44.81835938 C35.02333786 44.81035309 33.8181601 44.8023468 32.57646179 44.7940979 C28.73487556 44.77104194 24.89434911 44.78049689 21.05273438 44.79492188 C17.20060747 44.7987632 13.34894594 44.79539914 9.49687195 44.77432251 C7.10189116 44.76218566 4.70677967 44.76497963 2.31184387 44.7840271 C0.68952095 44.77854355 0.68952095 44.77854355 -0.96557617 44.77294922 C-1.9178862 44.77692719 -2.87019623 44.78090515 -3.85136414 44.78500366 C-6.25976562 44.41992188 -6.25976562 44.41992188 -8.06639099 43.13418579 C-10.17139389 40.11038219 -9.68499244 36.47690283 -9.65820312 32.91992188 C-9.6610733 32.08783203 -9.66394348 31.25574219 -9.66690063 30.3984375 C-9.66894125 28.63996703 -9.66341155 26.88147387 -9.65087891 25.12304688 C-9.63482464 22.42982274 -9.65072708 19.73809928 -9.66992188 17.04492188 C-9.66793944 15.33658523 -9.66409576 13.62824951 -9.65820312 11.91992188 C-9.66427582 11.11361328 -9.67034851 10.30730469 -9.67660522 9.4765625 C-9.60692745 3.94389527 -9.60692745 3.94389527 -8.1267395 1.70983887 C-5.40886369 -0.16797755 -3.2848302 0.02428044 0 0 Z M9.74023438 17.41992188 C9.08023438 18.07992187 8.42023438 18.73992187 7.74023438 19.41992188 C8.06064835 22.02272756 8.06064835 22.02272756 8.74023438 24.41992188 C10.5874849 25.11151589 10.5874849 25.11151589 12.74023438 25.41992188 C13.73023438 24.75992188 14.72023438 24.09992188 15.74023438 23.41992188 C15.41023438 21.76992187 15.08023438 20.11992188 14.74023438 18.41992188 C12.34304006 17.74033585 12.34304006 17.74033585 9.74023438 17.41992188 Z M22.74023438 18.41992188 C22.69959605 20.08609303 22.69751337 21.75380282 22.74023438 23.41992188 C25.21523437 24.40992188 25.21523437 24.40992188 27.74023438 25.41992188 C29.38579137 24.19183096 29.38579137 24.19183096 30.74023438 22.41992188 C30.48876858 20.28246266 30.28097658 18.96066408 28.74023438 17.41992188 C25.45128544 17.01363221 25.45128544 17.01363221 22.74023438 18.41992188 Z M37.74023438 17.41992188 C37.41023438 19.39992188 37.08023438 21.37992188 36.74023438 23.41992188 C39.21523437 24.40992188 39.21523437 24.40992188 41.74023438 25.41992188 C43.38579137 24.19183096 43.38579137 24.19183096 44.74023438 22.41992188 C44.48876858 20.28246266 44.28097658 18.96066408 42.74023438 17.41992188 C41.07406322 17.37928355 39.40635343 17.37720087 37.74023438 17.41992188 Z " fill="#000000" transform="translate(99.259765625,52.580078125)"/>
<path d="M0 0 C1.24824554 -0.01283524 2.49649109 -0.02567047 3.78256226 -0.03889465 C5.1514242 -0.04706142 6.52029061 -0.05450528 7.88916016 -0.0612793 C8.57738483 -0.06535482 9.26560951 -0.06943035 9.97468948 -0.07362938 C13.61674957 -0.09448675 17.25877201 -0.10879037 20.90087891 -0.11816406 C24.66277965 -0.12923355 28.42408968 -0.16363957 32.18578148 -0.20333576 C35.07857362 -0.22947763 37.97122442 -0.23785362 40.8641243 -0.24144554 C42.2508201 -0.24631716 43.63750934 -0.25794773 45.02408981 -0.27648354 C46.96513384 -0.30082033 48.90646494 -0.29749554 50.84765625 -0.29296875 C51.95192963 -0.29883499 53.056203 -0.30470123 54.19393921 -0.31074524 C57.73692049 0.29362967 58.91187607 1.33559593 61.05322266 4.17700195 C61.50732422 7.47680664 61.50732422 7.47680664 61.44384766 11.34887695 C61.43818787 12.03129456 61.43252808 12.71371216 61.42669678 13.41680908 C61.40437902 15.58759957 61.35419773 17.75671401 61.30322266 19.92700195 C61.28315141 21.40223846 61.26490172 22.87750095 61.24853516 24.3527832 C61.20453146 27.96139696 61.13553849 31.56903577 61.05322266 35.17700195 C55.45691102 35.97912548 50.07999554 36.30257881 44.43212891 36.23950195 C43.64676254 36.23571533 42.86139618 36.23192871 42.05223083 36.22802734 C39.57333574 36.21592425 37.09456356 36.19727088 34.61572266 36.17700195 C31.32536171 36.15049478 28.03505571 36.1305031 24.74462891 36.11450195 C23.98743057 36.10620361 23.23023224 36.09790527 22.4500885 36.08935547 C20.65091633 36.08080245 18.85162368 36.1236409 17.05322266 36.17700195 C15.0849938 38.14523081 15.39073884 41.52508904 15.05322266 44.17700195 C14.36357422 44.15637695 13.67392578 44.13575195 12.96337891 44.11450195 C5.50666177 44.27816104 2.00888469 46.13401516 -3.16943359 51.4621582 C-4.94677734 53.17700195 -4.94677734 53.17700195 -6.94677734 53.17700195 C-5.95677734 50.20700195 -4.96677734 47.23700195 -3.94677734 44.17700195 C-5.26677734 43.84700195 -6.58677734 43.51700195 -7.94677734 43.17700195 C-10.62576066 39.74077632 -10.23611822 35.65169696 -10.21240234 31.48950195 C-10.2143158 30.74998291 -10.21622925 30.01046387 -10.21820068 29.24853516 C-10.21955869 27.68855447 -10.2158891 26.12856234 -10.20751953 24.56860352 C-10.1968142 22.18520648 -10.20742745 19.80256313 -10.22021484 17.41918945 C-10.21889318 15.90095863 -10.21633064 14.38272827 -10.21240234 12.86450195 C-10.21645081 12.15398682 -10.22049927 11.44347168 -10.22467041 10.71142578 C-10.19023116 7.06504596 -10.07654167 4.21684179 -7.94677734 1.17700195 C-5.22408853 -0.18434245 -3.04800622 0.02721111 0 0 Z M22.05322266 18.17700195 C22.38322266 19.82700195 22.71322266 21.47700195 23.05322266 23.17700195 C25.45041698 23.85658798 25.45041698 23.85658798 28.05322266 24.17700195 C28.71322266 23.51700195 29.37322266 22.85700195 30.05322266 22.17700195 C29.73280868 19.57419627 29.73280868 19.57419627 29.05322266 17.17700195 C25.5674041 15.97499555 25.37329921 15.96361758 22.05322266 18.17700195 Z M37.24072266 17.36450195 C35.80031938 19.12754305 35.80031938 19.12754305 36.36572266 21.36450195 C36.59259766 21.96262695 36.81947266 22.56075195 37.05322266 23.17700195 C39.45041698 23.85658798 39.45041698 23.85658798 42.05322266 24.17700195 C42.71322266 23.51700195 43.37322266 22.85700195 44.05322266 22.17700195 C43.73280868 19.57419627 43.73280868 19.57419627 43.05322266 17.17700195 C40.04573351 16.0183789 40.04573351 16.0183789 37.24072266 17.36450195 Z M11.05322266 16.17700195 C9.73322266 17.16700195 8.41322266 18.15700195 7.05322266 19.17700195 C7.71322266 20.82700195 8.37322266 22.47700195 9.05322266 24.17700195 C10.71934171 24.21972295 12.38705151 24.21764027 14.05322266 24.17700195 C15.34955886 23.1105508 15.34955886 23.1105508 15.11572266 20.61450195 C15.09509766 19.81012695 15.07447266 19.00575195 15.05322266 18.17700195 C13.73322266 17.51700195 12.41322266 16.85700195 11.05322266 16.17700195 Z " fill="#000000" transform="translate(72.94677734375,14.822998046875)"/>
<path d="M0 0 C1.99052305 3.01330039 2.24873549 5.44810901 2.24291992 9.01220703 C2.24599655 10.00648712 2.24907318 11.00076721 2.25224304 12.025177 C2.24505753 13.09194672 2.23787201 14.15871643 2.23046875 15.2578125 C2.22978142 16.90691116 2.22978142 16.90691116 2.2290802 18.58932495 C2.22606113 20.9109607 2.21818515 23.23259448 2.20581055 25.55419922 C2.18753468 29.11823657 2.18530104 32.6820144 2.18554688 36.24609375 C2.18063232 38.50000226 2.17480428 40.753909 2.16796875 43.0078125 C2.16685593 44.07863068 2.1657431 45.14944885 2.16459656 46.25271606 C2.15821671 47.24069183 2.15183685 48.2286676 2.14526367 49.24658203 C2.14145187 50.11832062 2.13764008 50.9900592 2.13371277 51.88821411 C2 54 2 54 1 56 C2.00377686 55.97905273 3.00755371 55.95810547 4.04174805 55.93652344 C7.77825566 55.86393306 11.51470137 55.81813189 15.25170898 55.78027344 C16.86672458 55.76020108 18.48166789 55.7329367 20.09643555 55.69824219 C22.42254501 55.64952785 24.74769093 55.62698846 27.07421875 55.609375 C27.79212082 55.58872986 28.51002289 55.56808472 29.24967957 55.54681396 C32.84771457 55.54521613 34.89451199 55.93657513 38.00317383 57.80566406 C40 60 40 60 39.875 63.5 C39.4275992 65.28960321 38.97597034 67.07956205 38.44262695 68.84545898 C37.87499778 71.60846365 37.96049251 74.1535276 38.04296875 76.97265625 C38.07487305 78.69258789 38.07487305 78.69258789 38.10742188 80.44726562 C38.16090014 82.86161365 38.22604638 85.27573084 38.30273438 87.68945312 C38.32883789 89.40745117 38.32883789 89.40745117 38.35546875 91.16015625 C38.39643677 92.73228882 38.39643677 92.73228882 38.43823242 94.33618164 C38 97 38 97 36.13793945 98.86889648 C34 100 34 100 31.4375 99.9375 C28.43425533 98.7824059 27.64868162 97.7357212 26 95 C25.65942383 92.52636719 25.65942383 92.52636719 25.70703125 89.796875 C25.7215332 88.32734375 25.7215332 88.32734375 25.73632812 86.828125 C25.76146484 85.81234375 25.78660156 84.7965625 25.8125 83.75 C25.83280273 82.203125 25.83280273 82.203125 25.85351562 80.625 C25.88882393 78.08280208 25.93813964 75.54166777 26 73 C22.18751574 72.97112764 18.3750593 72.95324508 14.5625 72.9375 C13.47388672 72.92912109 12.38527344 72.92074219 11.26367188 72.91210938 C9.71196289 72.90727539 9.71196289 72.90727539 8.12890625 72.90234375 C6.69140015 72.89448853 6.69140015 72.89448853 5.22485352 72.88647461 C3.02714661 72.7494687 3.02714661 72.7494687 2 74 C1.89121589 75.58719954 1.8442134 77.17873378 1.82421875 78.76953125 C1.78844727 80.22649414 1.78844727 80.22649414 1.75195312 81.71289062 C1.70923235 83.76737163 1.67784778 85.8221219 1.65820312 87.87695312 C1.44588261 95.34767281 1.44588261 95.34767281 -0.84765625 98.703125 C-3 100 -3 100 -6.125 99.9375 C-9 99 -9 99 -11 96 C-11.22705078 93.51977539 -11.22705078 93.51977539 -11.1953125 90.59765625 C-11.18886719 89.54255859 -11.18242187 88.48746094 -11.17578125 87.40039062 C-11.15902344 86.29888672 -11.14226563 85.19738281 -11.125 84.0625 C-11.11597656 82.96486328 -11.10695313 81.86722656 -11.09765625 80.73632812 C-11.08021152 78.6940481 -11.05866509 76.65179616 -11.03173828 74.60961914 C-10.78723736 70.16867538 -10.78723736 70.16867538 -12 66 C-12.10684322 63.9839668 -12.14886312 61.96438175 -12.16113281 59.94555664 C-12.17074036 58.67406265 -12.1803479 57.40256866 -12.19024658 56.09254456 C-12.19509382 54.69841694 -12.19937283 53.30428725 -12.203125 51.91015625 C-12.20887598 50.48530576 -12.21463372 49.0604553 -12.22039795 47.63560486 C-12.23090699 44.64712157 -12.23675049 41.65866518 -12.24023438 38.67016602 C-12.24572333 34.83877576 -12.26975987 31.00774014 -12.29820633 27.17646122 C-12.31681835 24.2330979 -12.32203749 21.28982032 -12.32357025 18.34640312 C-12.32659987 16.9337819 -12.33463884 15.52116229 -12.34775543 14.10859871 C-12.36478627 12.13374975 -12.36109517 10.15875481 -12.35644531 8.18383789 C-12.36009094 7.05957901 -12.36373657 5.93532013 -12.36749268 4.7769928 C-12 2 -12 2 -10.66522217 0.17601013 C-6.69469437 -2.6280487 -4.22564134 -1.88805251 0 0 Z " fill="#000000" transform="translate(17,93)"/>
<path d="M0 0 C1.69548035 1.13793945 1.69548035 1.13793945 3 3 C3.3742218 5.77026367 3.3742218 5.77026367 3.37231445 9.16796875 C3.38165764 11.07509644 3.38165764 11.07509644 3.39118958 13.02075195 C3.38250149 14.40967195 3.3731835 15.79858813 3.36328125 17.1875 C3.36276258 18.61092122 3.36328054 20.03434316 3.36479187 21.45776367 C3.36470217 24.44037577 3.35427722 27.42271745 3.33618164 30.40527344 C3.31349432 34.22874805 3.3129505 38.05182755 3.31969929 41.87535095 C3.32304053 44.81444817 3.3164063 47.75345527 3.30657005 50.6925354 C3.30272042 52.10234099 3.30156886 53.5121566 3.3031559 54.92196655 C3.30352667 56.89201099 3.2894275 58.86204215 3.2746582 60.83203125 C3.27005081 61.95327393 3.26544342 63.0745166 3.26069641 64.22973633 C3 67 3 67 1 70 C1.33 70.99 1.66 71.98 2 73 C2.28363866 76.97446233 2.27753696 80.95404468 2.3125 84.9375 C2.34150391 86.03513672 2.37050781 87.13277344 2.40039062 88.26367188 C2.40876953 89.32005859 2.41714844 90.37644531 2.42578125 91.46484375 C2.44036377 92.430271 2.45494629 93.39569824 2.4699707 94.39038086 C1.86577255 97.7453284 0.66400415 98.93958072 -2 101 C-4.84162217 100.93069214 -6.36658375 100.48473594 -8.62255859 98.75830078 C-10.45884024 96.41429149 -10.41141219 94.88687594 -10.4765625 91.9296875 C-10.5075 90.95128906 -10.5384375 89.97289062 -10.5703125 88.96484375 C-10.58835938 87.94519531 -10.60640625 86.92554688 -10.625 85.875 C-10.6757789 83.85146064 -10.73026054 81.82800961 -10.7890625 79.8046875 C-10.80662598 78.90733887 -10.82418945 78.00999023 -10.84228516 77.08544922 C-10.77130016 75.01144327 -10.77130016 75.01144327 -12 74 C-13.63472882 73.91299658 -15.27314055 73.89298937 -16.91015625 73.90234375 C-18.39418945 73.90717773 -18.39418945 73.90717773 -19.90820312 73.91210938 C-20.94912109 73.92048828 -21.99003906 73.92886719 -23.0625 73.9375 C-24.62967773 73.94426758 -24.62967773 73.94426758 -26.22851562 73.95117188 C-28.8190666 73.96300087 -31.40950559 73.97948311 -34 74 C-34.00616333 74.96039185 -34.00616333 74.96039185 -34.01245117 75.94018555 C-34.04546038 78.85687905 -34.11611026 81.77150384 -34.1875 84.6875 C-34.19330078 85.69490234 -34.19910156 86.70230469 -34.20507812 87.74023438 C-34.42750295 95.22853676 -34.42750295 95.22853676 -37.3828125 99.2109375 C-40 101 -40 101 -42.6875 100.9375 C-45 100 -45 100 -47 98 C-47.1953125 95.15844727 -47.1953125 95.15844727 -47.125 91.56640625 C-47.10953125 90.27798828 -47.0940625 88.98957031 -47.078125 87.66210938 C-47.04076874 85.61021828 -46.99991849 83.55841427 -46.95898438 81.5065918 C-46.92282562 79.52666221 -46.89874953 77.54652357 -46.875 75.56640625 C-46.84019531 73.78665405 -46.84019531 73.78665405 -46.8046875 71.97094727 C-46.76416316 68.81325474 -46.76416316 68.81325474 -49 66 C-48.86397269 62.73534446 -48.71560637 60.75023606 -46.42089844 58.34448242 C-43.12557889 56.51437706 -40.06785013 56.52179171 -36.390625 56.48828125 C-35.66381531 56.47033005 -34.93700562 56.45237885 -34.18817139 56.43388367 C-31.87550593 56.37986759 -29.56304579 56.3459144 -27.25 56.3125 C-25.6783569 56.27931907 -24.10674086 56.24482868 -22.53515625 56.20898438 C-18.69025254 56.12414672 -14.84540878 56.05729494 -11 56 C-11.01160156 54.68773437 -11.02320313 53.37546875 -11.03515625 52.0234375 C-11.1028081 40.93661264 -11.02169367 29.85086572 -10.73654175 18.76739502 C-10.68792549 16.76750291 -10.65359177 14.7672803 -10.61938477 12.76708984 C-10.58385498 11.53941895 -10.5483252 10.31174805 -10.51171875 9.046875 C-10.48553467 7.95213867 -10.45935059 6.85740234 -10.43237305 5.72949219 C-10 3 -10 3 -8.68676758 1.14550781 C-5.841727 -0.78659964 -3.31498684 -0.35517716 0 0 Z " fill="#000000" transform="translate(217,92)"/>
<path d="M0 0 C0.33 0 0.66 0 1 0 C1 3.3 1 6.6 1 10 C0.67 10 0.34 10 0 10 C0 6.7 0 3.4 0 0 Z " fill="#000000" transform="translate(221,131)"/>
<path d="M0 0 C0.33 0 0.66 0 1 0 C1 3.3 1 6.6 1 10 C0.67 10 0.34 10 0 10 C0 6.7 0 3.4 0 0 Z " fill="#000000" transform="translate(221,112)"/>
<path d="" fill="#000000" transform="translate(0,0)"/>
<path d="" fill="#000000" transform="translate(0,0)"/>
<path d="" fill="#000000" transform="translate(0,0)"/>
<path d="M0 0 C3 1 3 1 3 1 Z " fill="#000000" transform="translate(132,51)"/>
<path d="" fill="#000000" transform="translate(0,0)"/>
<path d="" fill="#000000" transform="translate(0,0)"/>
<path d="M0 0 C2 1 2 1 2 1 Z " fill="#000000" transform="translate(152,122)"/>
<path d="M0 0 C2 1 2 1 2 1 Z " fill="#000000" transform="translate(63,104)"/>
<path d="M0 0 C2 1 2 1 2 1 Z " fill="#000000" transform="translate(61,103)"/>
<path d="M0 0 C2 1 2 1 2 1 Z " fill="#000000" transform="translate(45,85)"/>
<path d="" fill="#000000" transform="translate(0,0)"/>
<path d="" fill="#FFFFFF" transform="translate(0,0)"/>
<path d="" fill="#FFFFFF" transform="translate(0,0)"/>
<path d="" fill="#FFFFFF" transform="translate(0,0)"/>
<path d="" fill="#FFFFFF" transform="translate(0,0)"/>
<path d="" fill="#FFFFFF" transform="translate(0,0)"/>
<path d="" fill="#FFFFFF" transform="translate(0,0)"/>
<path d="" fill="#FFFFFF" transform="translate(0,0)"/>
<path d="" fill="#FFFFFF" transform="translate(0,0)"/>
<path d="" fill="#FFFFFF" transform="translate(0,0)"/>
<path d="" fill="#FFFFFF" transform="translate(0,0)"/>
<path d="" fill="#FFFFFF" transform="translate(0,0)"/>
<path d="" fill="#FFFFFF" transform="translate(0,0)"/>
<path d="" fill="#FFFFFF" transform="translate(0,0)"/>
<path d="" fill="#FFFFFF" transform="translate(0,0)"/>
<path d="" fill="#000000" transform="translate(0,0)"/>
<path d="" fill="#FFFFFF" transform="translate(0,0)"/>
<path d="" fill="#000000" transform="translate(0,0)"/>
<path d="" fill="#000000" transform="translate(0,0)"/>
<path d="" fill="#000000" transform="translate(0,0)"/>
<path d="" fill="#000000" transform="translate(0,0)"/>
<path d="" fill="#FFFFFF" transform="translate(0,0)"/>
<path d="" fill="#000000" transform="translate(0,0)"/>
<path d="" fill="#FFFFFF" transform="translate(0,0)"/>
<path d="" fill="#000000" transform="translate(0,0)"/>
<path d="" fill="#FFFFFF" transform="translate(0,0)"/>
<path d="" fill="#000000" transform="translate(0,0)"/>
<path d="" fill="#000000" transform="translate(0,0)"/>
<path d="" fill="#FFFFFF" transform="translate(0,0)"/>
<path d="" fill="#FFFFFF" transform="translate(0,0)"/>
<path d="" fill="#000000" transform="translate(0,0)"/>
<path d="" fill="#000000" transform="translate(0,0)"/>
<path d="" fill="#FFFFFF" transform="translate(0,0)"/>
<path d="" fill="#FFFFFF" transform="translate(0,0)"/>
<path d="" fill="#000000" transform="translate(0,0)"/>
<path d="" fill="#FFFFFF" transform="translate(0,0)"/>
<path d="" fill="#FFFFFF" transform="translate(0,0)"/>
<path d="" fill="#000000" transform="translate(0,0)"/>
<path d="" fill="#000000" transform="translate(0,0)"/>
<path d="" fill="#FFFFFF" transform="translate(0,0)"/>
<path d="" fill="#FFFF00" transform="translate(0,0)"/>
<path d="" fill="#FFFFFF" transform="translate(0,0)"/>
<path d="" fill="#FFFFFF" transform="translate(0,0)"/>
<path d="" fill="#FFFFFF" transform="translate(0,0)"/>
<path d="" fill="#FFFFFF" transform="translate(0,0)"/>
<path d="" fill="#FFFFFF" transform="translate(0,0)"/>
<path d="" fill="#FFFFFF" transform="translate(0,0)"/>
</svg>
