<?xml version="1.0" encoding="UTF-8"?>
<svg version="1.1" xmlns="http://www.w3.org/2000/svg" width="500" height="500">
<path d="M0 0 C0.81010025 -0.0049649 1.6202005 -0.00992981 2.45484924 -0.01504517 C5.13681893 -0.02965865 7.81872945 -0.03646765 10.50073242 -0.04199219 C12.36537172 -0.04774458 14.230011 -0.0535023 16.09465027 -0.05926514 C20.00613684 -0.06977299 23.91760286 -0.07561698 27.82910156 -0.07910156 C32.83606337 -0.08458397 37.84275293 -0.1086075 42.8496294 -0.13707352 C46.70241585 -0.15571722 50.55513696 -0.16090643 54.40796471 -0.16243744 C56.2535113 -0.16546089 58.09905683 -0.17347904 59.9445591 -0.18662262 C62.52965497 -0.20371838 65.11408895 -0.20179428 67.69921875 -0.1953125 C68.458396 -0.20452728 69.21757324 -0.21374207 69.99975586 -0.22323608 C74.76247848 -0.18591474 77.9999942 0.6421462 82.04370117 3.16113281 C86.35899606 7.82631648 87.17342552 11.09676876 87.10620117 17.34863281 C87.09717773 18.4353125 87.0881543 19.52199219 87.07885742 20.64160156 C87.06145508 21.88876953 87.06145508 21.88876953 87.04370117 23.16113281 C87.63795898 23.14542236 88.2322168 23.12971191 88.84448242 23.11352539 C91.57745571 23.05056712 94.31027573 23.01195186 97.04370117 22.97363281 C97.97827148 22.94849609 98.9128418 22.92335938 99.87573242 22.89746094 C107.04550756 22.82225351 112.62049104 23.56384004 118.50463867 28.02832031 C119.45209961 29.0221875 119.45209961 29.0221875 120.41870117 30.03613281 C121.06581055 30.69355469 121.71291992 31.35097656 122.37963867 32.02832031 C125.59408718 36.14824727 126.29298734 39.81575678 126.16870117 44.97363281 C126.1506543 45.94945312 126.13260742 46.92527344 126.11401367 47.93066406 C126.07920898 49.03474609 126.07920898 49.03474609 126.04370117 50.16113281 C126.90290161 50.15225037 127.76210205 50.14336792 128.64733887 50.13421631 C136.76810304 50.05386981 144.88873257 49.99306681 153.00980377 49.95388412 C157.18436218 49.93306219 161.35859051 49.9048443 165.53295898 49.859375 C169.5659863 49.81572316 173.59869731 49.79195518 177.63194275 49.78162384 C179.16606114 49.77426696 180.7001634 49.75990089 182.23414612 49.73821259 C191.48874607 49.61264054 198.68970613 49.63400959 206.06713867 55.87207031 C206.5131543 56.42121094 206.95916992 56.97035156 207.41870117 57.53613281 C208.11092773 58.35210937 208.11092773 58.35210937 208.81713867 59.18457031 C211.70900264 63.84470779 212.29496691 68.42425145 212.30820751 73.82056236 C212.31250317 74.46765063 212.31679883 75.1147389 212.32122466 75.78143591 C212.3331828 77.94676125 212.33101763 80.11183724 212.3289032 82.27719116 C212.33462345 83.84664345 212.34121214 85.41609277 212.34859401 86.98553813 C212.36633896 91.29650263 212.37169951 95.60740739 212.37503445 99.91840386 C212.38078485 104.56897649 212.39797075 109.21950862 212.41372681 113.87005615 C212.44277763 122.98261708 212.46121505 132.09517025 212.47606691 141.20776419 C212.49375425 151.82707401 212.52177971 162.44634897 212.55019913 173.06563456 C212.60056979 192.02469945 212.64131456 210.98377296 212.67675781 229.94287109 C212.71112073 248.32049774 212.75253362 266.69809066 212.80175781 285.07568359 C212.80478476 286.20609311 212.80781172 287.33650263 212.81093039 288.50116698 C212.81395243 289.62965708 212.81697447 290.75814718 212.82008809 291.92083395 C212.87608863 312.85743836 212.92521291 333.79405421 212.97128814 354.73068266 C212.9877191 362.12312656 213.00620691 369.51556368 213.02536583 376.90800095 C213.04862269 385.93167818 213.06792562 394.95535447 213.08239873 403.9790502 C213.08984954 408.57844007 213.09888275 413.17781109 213.11244774 417.77718735 C213.12483836 421.99798404 213.13232925 426.21876162 213.13610683 430.43957455 C213.13827814 431.95649714 213.14214088 433.47341859 213.14798709 434.99033146 C213.26882015 467.46010534 213.26882015 467.46010534 207.04370117 475.16113281 C201.64327691 479.7751795 196.82298932 482.2809977 189.67369747 482.2981472 C187.99150817 482.30575902 187.99150817 482.30575902 186.27533525 482.3135246 C185.03800962 482.31402236 183.80068399 482.31452012 182.52586365 482.31503296 C181.21545217 482.31941521 179.90504069 482.32379747 178.55491978 482.32831252 C174.90969807 482.34028321 171.2644896 482.34592763 167.61925209 482.35049367 C163.69064266 482.35644798 159.76204907 482.36805834 155.83345032 482.37878418 C146.34106473 482.40331351 136.84867389 482.41793683 127.35626635 482.43084425 C124.67511776 482.43455602 121.9939697 482.43852927 119.31282163 482.44259691 C102.66344261 482.46783507 86.01406277 482.48988834 69.36466885 482.50232506 C65.50759821 482.50525476 61.6505276 482.50821642 57.79345703 482.51123047 C56.83479868 482.51197652 55.87614034 482.51272257 54.88843174 482.51349123 C39.36272551 482.52614172 23.83713389 482.55936018 8.31148123 482.6010323 C-7.62861772 482.64346601 -23.56865804 482.66702182 -39.50881332 482.67224562 C-48.45848939 482.67565829 -57.40798643 482.68739625 -66.35760689 482.72034836 C-73.98062648 482.74836989 -81.60343033 482.75933904 -89.22649742 482.7481529 C-93.11441615 482.74297143 -97.00188326 482.74581908 -100.88973618 482.77061844 C-104.45369104 482.79316142 -108.01687121 482.79233298 -111.5808401 482.77341457 C-113.47117392 482.76930497 -115.36151281 482.78972325 -117.25172907 482.81120145 C-124.87440773 482.74049378 -130.57057519 481.4551125 -136.95629883 477.16113281 C-139.21020508 474.80957031 -139.21020508 474.80957031 -140.51879883 472.53613281 C-140.97383789 471.78074219 -141.42887695 471.02535156 -141.89770508 470.24707031 C-143.9379582 466.22679295 -144.08389397 463.05809034 -144.09051991 458.60141563 C-144.09287214 457.92867774 -144.09522437 457.25593985 -144.09764788 456.56281596 C-144.104343 454.29229869 -144.1038795 452.02183858 -144.10346985 449.75131226 C-144.10676816 448.11346589 -144.11049366 446.47562034 -144.11461133 444.83777583 C-144.12464326 440.3241018 -144.12835004 435.81044106 -144.13100064 431.29675746 C-144.13490017 426.43360118 -144.14447878 421.57045546 -144.1532135 416.70730591 C-144.17298821 404.9560952 -144.18304556 393.20488362 -144.19194129 381.45366043 C-144.19632269 375.92194273 -144.2016899 370.390226 -144.20693016 364.85850906 C-144.22394372 346.47326799 -144.23843823 328.08802751 -144.2456789 309.70277977 C-144.24758885 304.93027114 -144.24950917 300.15776252 -144.25146484 295.38525391 C-144.25219045 293.60594284 -144.25219045 293.60594284 -144.25293072 291.79068609 C-144.26123223 272.57194395 -144.28657064 253.35326403 -144.31904552 234.13454907 C-144.35210374 214.41004292 -144.37012656 194.68556841 -144.37332314 174.96103442 C-144.37548942 163.88364532 -144.38425533 152.80634695 -144.40978432 141.72898483 C-144.43147442 132.29546924 -144.43955005 122.86206641 -144.42981753 113.42852871 C-144.4252679 108.6152714 -144.42719763 103.80224681 -144.44657898 98.9890213 C-144.46417608 94.58082968 -144.46324103 90.17304114 -144.44768169 85.76484545 C-144.44530036 84.17191389 -144.44965639 82.57895467 -144.46151034 80.98606543 C-144.5863878 63.0941952 -144.5863878 63.0941952 -138.20625097 56.29656923 C-132.91472836 51.36414572 -128.20440694 49.90798648 -120.96289062 49.93408203 C-120.27941055 49.93378998 -119.59593048 49.93349792 -118.89173889 49.93319702 C-116.64619992 49.93458364 -114.40099816 49.95011294 -112.15551758 49.96582031 C-110.5932483 49.96955283 -109.03097668 49.97239867 -107.46870422 49.97439575 C-103.36694824 49.98201346 -99.26533503 50.00164585 -95.16363525 50.02380371 C-90.97410005 50.04430235 -86.78454166 50.05340605 -82.5949707 50.06347656 C-74.38201473 50.0848936 -66.16917457 50.11900693 -57.95629883 50.16113281 C-57.97478882 49.02659668 -57.97478882 49.02659668 -57.99365234 47.86914062 C-58.00323975 46.8775293 -58.01282715 45.88591797 -58.02270508 44.86425781 C-58.04119507 43.38940918 -58.04119507 43.38940918 -58.06005859 41.88476562 C-57.82470151 35.70678053 -54.19936602 32.04613094 -50.16333008 27.77441406 C-43.49782837 22.90210927 -36.89825946 22.76002146 -28.95629883 22.97363281 C-27.99079102 22.98716797 -27.0252832 23.00070313 -26.03051758 23.01464844 C-23.67184457 23.04967823 -21.31438112 23.09879197 -18.95629883 23.16113281 C-19.00850586 21.96617188 -19.00850586 21.96617188 -19.06176758 20.74707031 C-19.34068978 9.82925827 -19.34068978 9.82925827 -15.95629883 5.16113281 C-10.82370447 0.41348303 -6.75031823 0.0098607 0 0 Z M-2.95629883 17.16113281 C-2.95629883 24.75113281 -2.95629883 32.34113281 -2.95629883 40.16113281 C21.46370117 40.16113281 45.88370117 40.16113281 71.04370117 40.16113281 C71.04370117 32.57113281 71.04370117 24.98113281 71.04370117 17.16113281 C46.62370117 17.16113281 22.20370117 17.16113281 -2.95629883 17.16113281 Z M-41.95629883 43.16113281 C-41.95629883 55.04113281 -41.95629883 66.92113281 -41.95629883 79.16113281 C8.20370117 79.16113281 58.36370117 79.16113281 110.04370117 79.16113281 C110.04370117 67.28113281 110.04370117 55.40113281 110.04370117 43.16113281 C105.544438 39.1373359 105.544438 39.1373359 100.61791992 38.77050781 C99.42392578 38.78984375 99.42392578 38.78984375 98.20581055 38.80957031 C97.38918945 38.84308594 96.57256836 38.87660156 95.73120117 38.91113281 C94.47726562 38.93820313 94.47726562 38.93820313 93.19799805 38.96582031 C91.14606889 39.01272155 89.09473361 39.0844587 87.04370117 39.16113281 C87.01791992 40.05316406 86.99213867 40.94519531 86.96557617 41.86425781 C86.90885742 43.03472656 86.85213867 44.20519531 86.79370117 45.41113281 C86.74729492 46.57128906 86.70088867 47.73144531 86.65307617 48.92675781 C85.91049295 52.86816106 85.28188805 53.82519479 82.04370117 56.16113281 C78.97881232 56.75785371 75.95492158 56.70746402 72.84057617 56.67871094 C71.91007446 56.68572021 70.97957275 56.69272949 70.02087402 56.69995117 C66.94484624 56.71755743 63.86973833 56.70589888 60.79370117 56.69238281 C58.6566551 56.69507696 56.51961023 56.69895874 54.38256836 56.70397949 C49.9036085 56.70987812 45.4249677 56.70129965 40.94604492 56.68261719 C35.20227665 56.65982769 29.45925597 56.67294878 23.71551514 56.69690704 C19.3025956 56.71135502 14.88985357 56.70676357 10.47692871 56.69639587 C8.35900789 56.69372583 6.241071 56.69700805 4.12316895 56.70631409 C1.16395323 56.71646299 -1.79404862 56.70100142 -4.75317383 56.67871094 C-5.63017944 56.68680786 -6.50718506 56.69490479 -7.4107666 56.70324707 C-13.31920495 56.62071463 -13.31920495 56.62071463 -16.4934082 54.33093262 C-18.50728963 51.34388803 -18.56336228 48.98454642 -18.70629883 45.41113281 C-18.76301758 44.24066406 -18.81973633 43.07019531 -18.87817383 41.86425781 C-18.90395508 40.97222656 -18.92973633 40.08019531 -18.95629883 39.16113281 C-21.85314041 39.05283967 -24.74590902 38.97369327 -27.64379883 38.91113281 C-28.46041992 38.87761719 -29.27704102 38.84410156 -30.1184082 38.80957031 C-30.9144043 38.79667969 -31.71040039 38.78378906 -32.53051758 38.77050781 C-33.25843506 38.74956055 -33.98635254 38.72861328 -34.73632812 38.70703125 C-37.70693655 39.13908056 -37.70693655 39.13908056 -41.95629883 43.16113281 Z M-126.61422503 68.27850723 C-128.59613197 71.05867379 -128.33243148 73.25151152 -128.33382225 76.64390564 C-128.33818257 77.30831087 -128.3425429 77.9727161 -128.34703535 78.65725482 C-128.35804614 80.89955541 -128.34754306 83.14124808 -128.33724976 85.38354492 C-128.34070403 87.00092097 -128.34546704 88.61829467 -128.35143149 90.23566341 C-128.36400282 94.69257405 -128.35774338 99.14929301 -128.34847283 103.60620451 C-128.34170768 108.40790349 -128.35215094 113.20956864 -128.3604126 118.01126099 C-128.37377929 127.42270068 -128.37085915 136.83406875 -128.36217467 146.24551129 C-128.35541006 153.89177875 -128.3544761 161.53802607 -128.35774612 169.18429565 C-128.35820582 170.27096462 -128.35866552 171.35763359 -128.35913915 172.47723192 C-128.36009829 174.68451413 -128.36107093 176.89179634 -128.36205693 179.09907854 C-128.37061942 199.81543022 -128.36076322 220.53174213 -128.34465583 241.24808729 C-128.33125187 259.03845833 -128.33357972 276.82877065 -128.34741211 294.61914062 C-128.36345276 315.25942356 -128.36979537 335.89967161 -128.36057532 356.53995991 C-128.35961963 358.73929659 -128.35867652 360.93863328 -128.35774612 363.13796997 C-128.3572833 364.2201941 -128.35682047 365.30241822 -128.35634362 366.41743702 C-128.35374918 374.05791206 -128.35813449 381.69836504 -128.36518478 389.33883667 C-128.37358318 398.64516149 -128.37135473 407.95141036 -128.35534255 417.25772643 C-128.34743739 422.00943671 -128.34440628 426.76102019 -128.35429001 431.51272964 C-128.36319117 435.85764903 -128.35838023 440.20232338 -128.34235735 444.54722035 C-128.33899002 446.12388716 -128.34074706 447.70057444 -128.34798472 449.27722824 C-128.35703386 451.41123819 -128.34782692 453.54439549 -128.33382225 455.67835999 C-128.33333519 456.86639756 -128.33284814 458.05443514 -128.33234632 459.27847385 C-128.16739685 462.11968408 -128.16739685 462.11968408 -126.76564658 464.04253632 C-124.28878617 465.57381043 -122.53723987 465.53834261 -119.62921143 465.54144955 C-118.51736858 465.54988949 -117.40552574 465.55832943 -116.25999069 465.56702513 C-114.42018568 465.55801006 -114.42018568 465.55801006 -112.54321289 465.54881287 C-110.59468855 465.55689117 -110.59468855 465.55689117 -108.60680008 465.56513268 C-104.99359807 465.57964088 -101.3806231 465.57532597 -97.76740837 465.56796587 C-93.87368476 465.56324974 -89.98001139 465.57573015 -86.08630371 465.58598328 C-78.45556097 465.60320684 -70.82490044 465.604004 -63.1941433 465.59877037 C-56.99428852 465.59473431 -50.7944581 465.5961655 -44.59460449 465.60151863 C-43.71331226 465.60226705 -42.83202002 465.60301548 -41.92402196 465.60378658 C-40.13387775 465.605318 -38.34373354 465.60685635 -36.55358934 465.60840154 C-19.75443637 465.62213927 -2.95532992 465.6166798 13.843822 465.60521633 C29.22551728 465.59528091 44.60709232 465.6082277 59.98876905 465.63215052 C75.76951423 465.65650979 91.55020334 465.66615733 107.33096695 465.6594978 C116.19598131 465.65599872 125.06090313 465.65828295 133.92590332 465.67574883 C141.47189926 465.69043115 149.01773752 465.69115844 156.56373024 465.67367791 C160.41627848 465.66513289 164.26854456 465.663103 168.12107849 465.67832947 C172.29115556 465.69460743 176.46054456 465.68010464 180.63061523 465.66233826 C182.47042025 465.67674577 182.47042025 465.67674577 184.34739304 465.69144434 C185.45923588 465.68163005 186.57107872 465.67181576 187.71661377 465.66170406 C188.67985691 465.66159673 189.64310005 465.66148939 190.63553238 465.6613788 C193.13448956 465.35220847 193.13448956 465.35220847 194.85304892 463.54173481 C196.42096443 460.40682889 196.41978328 458.07648681 196.42122459 454.57092953 C196.42558492 453.90705883 196.42994524 453.24318813 196.43443769 452.55920014 C196.44542492 450.32473774 196.43495629 448.09088841 196.4246521 445.85643005 C196.4281073 444.24231574 196.43287093 442.62820379 196.43883383 441.0140968 C196.45139235 436.57084678 196.44515149 432.12778932 196.43587518 427.68453848 C196.42910488 422.89580881 196.43955582 418.10711292 196.44781494 413.31838989 C196.46117579 403.93449281 196.45826417 394.55066759 196.44957702 385.16676765 C196.44281052 377.54293066 196.44187926 369.91911386 196.44514847 362.29527473 C196.44560817 361.21151662 196.44606787 360.1277585 196.4465415 359.01115923 C196.44750064 356.80975555 196.44847328 354.60835188 196.44945927 352.40694822 C196.45801995 331.75020369 196.44816819 311.09349907 196.43205817 290.43676109 C196.41865249 272.6981365 196.42098384 254.95957079 196.43481445 237.22094727 C196.45085504 216.63815578 196.45719791 196.05539929 196.44797766 175.47260243 C196.44702198 173.27946 196.44607887 171.08631756 196.44514847 168.89317513 C196.44445423 167.27442758 196.44445423 167.27442758 196.44374596 165.62297807 C196.44115164 158.00453279 196.44553653 150.38610963 196.45258713 142.76766777 C196.46098536 133.48881546 196.45875734 124.21003933 196.4427449 114.93119579 C196.43483981 110.19365529 196.43180852 105.45624198 196.44169235 100.71870232 C196.45059356 96.38677553 196.44578253 92.0550945 196.4297597 87.7231902 C196.4263924 86.15126388 196.42814932 84.57931704 196.43538706 83.00740378 C196.44443637 80.87980059 196.43522912 78.75305256 196.42122459 76.62549496 C196.42073754 75.44103722 196.42025048 74.25657947 196.41974866 73.03622907 C196.27438419 70.17263488 196.27438419 70.17263488 194.70162737 68.2796579 C192.06324884 66.49966758 189.69620977 66.80286353 186.55273438 66.82055664 C185.89880707 66.82011856 185.24487976 66.81968048 184.57113647 66.81922913 C182.41194694 66.82131742 180.25353612 66.84464893 178.09448242 66.86816406 C176.59661788 66.87375991 175.09874785 66.87803006 173.60087585 66.88102722 C169.66011371 66.89247702 165.71968372 66.92194504 161.77905273 66.95513916 C157.75728855 66.98583733 153.73547065 66.999532 149.71362305 67.01464844 C141.82349673 67.04681488 133.93364028 67.09801254 126.04370117 67.16113281 C126.02968262 68.22025879 126.02968262 68.22025879 126.01538086 69.30078125 C125.96164459 72.50493826 125.8780036 75.70764039 125.79370117 78.91113281 C125.77952148 80.02230469 125.7653418 81.13347656 125.75073242 82.27832031 C125.71850586 83.34824219 125.6862793 84.41816406 125.65307617 85.52050781 C125.63212891 86.5050293 125.61118164 87.48955078 125.58959961 88.50390625 C124.87640253 91.97547916 123.83573367 92.99713197 121.04370117 95.16113281 C117.84526062 95.66449738 117.84526062 95.66449738 113.98388672 95.66906738 C112.9171864 95.67842733 112.9171864 95.67842733 111.82893658 95.68797636 C109.44576053 95.70393287 107.06360357 95.69129259 104.68041992 95.67871094 C102.97205 95.68413091 101.26368475 95.69125286 99.55532837 95.69995117 C94.91483244 95.71820243 90.27469183 95.71110961 85.63418961 95.69843483 C80.7806934 95.68831648 75.92722786 95.69769726 71.07373047 95.70397949 C62.92271455 95.7112593 54.77184354 95.70165946 46.62084961 95.68261719 C37.1935817 95.66084781 27.76665981 95.66789894 18.33940029 95.68992281 C10.24927271 95.70806732 2.15924936 95.71063978 -5.93089199 95.70016813 C-10.76450206 95.69392798 -15.59794942 95.6931119 -20.43154907 95.70631409 C-24.97559452 95.71785818 -29.51919333 95.70987339 -34.06319046 95.68673706 C-35.73211551 95.68144223 -37.40107806 95.68297697 -39.06998825 95.69178772 C-41.34599655 95.70269688 -43.62056799 95.6890378 -45.89648438 95.66906738 C-47.17073776 95.66755928 -48.44499115 95.66605118 -49.75785828 95.66449738 C-53.51954791 95.07248973 -54.70477038 94.1779989 -56.95629883 91.16113281 C-57.50219727 88.50390625 -57.50219727 88.50390625 -57.56567383 85.52050781 C-57.59790039 84.45058594 -57.63012695 83.38066406 -57.66333008 82.27832031 C-57.67750977 81.16714844 -57.69168945 80.05597656 -57.70629883 78.91113281 C-57.73594727 77.78449219 -57.7655957 76.65785156 -57.79614258 75.49707031 C-57.86678794 72.7183526 -57.9195116 69.94047133 -57.95629883 67.16113281 C-66.64016133 67.09166107 -75.32392836 67.03833611 -84.008008 67.0056963 C-88.04026916 66.99003179 -92.07234036 66.96877951 -96.10449219 66.93481445 C-99.99483803 66.90224852 -103.88500103 66.88428571 -107.77547264 66.87650108 C-109.26067166 66.87095256 -110.74586053 66.8601177 -112.23098183 66.84394264 C-114.30931955 66.8222043 -116.38689914 66.81916425 -118.46533203 66.82055664 C-120.24071098 66.81056389 -120.24071098 66.81056389 -122.05195618 66.80036926 C-124.88248743 66.92959918 -124.88248743 66.92959918 -126.61422503 68.27850723 Z " fill="#151515" transform="translate(215.956298828125,8.8388671875)"/>
<path d="M0 0 C15.75399349 13.54217454 26.35077531 32.20843718 28.18457031 53.10302734 C29.49264669 74.20634583 23.54024494 94.43210534 9.46484375 110.48046875 C-5.72297452 126.00525921 -24.91271133 136.73662183 -47.08544922 137.02734375 C-66.61516603 136.78018801 -84.19389866 131.01819477 -99 118 C-99.80695313 117.35804688 -100.61390625 116.71609375 -101.4453125 116.0546875 C-114.21619854 105.47086451 -123.39719572 88.61523212 -125.75 72.12109375 C-127.50990292 50.14980568 -123.83092458 30.34327985 -110.0625 12.5625 C-108.73069974 11.02204245 -107.37672359 9.50044445 -106 8 C-105.33613281 7.24460938 -104.67226562 6.48921875 -103.98828125 5.7109375 C-77.01709028 -23.30428088 -30.12958169 -24.31625621 0 0 Z M-93 18 C-104.99812271 32.35289446 -110.42491374 48.30044703 -109 67 C-107.78464296 75.42270693 -105.2130165 82.62305807 -101 90 C-100.01 89.01 -100.01 89.01 -99 88 C-98.53722656 87.54367188 -98.07445312 87.08734375 -97.59765625 86.6171875 C-96.47516283 85.48097166 -95.38087491 84.31653165 -94.30859375 83.1328125 C-88.93385696 77.36534963 -82.92902443 73.6954797 -76 70 C-76.39832031 69.32195312 -76.79664063 68.64390625 -77.20703125 67.9453125 C-83.84822643 56.27878472 -86.98832458 46.67784467 -83.4375 33.5 C-80.09634507 23.48821757 -74.29898924 16.92578038 -65 12 C-56.1225679 7.60292294 -45.52466984 7.52431851 -36.1875 10.5625 C-27.20628555 14.33989314 -20.35640814 20.23133234 -16 29 C-12.08692125 39.25700946 -11.65986355 48.82532115 -16 59 C-17.49310965 61.49231535 -19.07435103 63.84583109 -20.79296875 66.1875 C-22.18476206 67.9145034 -22.18476206 67.9145034 -22 70 C-20.20522381 71.10677865 -18.36141865 72.13439354 -16.5 73.125 C-10.68608254 76.41202047 -6.45472935 80.08230801 -2 85 C-1.00609368 86.00605677 -0.00698786 87.00703704 1 88 C1.66 88.66 2.32 89.32 3 90 C11.17307762 75.68903799 13.26690116 60.3061278 9.375 44.25 C4.29115808 27.20313147 -6.27027894 13.94964798 -21.93359375 5.3984375 C-45.54155467 -5.79979084 -74.88692009 -1.36095389 -93 18 Z M-64.25 31.3125 C-67.94501025 35.96763102 -69.22950639 39.86369447 -69 45.8125 C-68.154125 52.25865084 -65.28835633 57.38762271 -60.17578125 61.44921875 C-55.03309625 64.42217052 -49.81563573 64.87975381 -44 64 C-37.86870395 62.35846507 -34.36072924 58.86713554 -31.1328125 53.49609375 C-28.65746787 48.0417999 -28.24869775 42.56776029 -29.9375 36.8125 C-32.0054209 32.08032751 -35.82558224 28.90357687 -40 26 C-48.98208333 23.00597222 -57.80485742 24.34311137 -64.25 31.3125 Z M-84.94921875 97.359375 C-86.35568404 99.20843426 -87.70676128 101.07065606 -89 103 C-86.1853654 110.0365865 -77.64933708 112.83980227 -71.125 115.75 C-57.2682615 121.21512587 -41.97037102 121.54773807 -27.9609375 116.30859375 C-17.61324737 111.94881131 -17.61324737 111.94881131 -9 105 C-10.5271624 99.57008925 -14.19102439 95.97322301 -18 92 C-18.51433594 91.44828125 -19.02867187 90.8965625 -19.55859375 90.328125 C-28.62264481 81.55792098 -39.86451566 80.25561714 -51.89575195 80.4128418 C-66.07478291 80.98478344 -75.85527667 86.35187797 -84.94921875 97.359375 Z " fill="#1A1A1A" transform="translate(299,139)"/>
<path d="M0 0 C0.75772176 -0.00367669 1.51544352 -0.00735338 2.29612654 -0.01114148 C4.84868483 -0.02220151 7.40120244 -0.02602606 9.95378113 -0.02983093 C11.77845388 -0.03609379 13.60312535 -0.04274043 15.42779541 -0.04974365 C20.39479199 -0.06716891 25.36177894 -0.07770939 30.32879853 -0.08594918 C33.43012488 -0.09109569 36.53144822 -0.09717155 39.63277245 -0.10346031 C49.33065254 -0.12251592 59.028525 -0.13674675 68.72642022 -0.14507228 C79.93126972 -0.15484963 91.13592192 -0.18118063 102.34070188 -0.22157317 C110.99467827 -0.25170271 119.648598 -0.26653811 128.30262583 -0.26985329 C133.47447146 -0.27220724 138.6461064 -0.28121238 143.81789589 -0.30631447 C148.68277936 -0.32954516 153.54731268 -0.33384862 158.41223717 -0.32355309 C160.19847654 -0.32305641 161.98473285 -0.32941561 163.7709198 -0.34310913 C166.20862338 -0.36075278 168.64506009 -0.3537599 171.08276367 -0.34057617 C171.79055161 -0.35154542 172.49833954 -0.36251466 173.2275756 -0.37381631 C176.70167678 -0.32841672 178.6508692 0.09694257 181.6278944 1.94328022 C184.33438 4.77831059 184.93072359 7.3599935 185.7318573 11.14717102 C185.0718573 11.14717102 184.4118573 11.14717102 183.7318573 11.14717102 C183.5771698 12.07529602 183.5771698 12.07529602 183.4193573 13.02217102 C182.7318573 15.14717102 182.7318573 15.14717102 179.7318573 17.14717102 C177.2073999 17.34664461 174.79260308 17.42980315 172.26753235 17.42132568 C171.50078906 17.42656236 170.73404577 17.43179904 169.94406784 17.43719441 C167.36693102 17.45223307 164.78999207 17.4529004 162.21281433 17.4535675 C160.36828779 17.46118638 158.52376444 17.4696134 156.679245 17.47879028 C151.66271189 17.50076856 146.64623976 17.50953861 141.62966394 17.51461673 C138.4970022 17.51825625 135.36435653 17.52449418 132.2317009 17.53161812 C121.30710394 17.5561238 110.38255455 17.56916701 99.45793152 17.57270813 C89.26781751 17.57634468 79.07800447 17.60624579 68.88798249 17.64811271 C60.14480589 17.68277834 51.40172922 17.69825592 42.65848434 17.69895416 C37.43407888 17.69974823 32.20997987 17.7085462 26.98564529 17.73695183 C22.07225106 17.76306873 17.15941872 17.76537342 12.24598694 17.74929619 C10.44200799 17.74747663 8.6379972 17.75421801 6.83408737 17.7701149 C4.37210529 17.79048939 1.9121052 17.78007641 -0.54985046 17.76190186 C-1.26473818 17.77510182 -1.97962589 17.78830179 -2.71617687 17.80190176 C-6.53779708 17.73740734 -8.17343041 17.22159034 -11.21537971 14.83140659 C-13.2681427 12.14717102 -13.2681427 12.14717102 -13.8306427 8.58467102 C-13.18943081 4.66615391 -12.37315051 3.52158876 -9.2681427 1.14717102 C-6.29433654 -0.33973206 -3.26115229 -0.0008415 0 0 Z " fill="#0E0E0E" transform="translate(198.2681427001953,429.8528289794922)"/>
<path d="M0 0 C1.1575219 -0.01041829 1.1575219 -0.01041829 2.33842808 -0.02104706 C4.92651925 -0.03935652 7.51369785 -0.02904216 10.1018219 -0.01878357 C11.9563516 -0.02584008 13.81087553 -0.03458397 15.66539001 -0.04489136 C20.70467843 -0.06742553 25.74365338 -0.06443616 30.78297305 -0.05556989 C34.98789963 -0.05046578 39.19276701 -0.05774789 43.39768749 -0.06504196 C53.31653346 -0.08205387 63.23522563 -0.07846221 73.15406799 -0.06175232 C83.39137659 -0.04482907 93.62825886 -0.0606655 103.86552089 -0.0929752 C112.65120173 -0.11965447 121.43674972 -0.12695161 130.22246701 -0.11846012 C135.47142023 -0.11352612 140.72011689 -0.11577211 145.96903801 -0.13624763 C150.90464744 -0.15457859 155.83964272 -0.14867768 160.77521896 -0.12404823 C162.58724599 -0.11903213 164.39931959 -0.1225508 166.21130943 -0.13519669 C168.68422547 -0.15109061 171.15511008 -0.13621319 173.62792969 -0.11352539 C174.34602623 -0.12536112 175.06412277 -0.13719685 175.80397981 -0.14939123 C179.65580921 -0.07753187 181.27598854 0.43375032 184.32664585 2.86642551 C186.37745667 5.5146637 186.37745667 5.5146637 186.93995667 8.5146637 C186.2495181 12.19700273 185.00931739 13.88280297 182.37745667 16.5146637 C178.86869852 17.68424975 175.7149613 17.65959934 172.06498718 17.65510559 C171.3145781 17.65807671 170.56416902 17.66104784 169.79102027 17.66410899 C167.2692027 17.67280079 164.74743257 17.67430464 162.2256012 17.67579651 C160.42048542 17.6804243 158.61537062 17.6854489 156.81025696 17.69084167 C151.90116491 17.7039704 146.99208654 17.71041141 142.08297968 17.71485233 C139.01732734 17.71778195 135.95167875 17.72188652 132.88602829 17.72635651 C123.2981401 17.74003192 113.71026047 17.74969868 104.12236321 17.7535584 C93.04717025 17.75804113 81.97210058 17.77559881 70.89694512 17.80455899 C62.34061145 17.82615778 53.78431253 17.83626169 45.22795188 17.83759952 C40.11540673 17.83864872 35.00297747 17.84458127 29.89046097 17.86241913 C25.08223904 17.87886892 20.27422052 17.88107038 15.46598053 17.87228012 C13.70070985 17.87150812 11.93542837 17.87587389 10.17018509 17.88573837 C7.76117759 17.89841148 5.35289557 17.89260672 2.94389343 17.88215637 C1.89490755 17.89424098 1.89490755 17.89424098 0.82473004 17.90656972 C-4.65683211 17.85091508 -7.79169859 16.34550844 -11.62254333 12.5146637 C-12.30722323 5.43963808 -12.30722323 5.43963808 -10.0701437 2.41743565 C-6.78651257 -0.13526916 -3.99134041 -0.04566217 0 0 Z " fill="#212121" transform="translate(196.62254333496094,307.48533630371094)"/>
<path d="M0 0 C0.75772176 -0.00367669 1.51544352 -0.00735338 2.29612654 -0.01114148 C4.84868483 -0.02220151 7.40120244 -0.02602606 9.95378113 -0.02983093 C11.77845388 -0.03609379 13.60312535 -0.04274043 15.42779541 -0.04974365 C20.39479199 -0.06716891 25.36177894 -0.07770939 30.32879853 -0.08594918 C33.43012488 -0.09109569 36.53144822 -0.09717155 39.63277245 -0.10346031 C49.33065254 -0.12251592 59.028525 -0.13674675 68.72642022 -0.14507228 C79.93126972 -0.15484963 91.13592192 -0.18118063 102.34070188 -0.22157317 C110.99467827 -0.25170271 119.648598 -0.26653811 128.30262583 -0.26985329 C133.47447146 -0.27220724 138.6461064 -0.28121238 143.81789589 -0.30631447 C148.68277936 -0.32954516 153.54731268 -0.33384862 158.41223717 -0.32355309 C160.19847654 -0.32305641 161.98473285 -0.32941561 163.7709198 -0.34310913 C166.20862338 -0.36075278 168.64506009 -0.3537599 171.08276367 -0.34057617 C171.79055161 -0.35154542 172.49833954 -0.36251466 173.2275756 -0.37381631 C176.71863626 -0.32819509 178.65548185 0.09954518 181.6435194 1.96281147 C184.53717255 4.98951462 184.80459691 7.00101327 184.7318573 11.14717102 C183.20715332 13.83056545 183.20715332 13.83056545 180.7318573 16.14717102 C177.97231679 16.64846183 175.82313935 16.8203995 173.06462097 16.77536011 C172.28815059 16.78245449 171.5116802 16.78954888 170.71168041 16.79685825 C168.10722693 16.81447475 165.50425868 16.79631595 162.89982605 16.77827454 C161.03382181 16.78341198 159.16782242 16.79069194 157.30183411 16.79995728 C152.23153407 16.81850176 147.16175859 16.80551345 142.09148026 16.78586698 C136.78955199 16.76950433 131.48765758 16.77829004 126.18571472 16.78338623 C117.2814138 16.78790985 108.37732276 16.77202065 99.47306824 16.74409485 C89.17329604 16.71204179 78.87390244 16.71205784 68.57410336 16.72930962 C58.67275169 16.74516426 48.77153905 16.73844797 38.87019348 16.7213726 C34.6533387 16.71449358 30.43659507 16.71554329 26.21974182 16.72291756 C21.25545568 16.73056935 16.29160124 16.71849042 11.32738876 16.69106865 C9.5036637 16.68417211 7.67989842 16.68410039 5.85617447 16.69128418 C3.36999638 16.69995015 0.88515936 16.68407258 -1.60090637 16.66183472 C-2.3258067 16.67007548 -3.05070704 16.67831625 -3.79757404 16.68680674 C-7.15899947 16.63115919 -8.98356929 16.35797992 -11.71609497 14.33375454 C-13.98873127 11.1319786 -13.8149379 8.97473741 -13.2681427 5.14717102 C-9.3320315 0.16143017 -6.01209204 -0.00155134 0 0 Z " fill="#111111" transform="translate(198.2681427001953,368.8528289794922)"/>
<path d="M0 0 C1.17755859 0.11408203 1.17755859 0.11408203 2.37890625 0.23046875 C4.4375 0.8125 4.4375 0.8125 6.4375 3.8125 C7.32971562 10.33044161 7.32971562 10.33044161 5.32666016 13.65771484 C3.72131261 15.54836427 2.03185267 17.27471778 0.25 19 C-0.37696777 19.63639404 -1.00393555 20.27278809 -1.64990234 20.9284668 C-2.95481746 22.24826626 -4.26843292 23.55951659 -5.59033203 24.86230469 C-7.5012744 26.75195654 -9.37759615 28.67002517 -11.24609375 30.6015625 C-12.39222152 31.77702501 -13.53931481 32.95154709 -14.6875 34.125 C-15.21883545 34.66987061 -15.7501709 35.21474121 -16.29760742 35.77612305 C-19.78160575 39.26459019 -22.28399683 41.76071584 -27.3125 41.875 C-32.09754382 40.31065875 -35.04228423 37.32571733 -38.5625 33.8125 C-39.15933594 33.22726562 -39.75617188 32.64203125 -40.37109375 32.0390625 C-43.99465376 28.19826268 -45.66416407 25.30235955 -45.5625 19.8125 C-44.21687601 16.86494268 -43.47695456 15.26972728 -40.5625 13.8125 C-37.33683916 13.28739242 -35.35044565 13.27088606 -32.61328125 15.15234375 C-30.87037573 16.65484851 -29.1942288 18.1904264 -27.5625 19.8125 C-24.33844239 18.39843181 -22.22692424 16.70252371 -19.77734375 14.1875 C-19.08189453 13.48109375 -18.38644531 12.7746875 -17.66992188 12.046875 C-16.95384766 11.30953125 -16.23777344 10.5721875 -15.5 9.8125 C-14.07390161 8.35193012 -12.64560516 6.89350233 -11.21484375 5.4375 C-10.58570068 4.79039062 -9.95655762 4.14328125 -9.30834961 3.4765625 C-6.1149044 0.43271932 -4.3129697 -0.49027168 0 0 Z " fill="#202020" transform="translate(162.5625,289.1875)"/>
<path d="M0 0 C3.43725527 2.11523401 3.91034971 3.6593289 4.9375 7.5625 C4.68139477 13.29285456 -0.18052193 16.71196829 -4.12109375 20.3359375 C-6.47467143 22.51387506 -8.56422159 24.67934808 -10.625 27.125 C-23.00702247 41.46207865 -23.00702247 41.46207865 -30 42 C-34.54664071 39.82652142 -37.77561117 36.49278759 -41.25 32.9375 C-41.79140625 32.39544922 -42.3328125 31.85339844 -42.890625 31.29492188 C-47.85879313 26.27086186 -47.85879313 26.27086186 -48.3125 22.1875 C-47.91378388 18.1205956 -47.11416229 16.64703795 -44 14 C-39.09208401 13.12924071 -39.09208401 13.12924071 -36 14 C-33.55247174 15.79175592 -31.96640403 17.64031516 -30 20 C-26.51675266 18.54350941 -24.65221544 16.69615118 -22.25 13.8125 C-9.47089008 -0.9969358 -9.47089008 -0.9969358 0 0 Z " fill="#1D1D1D" transform="translate(165,412)"/>
<path d="M0 0 C3.88265681 0.72799815 5.46228253 1.50231129 8 4.5625 C8.79139969 8.33416311 8.86216461 12.01913163 6.95285034 15.43701172 C5.43767731 17.26290803 3.83852126 18.89417931 2.12109375 20.53125 C1.51620621 21.13763306 0.91131866 21.74401611 0.2881012 22.36877441 C-0.98998865 23.6398722 -2.27909943 24.89997361 -3.57836914 26.14941406 C-5.55890589 28.05903459 -7.49627315 30.00566338 -9.43164062 31.9609375 C-10.68253673 33.195104 -11.93571975 34.42695776 -13.19140625 35.65625 C-14.05591148 36.52485657 -14.05591148 36.52485657 -14.93788147 37.41101074 C-18.7726608 41.04998784 -21.50469717 42.48664017 -27 42.5625 C-33.57989013 39.41559603 -41.41583088 32.46751105 -44 25.5625 C-43.87085587 21.88189225 -43.77859391 19.4908235 -41.375 16.625 C-37.90320322 15.07182776 -35.77661877 14.98640561 -32 15.5625 C-29.96304563 16.97933318 -28.24399253 18.50665384 -26.48046875 20.25 C-25.08032253 21.78362763 -25.08032253 21.78362763 -23 21.5625 C-23 20.9025 -23 20.2425 -23 19.5625 C-21.49609375 18.08203125 -21.49609375 18.08203125 -19.4375 16.375 C-16.62337506 13.983491 -13.91553035 11.55773099 -11.3125 8.9375 C-10.74273437 8.36644531 -10.17296875 7.79539062 -9.5859375 7.20703125 C-8.15572572 5.72397913 -6.79189491 4.17759904 -5.4375 2.625 C-3 0.5625 -3 0.5625 0 0 Z " fill="#1A1A1A" transform="translate(161,349.4375)"/>
<path d="M0 0 C0.75983846 -0.00226556 1.51967691 -0.00453111 2.30254078 -0.00686532 C4.86210947 -0.01322226 7.42162544 -0.01237488 9.98120117 -0.0115509 C11.81074085 -0.0145413 13.6402799 -0.01794355 15.46981812 -0.02172852 C20.44901738 -0.03058393 25.42819948 -0.03290725 30.40740585 -0.0335443 C34.55781773 -0.034492 38.70822557 -0.03816862 42.8586359 -0.0417164 C52.64591233 -0.04986649 62.43317955 -0.05230009 72.22045898 -0.05158997 C82.33268197 -0.05098872 92.44485169 -0.06154854 102.5570612 -0.07733363 C111.22627801 -0.09038635 119.89547737 -0.09577483 128.56470394 -0.09513456 C133.74812121 -0.09487894 138.93149115 -0.09776514 144.11489868 -0.10831261 C148.98708666 -0.11795577 153.85918168 -0.11809894 158.73137283 -0.11079597 C160.52369954 -0.10974546 162.31603193 -0.11214042 164.10834885 -0.11815643 C166.54679041 -0.12581374 168.98490588 -0.12127361 171.42333984 -0.11352539 C172.1398663 -0.11866895 172.85639277 -0.12381252 173.59463215 -0.12911195 C178.48339847 -0.09455868 178.48339847 -0.09455868 180.71166992 2.13371277 C179.74645542 2.13517933 178.78124092 2.13664589 177.7867775 2.13815689 C154.31858114 2.17472548 130.85052778 2.23414029 107.3824501 2.31761551 C96.03352872 2.35745242 84.68467715 2.38982125 73.33569336 2.40470886 C63.44578885 2.41770129 53.55603765 2.44460417 43.66621947 2.48832583 C38.42790885 2.51099493 33.18978768 2.52662019 27.95142365 2.52559662 C23.02329703 2.52485322 18.0955901 2.54267476 13.16757202 2.5748806 C11.35675723 2.58341584 9.54589556 2.58510509 7.73506927 2.57951546 C5.26618317 2.57290829 2.79864529 2.59071566 0.32989502 2.61473083 C-0.74987535 2.60309021 -0.74987535 2.60309021 -1.85145926 2.59121442 C-5.2306967 2.64957537 -7.02559952 2.93898479 -9.77228165 4.97474289 C-11.59982936 7.11245923 -11.59982936 7.11245923 -11.16333008 10.19621277 C-10.40014397 13.28458494 -10.40014397 13.28458494 -8.28833008 16.13371277 C-12.16333008 14.38371277 -12.16333008 14.38371277 -13.28833008 12.13371277 C-13.86844058 5.8685194 -13.86844058 5.8685194 -11.41333008 2.75871277 C-7.61811071 -0.1435138 -4.61884367 -0.00998254 0 0 Z " fill="#9A9A9A" transform="translate(198.288330078125,429.8662872314453)"/>
<path d="M0 0 C0.66 0.33 1.32 0.66 2 1 C0.23598822 2.98563635 -1.53561883 4.96343656 -3.3125 6.9375 C-3.81201172 7.50146484 -4.31152344 8.06542969 -4.82617188 8.64648438 C-8.66015625 12.88671875 -8.66015625 12.88671875 -12 14 C-10.41332422 10.09714233 -7.86649519 7.66479018 -4.875 4.75 C-3.96492187 3.85796875 -3.05484375 2.9659375 -2.1171875 2.046875 C-1.41851562 1.37140625 -0.71984375 0.6959375 0 0 Z " fill="#767676" transform="translate(202,138)"/>
<path d="M0 0 C-0.57889381 3.28754511 -1.54828411 4.93672495 -3.9375 7.25 C-4.46214844 7.77078125 -4.98679688 8.2915625 -5.52734375 8.828125 C-7 10 -7 10 -9 10 C-7.6834994 5.81113445 -4.97532335 0 0 0 Z " fill="#6B6B6B" transform="translate(228,155)"/>
<path d="M0 0 C0.66 0.33 1.32 0.66 2 1 C0.92492371 2.29854721 -0.16043736 3.58858361 -1.25 4.875 C-1.85328125 5.59429687 -2.4565625 6.31359375 -3.078125 7.0546875 C-4.97087634 8.97052118 -6.53657727 9.96449045 -9 11 C-7.59155282 7.78475695 -5.89655214 5.67816132 -3.375 3.25 C-2.74335938 2.63640625 -2.11171875 2.0228125 -1.4609375 1.390625 C-0.73777344 0.70226562 -0.73777344 0.70226562 0 0 Z " fill="#7C7C7C" transform="translate(211,215)"/>
<path d="M0 0 C-0.309375 0.598125 -0.61875 1.19625 -0.9375 1.8125 C-2.10209704 4.08956772 -2.10209704 4.08956772 -3 7 C-5.5625 8.1875 -5.5625 8.1875 -8 9 C-6.68994234 5.06982701 -4.75047804 0 0 0 Z " fill="#646464" transform="translate(82,63)"/>
<path d="M0 0 C0.99 0.66 1.98 1.32 3 2 C3 2.66 3 3.32 3 4 C2.01 4 1.02 4 0 4 C0 4.66 0 5.32 0 6 C-1.98 6.99 -1.98 6.99 -4 8 C-4.66 7.34 -5.32 6.68 -6 6 C-5.01 5.38125 -4.02 4.7625 -3 4.125 C-2.01 3.42375 -1.02 2.7225 0 2 C0 1.34 0 0.68 0 0 Z " fill="#8F8F8F" transform="translate(222,206)"/>
<path d="M0 0 C-1.44253657 3.36591866 -3.33264727 5.51047079 -6 8 C-6.66 7.34 -7.32 6.68 -8 6 C-7.0479279 4.99403703 -6.08812654 3.99538437 -5.125 3 C-4.59132812 2.443125 -4.05765625 1.88625 -3.5078125 1.3125 C-2 0 -2 0 0 0 Z " fill="#585858" transform="translate(158,413)"/>
<path d="M0 0 C0.99 0.99 1.98 1.98 3 3 C2.8125 6.625 2.8125 6.625 2 10 C1.01 10.495 1.01 10.495 0 11 C0 7.37 0 3.74 0 0 Z " fill="#616161" transform="translate(380,372)"/>
<path d="" fill="#FFFFFF" transform="translate(0,0)"/>
<path d="" fill="#FFFFFF" transform="translate(0,0)"/>
<path d="" fill="#FFFFFF" transform="translate(0,0)"/>
<path d="" fill="#FFFFFF" transform="translate(0,0)"/>
<path d="" fill="#FFFFFF" transform="translate(0,0)"/>
<path d="" fill="#FFFFFF" transform="translate(0,0)"/>
<path d="" fill="#FFFFFF" transform="translate(0,0)"/>
<path d="" fill="#FFFFFF" transform="translate(0,0)"/>
<path d="" fill="#FFFFFF" transform="translate(0,0)"/>
<path d="" fill="#FFFFFF" transform="translate(0,0)"/>
<path d="" fill="#FFFFFF" transform="translate(0,0)"/>
<path d="" fill="#FFFFFF" transform="translate(0,0)"/>
<path d="" fill="#FFFFFF" transform="translate(0,0)"/>
<path d="" fill="#FFFFFF" transform="translate(0,0)"/>
<path d="" fill="#FFFFFF" transform="translate(0,0)"/>
<path d="" fill="#FFFFFF" transform="translate(0,0)"/>
<path d="" fill="#FFFFFF" transform="translate(0,0)"/>
<path d="" fill="#FFFFFF" transform="translate(0,0)"/>
<path d="" fill="#FFFFFF" transform="translate(0,0)"/>
<path d="" fill="#FFFFFF" transform="translate(0,0)"/>
<path d="" fill="#FFFFFF" transform="translate(0,0)"/>
<path d="" fill="#FFFFFF" transform="translate(0,0)"/>
<path d="" fill="#FFFF00" transform="translate(0,0)"/>
<path d="" fill="#FFFFFF" transform="translate(0,0)"/>
<path d="" fill="#FFFFFF" transform="translate(0,0)"/>
<path d="" fill="#FFFFFF" transform="translate(0,0)"/>
<path d="" fill="#FFFFFF" transform="translate(0,0)"/>
<path d="" fill="#FFFFFF" transform="translate(0,0)"/>
<path d="" fill="#FFFFFF" transform="translate(0,0)"/>
<path d="" fill="#FFFFFF" transform="translate(0,0)"/>
<path d="" fill="#FFFFFF" transform="translate(0,0)"/>
<path d="" fill="#FFFFFF" transform="translate(0,0)"/>
<path d="" fill="#FFFFFF" transform="translate(0,0)"/>
<path d="" fill="#FFFFFF" transform="translate(0,0)"/>
<path d="" fill="#FFFFFF" transform="translate(0,0)"/>
<path d="" fill="#FFFFFF" transform="translate(0,0)"/>
<path d="" fill="#FFFFFF" transform="translate(0,0)"/>
<path d="" fill="#FFFFFF" transform="translate(0,0)"/>
<path d="" fill="#FFFFFF" transform="translate(0,0)"/>
<path d="" fill="#FFFFFF" transform="translate(0,0)"/>
<path d="" fill="#FFFFFF" transform="translate(0,0)"/>
<path d="" fill="#FFFFFF" transform="translate(0,0)"/>
<path d="" fill="#FFFFFF" transform="translate(0,0)"/>
<path d="" fill="#FFFFFF" transform="translate(0,0)"/>
<path d="" fill="#FFFFFF" transform="translate(0,0)"/>
<path d="" fill="#FFFFFF" transform="translate(0,0)"/>
<path d="" fill="#FFFFFF" transform="translate(0,0)"/>
<path d="" fill="#FFFFFF" transform="translate(0,0)"/>
<path d="" fill="#FFFFFF" transform="translate(0,0)"/>
<path d="" fill="#FFFFFF" transform="translate(0,0)"/>
<path d="" fill="#FFFFFF" transform="translate(0,0)"/>
<path d="" fill="#FFFFFF" transform="translate(0,0)"/>
<path d="" fill="#FFFFFF" transform="translate(0,0)"/>
<path d="" fill="#FFFFFF" transform="translate(0,0)"/>
<path d="" fill="#FFFFFF" transform="translate(0,0)"/>
<path d="" fill="#FFFFFF" transform="translate(0,0)"/>
<path d="" fill="#FFFFFF" transform="translate(0,0)"/>
<path d="" fill="#FFFFFF" transform="translate(0,0)"/>
<path d="" fill="#FFFFFF" transform="translate(0,0)"/>
<path d="" fill="#FFFFFF" transform="translate(0,0)"/>
<path d="" fill="#FFFFFF" transform="translate(0,0)"/>
<path d="" fill="#FFFFFF" transform="translate(0,0)"/>
<path d="" fill="#FFFFFF" transform="translate(0,0)"/>
<path d="" fill="#FFFFFF" transform="translate(0,0)"/>
<path d="" fill="#FFFFFF" transform="translate(0,0)"/>
<path d="" fill="#FFFFFF" transform="translate(0,0)"/>
<path d="" fill="#FFFFFF" transform="translate(0,0)"/>
<path d="" fill="#FFFFFF" transform="translate(0,0)"/>
<path d="" fill="#FFFFFF" transform="translate(0,0)"/>
<path d="" fill="#FFFFFF" transform="translate(0,0)"/>
<path d="" fill="#FFFFFF" transform="translate(0,0)"/>
<path d="" fill="#FFFFFF" transform="translate(0,0)"/>
<path d="" fill="#FFFFFF" transform="translate(0,0)"/>
<path d="" fill="#FFFFFF" transform="translate(0,0)"/>
<path d="" fill="#FFFFFF" transform="translate(0,0)"/>
<path d="" fill="#FFFFFF" transform="translate(0,0)"/>
</svg>
