<?xml version="1.0" encoding="UTF-8"?>
<svg version="1.1" xmlns="http://www.w3.org/2000/svg" width="225" height="225">
<path d="M0 0 C10.36842244 8.88050684 17.22115362 19.40904927 19.3984375 33.02734375 C20.3934176 48.52607226 17.03559648 61.66184798 6.9609375 73.65234375 C-3.08086495 84.15532528 -15.50405097 89.64338967 -30.1015625 90.1484375 C-42.89806021 89.70570153 -54.17525793 85.73724917 -63.6015625 77.02734375 C-64.22546875 76.49367188 -64.849375 75.96 -65.4921875 75.41015625 C-74.79975862 66.95240684 -79.77003574 54.37065904 -80.6015625 41.984375 C-80.6015625 27.67798833 -75.96014078 15.76406883 -66.6015625 5.02734375 C-54.83918626 -5.97265625 -54.83918626 -5.97265625 -48.6015625 -5.97265625 C-48.2715625 -6.63265625 -47.9415625 -7.29265625 -47.6015625 -7.97265625 C-31.46584121 -12.96118077 -13.45494968 -10.20232671 0 0 Z " fill="#000000" transform="translate(138.6015625,16.97265625)"/>
<path d="M0 0 C1.84078125 -0.00580078 1.84078125 -0.00580078 3.71875 -0.01171875 C9.49538182 -0.00546698 15.0641408 0.06520968 20.75 1.125 C18.91508812 5.86518901 16.83058541 10.48913251 14.75 15.125 C13.55503906 15.12757813 12.36007813 15.13015625 11.12890625 15.1328125 C-0.49919108 15.13956125 -0.49919108 15.13956125 -10.61328125 20.26171875 C-15.10278067 25.37267633 -16.98766794 31.14804237 -16.6328125 37.92578125 C-15.71451981 43.20127908 -13.34835946 47.42397649 -9.375 51 C-3.76926398 54.81190049 1.54008017 55.46421686 8.125 55.75 C8.86105469 55.78867188 9.59710938 55.82734375 10.35546875 55.8671875 C12.15327406 55.96057998 13.95160108 56.0438371 15.75 56.125 C15.98074219 56.78886719 16.21148437 57.45273438 16.44921875 58.13671875 C16.77535156 59.01972656 17.10148437 59.90273437 17.4375 60.8125 C17.75074219 61.68261719 18.06398438 62.55273438 18.38671875 63.44921875 C19.62318599 66.30088188 19.62318599 66.30088188 22.31567383 68.30395508 C25.3827953 71.8583216 25.3399031 74.47771167 25.0625 78.9375 C25.03994141 79.63037109 25.01738281 80.32324219 24.99414062 81.03710938 C24.93562661 82.73401573 24.8459548 84.42979861 24.75 86.125 C11.18065405 86.21772147 -2.38861641 86.28877626 -15.95821476 86.33224869 C-22.25928508 86.35311435 -28.56013849 86.38141404 -34.86108398 86.42675781 C-40.94299385 86.47025093 -47.02469519 86.49414479 -53.10674858 86.50450897 C-55.42597167 86.51189403 -57.74518349 86.5263153 -60.0643177 86.54792023 C-63.31534523 86.57699937 -66.56551352 86.58095399 -69.81665039 86.57910156 C-70.773311 86.59348267 -71.72997162 86.60786377 -72.71562195 86.62268066 C-78.76743946 86.58542107 -82.29200086 85.65240068 -87.25 82.125 C-90.8982468 78.18873371 -92.35732096 75.19269035 -92.42700195 69.85644531 C-92.43983719 68.99835266 -92.45267242 68.14026001 -92.46589661 67.25616455 C-92.47328354 66.3311615 -92.48067047 65.40615845 -92.48828125 64.453125 C-92.496353 63.49734558 -92.50442474 62.54156616 -92.51274109 61.55682373 C-92.52657321 59.53269256 -92.53729926 57.50853815 -92.54516602 55.484375 C-92.56235736 52.40058735 -92.60624899 49.31787792 -92.65039062 46.234375 C-92.66051988 44.26563287 -92.66903525 42.29688163 -92.67578125 40.328125 C-92.69328934 39.41121887 -92.71079742 38.49431274 -92.72883606 37.54962158 C-92.70864468 31.54030538 -91.72493661 28.06084654 -88.25 23.125 C-67.61791478 4.25523873 -26.30925398 -0.0839657 0 0 Z " fill="#000000" transform="translate(108.25,125.875)"/>
<path d="M0 0 C1.33514648 -0.01160156 1.33514648 -0.01160156 2.69726562 -0.0234375 C11.8469797 0.00329651 20.43928631 1.08654562 27.5625 7.25 C35.96411339 16.84386008 35.86981006 27.64338468 35.828125 39.8125 C35.82947562 41.21297269 35.83141944 42.61344492 35.83392334 44.01391602 C35.83685596 46.93542995 35.83263742 49.8568208 35.82324219 52.77832031 C35.8118487 56.50012515 35.81841823 60.22164139 35.83038712 63.94343567 C35.83765634 66.83127977 35.83529471 69.71905682 35.83013153 72.60690308 C35.82880899 73.97826167 35.8303931 75.3496266 35.83509064 76.72097778 C35.86628669 88.38408118 35.37394237 98.04429561 27.5625 107.25 C19.67907473 114.53109615 11.03061388 114.61435203 0.75 114.625 C-0.48298828 114.64949219 -1.71597656 114.67398438 -2.98632812 114.69921875 C-12.02903034 114.7281863 -18.57113505 113.20412184 -25.9375 107.9375 C-29.04618486 104.59566377 -29.59972944 102.79242429 -29.4375 98.25 C-27.9375 95.3125 -27.9375 95.3125 -25.4375 93.25 C-22.125 92.625 -22.125 92.625 -18.4375 93.25 C-17.44492188 94.07886719 -16.45234375 94.90773438 -15.4296875 95.76171875 C-10.60085414 99.34698497 -5.67451936 98.8760121 0.125 98.6875 C1.14013672 98.68169922 2.15527344 98.67589844 3.20117188 98.66992188 C10.61991129 98.60013387 10.61991129 98.60013387 17.5625 96.25 C18.90319481 92.76703844 18.7097261 89.13833351 18.73950195 85.44946289 C18.74607315 84.77416031 18.75264435 84.09885773 18.75941467 83.40309143 C18.77906897 81.17627845 18.79079018 78.94953254 18.80078125 76.72265625 C18.80485678 75.96028593 18.8089323 75.19791561 18.81313133 74.41244316 C18.83395461 70.38018951 18.84827464 66.34796954 18.85766602 62.31567383 C18.86874629 58.1548783 18.90317489 53.99461522 18.94283772 49.83400822 C18.96898852 46.62978628 18.97735625 43.42569187 18.98094749 40.2213726 C18.9858144 38.6875796 18.99743147 37.15379233 19.01598549 35.62010384 C19.04035478 33.47294941 19.03941746 31.32718223 19.0324707 29.17993164 C19.03833694 27.95955704 19.04420319 26.73918243 19.05024719 25.48182678 C18.46764452 21.62148492 17.32570637 19.96341958 14.5625 17.25 C11.71539099 16.48536827 11.71539099 16.48536827 8.546875 16.5859375 C7.37769531 16.57949219 6.20851562 16.57304688 5.00390625 16.56640625 C3.78574219 16.58574219 2.56757813 16.60507813 1.3125 16.625 C0.10980469 16.60566406 -1.09289062 16.58632812 -2.33203125 16.56640625 C-8.96432786 16.60280744 -13.58682273 17.02328033 -18.89624023 21.17822266 C-20.4375 22.25 -20.4375 22.25 -23.25 22.25 C-25.56586759 21.19131767 -26.89851236 20.27498373 -28.4375 18.25 C-28.4375 17.59 -28.4375 16.93 -28.4375 16.25 C-29.0975 15.92 -29.7575 15.59 -30.4375 15.25 C-28.1100697 9.52840052 -26.1310657 6.44403317 -20.828125 3.2578125 C-13.90146805 0.33775124 -7.41605806 -0.064162 0 0 Z " fill="#000000" transform="translate(174.4375,103.75)"/>
<path d="M0 0 C2.79833984 1.92431641 2.79833984 1.92431641 5.4609375 4.6015625 C5.93697418 5.07564545 6.41301086 5.54972839 6.9034729 6.03817749 C7.9016552 7.04034406 8.89126074 8.05111902 9.87255859 9.06982422 C11.37098461 10.62084368 12.89888688 12.13730631 14.43359375 13.65234375 C22.64502611 21.96386381 22.64502611 21.96386381 23 28 C21.90003426 31.39156102 19.9771733 33.097993 17.25 35.3125 C14.55556192 37.58456671 12.17346682 39.83835714 9.9375 42.5625 C1.91656458 52.24444657 1.91656458 52.24444657 -4 53 C-9.66666667 50.66666667 -9.66666667 50.66666667 -11 48 C-11.4375 45.3125 -11.4375 45.3125 -11 42 C-9.64477539 40.14526367 -9.64477539 40.14526367 -7.97265625 38.29296875 C-7.419729 37.67317139 -6.86680176 37.05337402 -6.29711914 36.41479492 C-5.86906982 35.9479126 -5.44102051 35.48103027 -5 35 C-6.46022583 34.97812622 -6.46022583 34.97812622 -7.94995117 34.95581055 C-11.57515476 34.89766704 -15.1997476 34.82043623 -18.82446289 34.73754883 C-20.39076801 34.70437468 -21.95719051 34.67631942 -23.52368164 34.65356445 C-25.78061763 34.61987884 -28.03648526 34.56755951 -30.29296875 34.51171875 C-31.33701118 34.50213387 -31.33701118 34.50213387 -32.40214539 34.49235535 C-36.726024 34.36273758 -39.60394317 33.73506064 -43 31 C-44.0625 27.625 -44.0625 27.625 -44 24 C-41.91374661 20.57258371 -40.8255689 19.27518963 -37 18 C-34.56219623 17.84730819 -32.14716099 17.74317303 -29.70703125 17.68359375 C-29.00100266 17.66281265 -28.29497406 17.64203156 -27.56755066 17.62062073 C-25.31596449 17.55532509 -23.06426338 17.49633353 -20.8125 17.4375 C-19.2844934 17.39429575 -17.75649836 17.35068084 -16.22851562 17.30664062 C-12.48579438 17.19966426 -8.7429577 17.09834078 -5 17 C-5.42587402 16.53166748 -5.85174805 16.06333496 -6.29052734 15.58081055 C-6.8417627 14.95988525 -7.39299805 14.33895996 -7.9609375 13.69921875 C-8.51056152 13.08651123 -9.06018555 12.47380371 -9.62646484 11.8425293 C-11 10 -11 10 -11.625 6.8125 C-10.14446945 0.15011252 -6.30541719 -0.6651777 0 0 Z " fill="#000000" transform="translate(148,135)"/>
<path d="" fill="#FFFFFF" transform="translate(0,0)"/>
<path d="" fill="#FFFFFF" transform="translate(0,0)"/>
<path d="" fill="#FFFFFF" transform="translate(0,0)"/>
<path d="" fill="#FFFFFF" transform="translate(0,0)"/>
<path d="" fill="#FFFFFF" transform="translate(0,0)"/>
<path d="" fill="#FFFFFF" transform="translate(0,0)"/>
<path d="" fill="#FFFFFF" transform="translate(0,0)"/>
<path d="" fill="#FFFFFF" transform="translate(0,0)"/>
<path d="" fill="#FFFFFF" transform="translate(0,0)"/>
<path d="" fill="#FFFFFF" transform="translate(0,0)"/>
<path d="" fill="#FFFFFF" transform="translate(0,0)"/>
<path d="" fill="#FFFFFF" transform="translate(0,0)"/>
<path d="" fill="#FFFFFF" transform="translate(0,0)"/>
<path d="" fill="#FFFFFF" transform="translate(0,0)"/>
<path d="" fill="#FFFFFF" transform="translate(0,0)"/>
<path d="" fill="#FFFFFE" transform="translate(0,0)"/>
<path d="" fill="#FFFFFF" transform="translate(0,0)"/>
<path d="" fill="#FFFFFF" transform="translate(0,0)"/>
<path d="" fill="#FFFFFF" transform="translate(0,0)"/>
<path d="" fill="#FFFFFF" transform="translate(0,0)"/>
<path d="" fill="#FFFFFF" transform="translate(0,0)"/>
<path d="" fill="#FFFFFF" transform="translate(0,0)"/>
<path d="" fill="#FFFFFF" transform="translate(0,0)"/>
<path d="" fill="#FFFFFF" transform="translate(0,0)"/>
<path d="" fill="#FFFFFF" transform="translate(0,0)"/>
<path d="" fill="#FFFFFF" transform="translate(0,0)"/>
<path d="" fill="#FFFFFF" transform="translate(0,0)"/>
<path d="" fill="#FFFFFF" transform="translate(0,0)"/>
<path d="" fill="#FFFFFF" transform="translate(0,0)"/>
<path d="" fill="#FFFFFF" transform="translate(0,0)"/>
<path d="" fill="#FFFFFF" transform="translate(0,0)"/>
<path d="" fill="#FFFFFF" transform="translate(0,0)"/>
<path d="" fill="#FFFFFF" transform="translate(0,0)"/>
<path d="" fill="#FFFFFF" transform="translate(0,0)"/>
<path d="" fill="#FFFFFF" transform="translate(0,0)"/>
<path d="" fill="#FFFFFF" transform="translate(0,0)"/>
<path d="" fill="#FFFFFF" transform="translate(0,0)"/>
<path d="" fill="#FFFFFF" transform="translate(0,0)"/>
<path d="" fill="#FFFFFF" transform="translate(0,0)"/>
<path d="" fill="#FFFFFF" transform="translate(0,0)"/>
<path d="" fill="#FFFFFF" transform="translate(0,0)"/>
<path d="" fill="#FFFFFF" transform="translate(0,0)"/>
<path d="" fill="#FFFFFF" transform="translate(0,0)"/>
<path d="" fill="#FFFFFF" transform="translate(0,0)"/>
<path d="" fill="#FFFFFF" transform="translate(0,0)"/>
<path d="" fill="#FFFFFF" transform="translate(0,0)"/>
<path d="" fill="#FFFFFF" transform="translate(0,0)"/>
<path d="" fill="#FFFFFF" transform="translate(0,0)"/>
<path d="" fill="#FFFFFF" transform="translate(0,0)"/>
<path d="" fill="#FFFFFF" transform="translate(0,0)"/>
<path d="" fill="#FFFFFF" transform="translate(0,0)"/>
<path d="" fill="#FFFFFF" transform="translate(0,0)"/>
<path d="" fill="#FFFFFF" transform="translate(0,0)"/>
<path d="" fill="#FFFFFF" transform="translate(0,0)"/>
<path d="" fill="#FFFFFF" transform="translate(0,0)"/>
<path d="" fill="#FFFFFF" transform="translate(0,0)"/>
<path d="" fill="#FFFFFF" transform="translate(0,0)"/>
</svg>
