<?xml version="1.0" encoding="UTF-8"?>
<svg version="1.1" xmlns="http://www.w3.org/2000/svg" width="2000" height="494">
<path d="M0 0 C4.86747513 3.41864996 9.47377156 7.14494397 14 11 C14.68835938 11.58394531 15.37671875 12.16789062 16.0859375 12.76953125 C34.0928892 29.46611792 45.70978574 57.28329685 47.21923828 81.52026367 C47.33958044 85.41073952 47.38716138 89.2956245 47.375 93.1875 C47.37412384 93.87187134 47.37324768 94.55624268 47.37234497 95.26135254 C47.31280195 109.35306381 46.34287345 121.2000914 37.984375 133.0234375 C35.51762396 136.72356406 33.57183723 140.60141938 31.5625 144.5625 C28.03743589 151.38164748 24.14440764 157.26393534 19 163 C18.34902344 163.75796875 17.69804687 164.5159375 17.02734375 165.296875 C14.73741925 167.91637742 12.37046689 170.45315909 10 173 C9.51273437 173.55848633 9.02546875 174.11697266 8.5234375 174.69238281 C-1.46312846 186.12404914 -12.53733508 192.74076346 -26.03369141 199.4921875 C-30.59176575 201.80911484 -35.04458831 204.30534256 -39.5 206.8125 C-40.96855184 207.63186568 -42.43727976 208.45091592 -43.90625 209.26953125 C-44.9271875 209.84058594 -45.948125 210.41164062 -47 211 C-45.55900594 220.7744537 -37.66725738 228.86476224 -31.8269043 236.5324707 C-27.8796067 241.74465492 -24.15837588 247.08196831 -20.5 252.5 C-16.47758684 258.45293241 -12.35591049 264.28645909 -8 270 C-1.90921714 278.00520109 3.7725034 286.26329251 9.38867188 294.60644531 C10.97815771 296.96755427 12.57482424 299.32369131 14.171875 301.6796875 C35.80532495 333.71475061 45.26553411 358.67445894 37.9375 397.625 C37.73160248 398.76473267 37.73160248 398.76473267 37.52154541 399.92749023 C33.70674023 420.65484114 24.41819409 435.59580421 7 448 C-1.07629465 453.33374312 -9.57079647 457.47875726 -18.625 460.875 C-19.35138672 461.14908691 -20.07777344 461.42317383 -20.82617188 461.70556641 C-35.54822023 466.93884529 -51.20220545 468.3795945 -66.625 470.1875 C-67.75773346 470.32073669 -68.89046692 470.45397339 -70.05752563 470.59124756 C-117.16039826 476.05622863 -117.16039826 476.05622863 -137 469 C-138.41732422 468.49726562 -138.41732422 468.49726562 -139.86328125 467.984375 C-143.09394685 466.74897632 -146.21941871 465.38307519 -149.32421875 463.859375 C-150.08347656 463.49328125 -150.84273438 463.1271875 -151.625 462.75 C-152.27726562 462.41484375 -152.92953125 462.0796875 -153.6015625 461.734375 C-160.15465134 459.72789177 -166.56539316 461.38070209 -172.96875 463.1171875 C-174.22661316 463.44301315 -174.22661316 463.44301315 -175.5098877 463.77542114 C-179.05797394 464.6947115 -182.60009295 465.63605572 -186.14257812 466.57666016 C-209.24809063 472.67992193 -230.62568639 473.47737938 -254.38354492 472.31030273 C-256.93176839 472.1877756 -259.48035731 472.08104969 -262.02929688 471.97460938 C-276.69205747 471.30261984 -291.15251519 469.55420796 -305.25 465.3125 C-306.11222168 465.05831299 -306.97444336 464.80412598 -307.86279297 464.54223633 C-329.20986376 458.11116658 -351.9214822 450.84297361 -369 436 C-369.79535156 435.31550781 -370.59070313 434.63101562 -371.41015625 433.92578125 C-387.03503693 419.4265352 -396.90534409 396.22035657 -398.11387634 375.0005188 C-398.18099804 372.68359532 -398.21712996 370.36858541 -398.23828125 368.05078125 C-398.246353 367.19751755 -398.25442474 366.34425385 -398.26274109 365.46513367 C-398.27652291 363.66403194 -398.28727124 361.86290473 -398.29516602 360.06176758 C-398.30666606 358.23779531 -398.32708654 356.41385617 -398.35668945 354.59008789 C-398.56956818 341.44988097 -398.59061794 329.74741604 -388.90234375 319.7109375 C-379.37407214 311.14136263 -366.66296424 307.81183822 -354.07421875 307.90234375 C-352.95283257 307.90446617 -352.95283257 307.90446617 -351.80879211 307.90663147 C-349.43498635 307.91220236 -347.06127697 307.9247494 -344.6875 307.9375 C-343.07226699 307.94251877 -341.4570325 307.94708101 -339.84179688 307.95117188 C-335.89449445 307.96216225 -331.94726353 307.97940668 -328 308 C-329.15671548 305.04772426 -330.3608936 302.16083904 -331.76953125 299.3203125 C-341.33473483 279.74479422 -346.90794449 259.2251074 -350.01220703 237.68432617 C-350.54759592 234.09035021 -351.06175133 231.09173136 -353 228 C-359.25780119 223.83307112 -367.55801139 222.12971934 -374.64407349 219.88308716 C-402.9686674 210.83078939 -422.4437645 197.50431924 -436.37597656 170.65136719 C-451.25600801 140.6903825 -456.3105029 108.64770122 -445.83203125 76.40625 C-441.68150174 64.90834301 -435.95653204 55.24598843 -428 46 C-427.31035156 45.17628906 -426.62070312 44.35257813 -425.91015625 43.50390625 C-408.62684412 23.47026597 -381.95961659 7.61900011 -355.17578125 5.14501953 C-324.51471813 3.10140738 -293.27516828 8.13028456 -269.41015625 28.8671875 C-268.61480469 29.57101563 -267.81945312 30.27484375 -267 31 C-266.31808594 31.53882813 -265.63617188 32.07765625 -264.93359375 32.6328125 C-255.56050229 40.16915674 -248.62298083 50.88123043 -241.8515625 60.6953125 C-239.03179031 64.20515552 -236.28613866 66.57128711 -232 68 C-229.5305589 68.12991288 -227.08418539 68.20924271 -224.61328125 68.24609375 C-223.10090734 68.27910868 -221.58853768 68.31231869 -220.07617188 68.34570312 C-217.71610373 68.39248274 -215.35604183 68.43676123 -212.99584961 68.47680664 C-186.57052122 68.94632785 -164.43929693 72.63103347 -144.4765625 91.64453125 C-142.39880906 93.62069106 -140.28066193 95.43804468 -138.0625 97.25 C-124.50097162 109.11980398 -114.68210592 124.563338 -106.5300293 140.44580078 C-99.10271619 154.69372057 -84.79322446 181.60338777 -70 189 C-52.61728603 190.55202803 -32.17227138 175.20162441 -19.27539062 164.57958984 C-15.72381735 161.5128042 -12.35641882 158.27779115 -9 155 C-8.21238281 154.27425781 -7.42476563 153.54851562 -6.61328125 152.80078125 C10.8725864 136.29143675 24.32210475 111.17269477 25.5 86.9375 C25.45152652 78.81011371 23.73948675 71.20213358 21.875 63.3125 C21.45057617 61.47836548 21.45057617 61.47836548 21.01757812 59.60717773 C18.47885332 49.40340392 14.96156755 39.36347432 7.5625 31.625 C6.86253906 30.87476563 6.16257812 30.12453125 5.44140625 29.3515625 C0.03784927 24.14685642 -5.26543238 19.90906262 -11.9375 16.4375 C-12.67403809 16.05327881 -13.41057617 15.66905762 -14.16943359 15.27319336 C-26.24969252 9.16860147 -38.5285171 6.12522827 -52 5 C-52.82242187 4.9278125 -53.64484375 4.855625 -54.4921875 4.78125 C-72.97404567 4.0138372 -89.96664004 10.04905855 -105.35400391 19.78540039 C-106.38920166 20.42916626 -106.38920166 20.42916626 -107.4453125 21.0859375 C-108.05906738 21.4782959 -108.67282227 21.8706543 -109.30517578 22.27490234 C-111 23 -111 23 -114 22 C-114.8359375 20.109375 -114.8359375 20.109375 -115.375 17.75 C-115.66503906 16.59757812 -115.66503906 16.59757812 -115.9609375 15.421875 C-116.01624254 11.99296259 -115.13880393 10.68700222 -113 8 C-110.60914553 6.05470703 -108.05499147 4.43498514 -105.4375 2.8125 C-104.31879517 2.10565063 -104.31879517 2.10565063 -103.17749023 1.38452148 C-95.57125982 -3.36669595 -87.81461344 -7.83836162 -79.87402344 -12.00634766 C-78.35949954 -12.80938469 -76.86722783 -13.65430273 -75.3828125 -14.51171875 C-53.4009066 -25.65912655 -18.87125755 -11.83681029 0 0 Z M-406 47 C-406.78375 47.7321875 -407.5675 48.464375 -408.375 49.21875 C-422.36601741 62.642564 -427.15953328 77.29377826 -428.1875 96.50390625 C-428.62614634 121.04068587 -421.09073635 148.53348317 -404.1796875 166.91015625 C-394.58360775 176.11069867 -383.77311757 182.94975081 -372 189 C-370.96359375 189.53882813 -369.9271875 190.07765625 -368.859375 190.6328125 C-363.14743189 193.42496346 -358.35577165 194.68742107 -352 195 C-349.91256051 190.38411268 -348.38342375 186.00455935 -347.1875 181.0625 C-345.81517063 175.76595807 -344.26156479 170.61807102 -342.328125 165.49609375 C-342.06986435 164.81059448 -341.8116037 164.12509521 -341.54551697 163.41882324 C-338.60428085 155.76360648 -335.11127756 148.38795064 -331.5625 141 C-330.28951727 138.3349669 -329.02116621 135.66775806 -327.75390625 133 C-327.44145966 132.3465712 -327.12901306 131.6931424 -326.80709839 131.01991272 C-324.85132623 126.90122591 -323.03346591 122.74277483 -321.27275085 118.53736877 C-318.66149231 112.33725425 -316.17705275 106.77635892 -311.25 102.0625 C-310.48248413 101.28205322 -310.48248413 101.28205322 -309.69946289 100.48583984 C-297.34265269 88.14995082 -282.21462882 76.78022025 -264.93359375 72.87109375 C-262.83982526 72.17937589 -262.83982526 72.17937589 -262.125 70.1484375 C-261.82944145 65.06852489 -265.50415331 60.38543336 -268.5625 56.5625 C-272.86841345 51.80446563 -277.96243148 47.94523861 -283 44 C-284.08341956 43.13812922 -285.16675125 42.27614796 -286.25 41.4140625 C-295.00093083 34.50155164 -303.55394141 28.75523717 -314 24.75 C-314.64042236 24.5034668 -315.28084473 24.25693359 -315.94067383 24.00292969 C-348.10322732 12.26317143 -382.21373292 24.15266451 -406 47 Z M-217 112 C-212.19789269 125.89840673 -205.68974854 137.85494702 -196 149 C-195.30132812 149.83144531 -194.60265625 150.66289062 -193.8828125 151.51953125 C-176.08895457 172.13127772 -151.4656517 182.59234818 -126.58447266 192.00439453 C-124.33389028 192.87137686 -122.10772926 193.77533665 -119.88671875 194.71484375 C-112.11909195 197.98310855 -112.11909195 197.98310855 -104 197 C-102.8175722 193.45271661 -103.1759533 192.97024708 -104.703125 189.7109375 C-105.29951782 188.43476563 -105.29951782 188.43476563 -105.90795898 187.1328125 C-106.35083252 186.22273438 -106.79370605 185.31265625 -107.25 184.375 C-107.93074585 182.96734375 -107.93074585 182.96734375 -108.62524414 181.53125 C-115.65698038 167.31122234 -124.32033468 154.70593946 -135 143 C-135.71414063 142.20335937 -136.42828125 141.40671875 -137.1640625 140.5859375 C-151.84964071 125.02032464 -173.69419396 111.09744479 -195.55541992 109.85473633 C-198.43289675 109.8303131 -201.30991205 109.81435771 -204.1875 109.8125 C-205.19748047 109.80025391 -206.20746094 109.78800781 -207.24804688 109.77539062 C-208.21162109 109.77345703 -209.17519531 109.77152344 -210.16796875 109.76953125 C-211.04735107 109.76542236 -211.9267334 109.76131348 -212.83276367 109.75708008 C-215.21146018 109.79549901 -215.21146018 109.79549901 -217 112 Z M-258.4375 112.625 C-259.50581055 112.83576172 -259.50581055 112.83576172 -260.59570312 113.05078125 C-268.80452366 114.91472778 -274.0022021 119.05886047 -278.53515625 126.10546875 C-279.72900637 128.12222509 -280.90389952 130.15028888 -282.0625 132.1875 C-282.69446289 133.27160156 -283.32642578 134.35570312 -283.97753906 135.47265625 C-285.65813658 138.37121023 -287.32132583 141.2781709 -288.97369385 144.19281006 C-290.01070837 146.01885603 -291.05410025 147.84112335 -292.09912109 149.66259766 C-293.83110423 152.68449915 -295.55135698 155.71277111 -297.26168823 158.74697876 C-298.22640905 160.45815547 -299.19530654 162.16697533 -300.16430664 163.87573242 C-306.44220961 175.06027211 -306.44220961 175.06027211 -308.1875 187.5625 C-308.16042969 188.40941406 -308.13335937 189.25632812 -308.10546875 190.12890625 C-308.07066406 190.74636719 -308.03585937 191.36382812 -308 192 C-303.96926466 193.45115479 -300.20572485 194.37304427 -295.95703125 194.89453125 C-294.81081299 195.04229004 -293.66459473 195.19004883 -292.48364258 195.34228516 C-291.27216553 195.49745605 -290.06068848 195.65262695 -288.8125 195.8125 C-236.99708591 202.95143882 -188.73187963 230.3380711 -151 266 C-150.14277344 266.80308594 -149.28554688 267.60617187 -148.40234375 268.43359375 C-141.52601323 275.07017899 -135.68366432 282.34310691 -130 290 C-129.59894043 290.54027832 -129.19788086 291.08055664 -128.78466797 291.63720703 C-108.78621139 318.88646784 -90.35342681 355.57741448 -94.6875 390.25 C-97.551877 406.88976901 -104.90190087 420.44228692 -116 433 C-110.36593416 436.13003658 -105.18876064 436.12159461 -98.875 435.75 C-98.06240723 435.70335205 -97.24981445 435.6567041 -96.41259766 435.60864258 C-64.71926543 433.59436047 -31.95543254 429.72590598 -7 408 C-6.36320312 407.46890625 -5.72640625 406.9378125 -5.0703125 406.390625 C3.15402085 398.97813572 5.8637352 387.96637031 8.75 377.625 C9.20439453 376.04525391 9.20439453 376.04525391 9.66796875 374.43359375 C15.16428274 355.1598527 14.0999009 338.75074425 4.6796875 320.82421875 C1.89779573 316.14675886 -1.44609964 312.10752303 -5 308 C-5.95538371 306.87320624 -6.90974963 305.745549 -7.86328125 304.6171875 C-12.39291361 299.27653802 -16.97574026 293.99378825 -21.6875 288.8125 C-24.6791816 285.52057795 -27.52524423 282.15408693 -30.3125 278.6875 C-34.20255931 273.87414563 -38.32871834 269.3523855 -42.55566406 264.83886719 C-46.47878593 260.62606859 -50.11896414 256.23604648 -53.72265625 251.74609375 C-56.6573874 248.20730129 -59.77292985 244.85107415 -62.90771484 241.49121094 C-65.98820714 238.16777761 -68.86604263 234.73738871 -71.6875 231.1875 C-79.40343093 221.65605591 -86.35144373 216.32716839 -98.65429688 214.9140625 C-100.47418646 214.72504941 -102.29449198 214.5399884 -104.11523438 214.359375 C-118.48184382 212.68954938 -131.94375155 207.07065294 -145.24609375 201.65356445 C-147.62553593 200.68728236 -150.01156595 199.73877279 -152.3984375 198.79101562 C-170.22689911 191.62395266 -185.65992889 183.1263278 -197.6796875 167.703125 C-200.88977751 163.96342418 -204.58385236 161.07165466 -208.44140625 158.02734375 C-220.26792575 148.65640693 -227.875985 136.0742398 -234.2109375 122.59375 C-236.4568229 117.92787957 -238.62315569 113.91789621 -243 111 C-248.3752939 110.61462664 -253.23413653 111.43539215 -258.4375 112.625 Z M-284 219 C-284 219.66 -284 220.32 -284 221 C-285.01707031 220.94779297 -285.01707031 220.94779297 -286.0546875 220.89453125 C-292.65119805 220.70266598 -298.99552913 220.99776456 -305 224 C-307.0073525 226.03776693 -307.9592632 227.17429641 -308.1015625 230.05859375 C-304.9482554 245.79928247 -299.50437842 260.41311153 -291.15722656 274.09375 C-282.4273454 288.47411121 -274.80680401 303.4624159 -268.8125 319.1875 C-263.26119799 333.26186081 -252.59794926 340.52420063 -240.55371094 348.9855957 C-230.28331862 356.26765494 -220.55686686 364.37546917 -211.29296875 372.89453125 C-209.7090751 374.34890719 -208.10610346 375.78268079 -206.48828125 377.19921875 C-201.49321858 381.58232887 -196.93843861 386.13282792 -192.5546875 391.125 C-189.39099682 394.68536138 -186.13574057 398.1536958 -182.875 401.625 C-179.15541539 405.58706979 -175.46805222 409.554359 -171.9375 413.6875 C-168.11447801 418.09499402 -164.98030162 421.292272 -159 422 C-150.91083892 420.2468883 -144.33212576 415.05826199 -138 410 C-137.21496094 409.38125 -136.42992187 408.7625 -135.62109375 408.125 C-125.02870669 399.2826595 -115.84108284 386.72649322 -113 373 C-112.28399885 364.46478627 -113.59166099 357.33187078 -116.4375 349.3125 C-116.97721436 347.75329834 -116.97721436 347.75329834 -117.52783203 346.16259766 C-124.94813504 325.41198747 -136.79168865 308.73048513 -152 293 C-152.60199219 292.34644531 -153.20398438 291.69289063 -153.82421875 291.01953125 C-174.68752172 268.89497067 -204.39312286 253.61587387 -230.92236328 239.62451172 C-232.97376465 238.54169205 -235.02163929 237.45216444 -237.06591797 236.35595703 C-252.19520316 228.26782231 -267.07506119 222.13680129 -284 219 Z M-369 351 C-371.51150877 354.22753287 -373.78675348 357.56276109 -376 361 C-376.9590625 362.423125 -376.9590625 362.423125 -377.9375 363.875 C-380.44941805 371.26299425 -379.87132431 377.79500369 -376.69140625 384.84399414 C-365.47142834 407.54316638 -348.08531304 420.82943724 -324.32202148 428.91796875 C-323.10200439 429.31628906 -321.8819873 429.71460938 -320.625 430.125 C-319.98136505 430.33688965 -319.3377301 430.5487793 -318.67459106 430.76708984 C-277.91520827 444.11961448 -225.90218433 448.95109216 -186 429 C-189.71322812 418.24510613 -200.28015269 409.20381327 -208 401 C-208.61617187 400.34128906 -209.23234375 399.68257813 -209.8671875 399.00390625 C-214.8371916 393.85555272 -220.39614084 389.43308892 -226 385 C-227.01344482 384.1958667 -227.01344482 384.1958667 -228.04736328 383.37548828 C-242.42370401 369.93025944 -242.42370401 369.93025944 -259 362 C-259.26627197 362.8156543 -259.53254395 363.63130859 -259.80688477 364.47167969 C-260.82303865 367.56190708 -261.85149942 370.64750108 -262.88793945 373.73095703 C-263.32993382 375.05390073 -263.76728554 376.37840668 -264.19946289 377.70458984 C-268.80347866 391.81073805 -275.44560378 407.9888582 -289.0625 415.625 C-293.18074367 417.36289883 -296.57246671 417.52530056 -301 417 C-303.0625 415.9375 -303.0625 415.9375 -304 414 C-303.90066218 408.63575759 -302.70965173 405.80477101 -299 402 C-297.66895619 400.89307445 -296.33541152 399.78915234 -295 398.6875 C-291.02093615 395.23649883 -288.44073132 392.10980109 -287 387 C-286.81536005 379.80839091 -288.953026 373.71185648 -291.875 367.25 C-292.22691406 366.43917969 -292.57882812 365.62835938 -292.94140625 364.79296875 C-297.7712875 353.75067519 -301.74814338 346.13274628 -313 341 C-332.1056816 333.52521223 -354.04755051 336.04755051 -369 351 Z " fill="#23A8DF" transform="translate(454,19)"/>
<path d="M0 0 C0.96268799 0.00829834 1.92537598 0.01659668 2.91723633 0.02514648 C19.01195641 0.40548593 31.15822078 6.97312092 42.78125 17.87890625 C56.19956253 32.1467548 63.64182876 50.67232026 68.1875 69.4375 C68.36684082 70.17258789 68.54618164 70.90767578 68.73095703 71.66503906 C76.65075155 106.38000731 72.69855263 149.41608324 57.1875 181.4375 C56.61386719 182.62472656 56.04023437 183.81195313 55.44921875 185.03515625 C45.11965328 205.68635358 29.28167971 223.30428022 7.1875 231.4375 C-8.42027298 236.47090104 -23.89222474 237.22444244 -39.54296875 232.41015625 C-42.63253797 231.49103709 -45.62582586 230.89688398 -48.8125 230.4375 C-49.87950973 233.63852918 -49.94571567 235.94589775 -49.95776367 239.31079102 C-49.96414352 240.51957413 -49.97052338 241.72835724 -49.97709656 242.97377014 C-49.97820938 244.28309006 -49.9793222 245.59240997 -49.98046875 246.94140625 C-49.98368444 248.30321792 -49.98704875 249.66502925 -49.99055481 251.02684021 C-49.99654539 253.88582152 -49.99839503 256.74477262 -49.99780273 259.60375977 C-49.99770167 263.24266594 -50.01129569 266.88137452 -50.02857494 270.52023411 C-50.03977776 273.33691775 -50.04171934 276.15355509 -50.04119301 278.97025871 C-50.04292726 280.95638861 -50.05372412 282.94250404 -50.06474304 284.92860413 C-50.04704327 292.00964202 -49.56891681 298.56531092 -47.8125 305.4375 C-38.78453143 307.85277471 -30.01732138 309.88374523 -20.703125 310.84765625 C-17.59371748 311.48214346 -16.04703841 312.20296159 -13.8125 314.4375 C-13.4375 317.5 -13.4375 317.5 -13.8125 320.4375 C-17.3653232 323.9903232 -21.74374528 323.55420858 -26.58288574 323.58413696 C-27.3238147 323.58368378 -28.06474365 323.58323059 -28.828125 323.58276367 C-29.62061646 323.58612228 -30.41310791 323.5894809 -31.22961426 323.59294128 C-33.84059225 323.60241462 -36.45150591 323.60439237 -39.0625 323.60546875 C-40.8818362 323.60868312 -42.70117215 323.61204733 -44.52050781 323.61555481 C-48.33008422 323.6215365 -52.13963798 323.62339562 -55.94921875 323.62280273 C-60.82836797 323.622701 -65.70737203 323.63636909 -70.58648682 323.65357494 C-74.34229194 323.66469595 -78.09806193 323.66672193 -81.85388184 323.66619301 C-83.65279644 323.66737236 -85.45171198 323.67179162 -87.25061035 323.67952538 C-89.76613544 323.68933014 -92.28134476 323.68644566 -94.796875 323.68041992 C-95.53780396 323.68603943 -96.27873291 323.69165894 -97.04211426 323.69744873 C-101.25341032 323.67183385 -105.65641049 323.59358951 -108.8125 320.4375 C-109.125 317.5625 -109.125 317.5625 -108.8125 314.4375 C-105.53493158 311.06111042 -101.89148763 310.6895019 -97.375 309.9375 C-90.57915767 308.88906846 -90.57915767 308.88906846 -84.8125 305.4375 C-82.6161852 299.61725867 -82.52987159 294.19563458 -82.55853271 288.02450562 C-82.55541273 286.98891372 -82.55229275 285.95332183 -82.54907823 284.88634837 C-82.54111392 281.4233602 -82.54741582 277.96054801 -82.55371094 274.49755859 C-82.55100042 272.01205849 -82.54743914 269.52655918 -82.54309082 267.0410614 C-82.53491931 260.99570973 -82.53611317 254.95042689 -82.5419161 248.90507792 C-82.54643658 243.9920492 -82.54704383 239.07903439 -82.54486847 234.16600418 C-82.544562 233.46622983 -82.54425554 232.76645548 -82.54393978 232.04547585 C-82.54330032 230.62383424 -82.5426519 229.20219263 -82.5419946 227.78055103 C-82.53629512 214.45835184 -82.54284364 201.13618021 -82.55359533 187.81398554 C-82.56253442 176.38378908 -82.56097512 164.95363323 -82.55175781 153.5234375 C-82.54105519 140.24514746 -82.53684028 126.96688153 -82.54298234 113.68858778 C-82.54361943 112.27284662 -82.54424817 110.85710546 -82.54486847 109.44136429 C-82.54517702 108.74481287 -82.54548557 108.04826144 -82.54580347 107.3306024 C-82.54753014 102.42264969 -82.54461599 97.51471228 -82.53990936 92.60676193 C-82.53371525 86.00266852 -82.53812392 79.39864003 -82.54969788 72.79454994 C-82.55234685 70.36813421 -82.55157534 67.94171203 -82.54717255 65.51529884 C-82.54172526 62.20895365 -82.54854146 58.90285641 -82.55853271 55.5965271 C-82.55407127 54.63145623 -82.54960983 53.66638535 -82.54501319 52.67206991 C-82.53404202 46.30366996 -82.53404202 46.30366996 -84.8125 40.4375 C-90.15795762 37.23022543 -95.79734036 36.7126067 -101.921875 35.96484375 C-104.8125 35.4375 -104.8125 35.4375 -107.8125 33.4375 C-108.3125 30.5 -108.3125 30.5 -107.8125 27.4375 C-103.96442523 24.48194447 -99.83628033 23.60531749 -95.1875 22.625 C-83.59579017 19.89197388 -75.41805748 14.65892911 -66.84521484 6.48828125 C-63.00523171 2.956438 -60.25151806 1.47066474 -54.8125 1.4375 C-52.4156335 3.8343665 -52.52968867 4.50778314 -52.3984375 7.7890625 C-52.34042969 9.06523437 -52.34042969 9.06523437 -52.28125 10.3671875 C-52.2503125 11.25664062 -52.219375 12.14609375 -52.1875 13.0625 C-52.12949219 14.40828125 -52.12949219 14.40828125 -52.0703125 15.78125 C-51.97590643 17.9997927 -51.89033252 20.21832403 -51.8125 22.4375 C-49.65210656 23.48378852 -49.65210656 23.48378852 -46.8125 23.4375 C-44.31178821 21.76663869 -42.33108607 19.59559899 -40.25 17.4375 C-28.61604 6.03352076 -16.45091775 -0.18409257 0 0 Z M-40.8125 34.4375 C-50.23060994 46.73061193 -50.95796219 61.29700687 -50.97363281 76.22094727 C-50.97859772 77.36698929 -50.98356262 78.51303131 -50.98867798 79.69380188 C-51.00321379 83.46384292 -51.01008785 87.23384186 -51.015625 91.00390625 C-51.01845238 92.29958967 -51.02127975 93.59527309 -51.02419281 94.93021965 C-51.03761486 101.08436966 -51.047519 107.23850112 -51.0513947 113.39266449 C-51.05586459 120.44751198 -51.07337463 127.50216467 -51.1023953 134.55695301 C-51.124162 140.04269335 -51.13410694 145.52837951 -51.13543582 151.01416248 C-51.13647347 154.27532682 -51.14365338 157.53626814 -51.16025543 160.79739571 C-51.37244773 188.23100413 -51.37244773 188.23100413 -41.0625 213.1875 C-34.23514817 220.01485183 -27.00328381 223.33044808 -17.4375 223.75 C-6.03047538 223.41737664 4.01760826 218.08001985 11.8125 209.9375 C22.98587454 196.75410041 29.23702996 180.7553024 32.9375 164.0625 C33.13625732 163.16668213 33.33501465 162.27086426 33.53979492 161.34790039 C36.71863389 146.02052812 37.56590554 130.8593215 37.5 115.25 C37.49726578 113.90228516 37.49726578 113.90228516 37.49447632 112.52734375 C37.44834155 99.00489654 37.13178868 85.6925949 34.1875 72.4375 C34.02121094 71.68758789 33.85492187 70.93767578 33.68359375 70.16503906 C29.68861656 53.11240496 22.36858653 35.6313548 7.0625 25.9375 C-9.75264557 16.1994359 -28.29614653 20.68896666 -40.8125 34.4375 Z " fill="#0617C4" transform="translate(1214.8125,135.5625)"/>
<path d="M0 0 C0.81248703 -0.00563965 1.62497406 -0.0112793 2.46208191 -0.01708984 C3.78667671 -0.01101715 3.78667671 -0.01101715 5.13803101 -0.00482178 C6.07530533 -0.00832642 7.01257965 -0.01183105 7.97825623 -0.01544189 C11.08416109 -0.02425752 14.18983855 -0.01840394 17.29574585 -0.01165771 C19.46651249 -0.01300599 21.63727883 -0.01494788 23.80804443 -0.01745605 C28.36940369 -0.0204084 32.93068474 -0.01611195 37.49203491 -0.0067749 C43.29027992 0.00452477 49.08833782 -0.00187835 54.8865757 -0.01391983 C59.37894038 -0.02121701 63.87126227 -0.01881322 68.36362839 -0.01366425 C70.49788816 -0.01234438 72.63215202 -0.01391604 74.76640701 -0.01862335 C102.65962366 -0.06657456 129.93210757 2.14546395 151.88168335 21.25396729 C152.76146851 21.92105713 152.76146851 21.92105713 153.6590271 22.60162354 C167.09843884 33.05449934 174.84922254 50.14438765 178.88168335 66.25396729 C179.10726929 67.12408447 179.33285522 67.99420166 179.5652771 68.89068604 C184.53906968 92.38756824 181.02322688 118.49273413 168.56918335 139.06646729 C164.83515267 144.59775669 160.55562931 149.5006674 155.88168335 154.25396729 C155.19461304 154.95392822 154.50754272 155.65388916 153.7996521 156.37506104 C138.11268693 171.30532659 116.89665975 177.4468562 95.63168335 177.63287354 C94.10088135 177.65836525 94.10088135 177.65836525 92.53915405 177.68437195 C89.32005789 177.73694908 86.10097164 177.77758466 82.88168335 177.81646729 C79.63389003 177.86047337 76.38619235 177.90712545 73.13851929 177.95927429 C71.12752584 177.99111595 69.11644715 178.01804148 67.10531616 178.039505 C66.20007202 178.05299484 65.29482788 178.06648468 64.3621521 178.0803833 C63.56704224 178.08989517 62.77193237 178.09940704 61.95272827 178.10920715 C59.68417975 178.18129669 59.68417975 178.18129669 56.88168335 179.25396729 C55.68376296 181.64980807 55.75074844 183.1378118 55.74124146 185.81321716 C55.73553131 186.77347809 55.72982117 187.73373901 55.72393799 188.72309875 C55.72282013 189.78024582 55.72170227 190.83739288 55.72055054 191.92657471 C55.71558563 193.03728333 55.71062073 194.14799194 55.70550537 195.2923584 C55.69085368 198.9813905 55.68407597 202.67037957 55.67855835 206.35943604 C55.67280842 208.91813661 55.66705067 211.47683718 55.6612854 214.03553772 C55.65211199 218.72087089 55.64581582 223.4061911 55.64278865 228.09153098 C55.63831371 234.97957919 55.62079428 241.86742838 55.59178805 248.7554161 C55.56752181 254.72586763 55.55984203 260.6962699 55.5581131 266.66677284 C55.55508639 269.20367833 55.54705728 271.74058297 55.53392792 274.27745628 C55.51685832 277.82991934 55.5187505 281.38189969 55.52523804 284.93438721 C55.51602325 285.98141312 55.50680847 287.02843903 55.49731445 288.10719299 C55.53061787 293.93384558 56.04212211 298.12256224 58.88168335 303.25396729 C63.01517157 306.84459589 68.32856505 307.36964926 73.56918335 308.31646729 C75.28142293 308.64068604 76.99366252 308.96490479 78.7059021 309.28912354 C81.36375106 309.78769166 84.0219803 310.27877157 86.68490601 310.74957275 C87.58128784 310.91473389 88.47766968 311.07989502 89.4012146 311.25006104 C90.21308228 311.395 91.02494995 311.53993896 91.86141968 311.68927002 C93.88168335 312.25396729 93.88168335 312.25396729 95.88168335 314.25396729 C96.44153763 319.51659753 96.44153763 319.51659753 94.61554623 321.9215641 C92.50412682 323.54410414 91.46679224 323.63074125 88.82737732 323.63491821 C88.00444687 323.64337769 87.18151642 323.65183716 86.33364868 323.66055298 C85.43434631 323.65448029 84.53504395 323.64840759 83.60848999 323.64215088 C82.65862717 323.64740784 81.70876434 323.65266479 80.7301178 323.65808105 C77.58385877 323.67130663 74.43810396 323.6625331 71.2918396 323.65240479 C69.1085246 323.65442495 66.92521026 323.6573359 64.74189758 323.66110229 C60.16285792 323.66552926 55.58399366 323.65908314 51.00497437 323.64508057 C45.13237811 323.62799872 39.26019345 323.63782137 33.38761234 323.65579796 C28.87778111 323.66663429 24.36804758 323.66318994 19.85821342 323.65541458 C17.69284453 323.65341164 15.5274668 323.65587513 13.36210823 323.66285324 C10.33592335 323.67046396 7.31040633 323.658868 4.28427124 323.64215088 C3.3869931 323.64822357 2.48971497 323.65429626 1.56524658 323.66055298 C-4.53415576 323.5980671 -4.53415576 323.5980671 -7.70597839 321.72970581 C-8.17205002 321.2427121 -8.63812164 320.75571838 -9.11831665 320.25396729 C-8.99331665 317.44146729 -8.99331665 317.44146729 -8.11831665 314.25396729 C-2.70722411 310.82524041 3.23972152 309.9720634 9.4246521 308.79302979 C15.19548927 307.66678737 15.19548927 307.66678737 19.88168335 304.25396729 C20.84602238 301.3609502 21.00780934 299.54505943 21.0103178 296.53875065 C21.01354225 295.56337693 21.01676669 294.58800322 21.02008885 293.58307272 C21.01854025 292.50896515 21.01699165 291.43485758 21.01539612 290.32820129 C21.01766167 289.18914917 21.01992723 288.05009705 21.02226144 286.8765282 C21.02861839 283.03952183 21.02777099 279.20255062 21.02694702 275.36553955 C21.02939279 272.62285223 21.03331113 269.88016741 21.03712463 267.13748169 C21.04543807 260.44891045 21.04817978 253.76034802 21.04873701 247.07177205 C21.04921181 241.63661667 21.05126474 236.2014642 21.05443764 230.76630974 C21.06324581 215.36512493 21.06785671 199.96394711 21.06710716 184.56275976 C21.06704723 183.31682277 21.06704723 183.31682277 21.06698608 182.04571533 C21.0669452 181.21407956 21.06690432 180.38244378 21.0668622 179.52560692 C21.0664556 166.04254699 21.07602822 152.55951497 21.09012445 139.07646311 C21.10447583 125.24047499 21.11139533 111.4045005 21.11053067 97.56850475 C21.11019829 89.79727592 21.11296336 82.02607635 21.12370872 74.2548542 C21.13279743 67.63924362 21.13500242 61.02367556 21.1281993 54.40806145 C21.1249259 51.03137734 21.12598578 47.65484178 21.13355255 44.27815437 C21.1412193 40.62093459 21.136663 36.96393171 21.12892151 33.30671692 C21.13406507 32.23484007 21.13920864 31.16296322 21.14450806 30.05860525 C21.13990927 29.08062379 21.13531047 28.10264233 21.13057232 27.09502506 C21.13078969 26.25063438 21.13100706 25.40624371 21.13123101 24.53626543 C20.85415399 22.00219087 20.23755055 20.40379325 18.88168335 18.25396729 C12.20384515 14.58115628 4.26753179 13.38352658 -3.14956665 12.06256104 C-6.13159495 11.2503507 -7.39446584 10.78722475 -9.11831665 8.25396729 C-9.05581665 5.19146729 -9.05581665 5.19146729 -8.11831665 2.25396729 C-5.38457702 0.48167856 -3.22412455 0.00345829 0 0 Z M57.81918335 20.25396729 C55.18615566 24.33091339 54.75792825 27.3590584 54.74124146 32.15415955 C54.73553131 33.13952194 54.72982117 34.12488434 54.72393799 35.1401062 C54.72282013 36.21497284 54.72170227 37.28983948 54.72055054 38.39727783 C54.71558563 39.53432663 54.71062073 40.67137543 54.70550537 41.84288025 C54.69088731 45.60882165 54.6840818 49.37472091 54.67855835 53.14068604 C54.67280598 55.75899761 54.66704826 58.37730917 54.6612854 60.99562073 C54.65171769 65.78708376 54.64581889 70.57853772 54.64278865 75.37000912 C54.63831385 82.40573675 54.62079069 89.44126954 54.59178805 96.47693795 C54.56749356 102.58408641 54.55984073 108.69115498 54.5581131 114.79834938 C54.55509077 117.38942334 54.54707648 119.98049656 54.53392792 122.57153893 C54.51682008 126.20240282 54.51875975 129.83279592 54.52523804 133.46368408 C54.51602325 134.52842957 54.50680847 135.59317505 54.49731445 136.69018555 C54.54114888 144.55687894 55.69362893 150.94062773 60.06918335 157.56646729 C68.68613492 165.80044323 78.82219796 165.62489784 90.0809021 165.46099854 C102.90319171 165.05366406 115.74596605 159.94216307 125.20199585 151.09771729 C142.84798811 131.72816299 147.69376233 107.64277026 146.75668335 82.12896729 C146.05241082 68.47132355 143.52530055 55.35351592 136.88168335 43.25396729 C136.37894897 42.33099854 135.8762146 41.40802979 135.35824585 40.45709229 C127.38310047 26.90308933 115.24965565 18.94991204 100.44418335 14.31646729 C94.43453436 13.01883727 88.38274326 12.90939695 82.25668335 12.81646729 C81.29061157 12.79398926 80.32453979 12.77151123 79.32919312 12.74835205 C71.483224 12.77445842 63.26367823 14.09464636 57.81918335 20.25396729 Z " fill="#0617C4" transform="translate(1316.1183166503906,43.74603271484375)"/>
<path d="M0 0 C0.81248703 -0.00563965 1.62497406 -0.0112793 2.46208191 -0.01708984 C3.78667671 -0.01101715 3.78667671 -0.01101715 5.13803101 -0.00482178 C6.07530533 -0.00832642 7.01257965 -0.01183105 7.97825623 -0.01544189 C11.08416109 -0.02425752 14.18983855 -0.01840394 17.29574585 -0.01165771 C19.46651249 -0.01300599 21.63727883 -0.01494788 23.80804443 -0.01745605 C28.36940369 -0.0204084 32.93068474 -0.01611195 37.49203491 -0.0067749 C43.29027992 0.00452477 49.08833782 -0.00187835 54.8865757 -0.01391983 C59.37894038 -0.02121701 63.87126227 -0.01881322 68.36362839 -0.01366425 C70.49788816 -0.01234438 72.63215202 -0.01391604 74.76640701 -0.01862335 C104.4609044 -0.06967114 133.243412 3.0532867 155.88168335 24.25396729 C173.68922282 42.17218898 181.08065737 65.27044554 181.31918335 90.06646729 C181.18283211 115.85159158 173.12764374 137.6579079 154.64974976 155.972229 C134.44167369 175.10120259 109.06534992 177.6613399 82.63168335 177.87896729 C79.4107604 177.91555227 76.18995585 177.95610322 72.96914673 178.00161743 C70.98040819 178.02870375 68.99158219 178.05011521 67.00271606 178.06515503 C66.11038269 178.07541718 65.21804932 178.08567932 64.29867554 178.09625244 C63.51563049 178.10274811 62.73258545 178.10924377 61.92581177 178.11593628 C59.67977567 178.18149517 59.67977567 178.18149517 56.88168335 179.25396729 C55.68752214 181.64228969 55.75335549 183.10909223 55.74797058 185.7752533 C55.7437056 186.72710007 55.73944061 187.67894684 55.73504639 188.65963745 C55.73549957 189.70743378 55.73595276 190.7552301 55.73641968 191.83477783 C55.73306107 192.93573288 55.72970245 194.03668793 55.72624207 195.17100525 C55.71670749 198.82757685 55.71478747 202.48410276 55.7137146 206.14068604 C55.71050296 208.67696654 55.70713896 211.21324686 55.70362854 213.74952698 C55.69763044 219.07514958 55.69574653 224.40075507 55.69638062 229.72637939 C55.69698032 235.87248147 55.68645117 242.01849547 55.67063695 248.16457528 C55.65595416 254.08270425 55.65239347 260.0008065 55.65299034 265.91895485 C55.65181039 268.43352429 55.64738774 270.94809437 55.63965797 273.46265221 C55.62985026 276.98390343 55.63273976 280.50492915 55.63876343 284.02618408 C55.63314392 285.06385925 55.62752441 286.10153442 55.62173462 287.1706543 C55.50144031 296.26534703 55.50144031 296.26534703 59.55355835 304.06646729 C62.63854978 305.64001996 65.77866791 306.47994511 69.13168335 307.25396729 C69.82536011 307.42202881 70.51903687 307.59009033 71.23373413 307.76324463 C77.05552466 309.14177969 82.92278993 310.25715713 88.82797241 311.21490479 C93.66967289 312.04195682 93.66967289 312.04195682 95.88168335 314.25396729 C96.19418335 317.75396729 96.19418335 317.75396729 95.88168335 321.25396729 C92.83557456 323.28470648 92.24697014 323.50484177 88.82737732 323.5146637 C88.00444687 323.5217485 87.18151642 323.52883331 86.33364868 323.53613281 C85.43434631 323.5336554 84.53504395 323.53117798 83.60848999 323.52862549 C82.65862717 323.53373642 81.70876434 323.53884735 80.7301178 323.54411316 C77.58396133 323.55803603 74.43802325 323.55705037 71.2918396 323.55474854 C69.10852476 323.55863396 66.92521068 323.56296831 64.74189758 323.56773376 C60.16289827 323.57520176 55.58397604 323.57490047 51.00497437 323.56964111 C45.13239788 323.56384551 39.26013668 323.58077705 33.38761234 323.60398579 C28.87779388 323.61870602 24.36805165 323.61959716 19.85821342 323.61647606 C17.69283867 323.61699012 15.52745975 323.62224376 13.36210823 323.63228798 C10.33595318 323.64460189 7.31041614 323.63789089 4.28427124 323.62628174 C3.3869931 323.63392548 2.48971497 323.64156921 1.56524658 323.64944458 C-4.53451742 323.5976303 -4.53451742 323.5976303 -7.70597839 321.73069763 C-8.40508583 320.99971611 -8.40508583 320.99971611 -9.11831665 320.25396729 C-8.99331665 317.44146729 -8.99331665 317.44146729 -8.11831665 314.25396729 C-2.70722411 310.82524041 3.23972152 309.9720634 9.4246521 308.79302979 C10.19680054 308.63576416 10.96894897 308.47849854 11.76449585 308.31646729 C12.45946167 308.18369385 13.15442749 308.05092041 13.87045288 307.91412354 C16.40599246 307.08187068 17.90077398 306.05103889 19.88168335 304.25396729 C22.36862462 297.25850741 22.16894103 289.3614222 22.13565063 282.02069092 C22.13877062 280.9450792 22.1418906 279.86946748 22.14510512 278.76126146 C22.15303025 275.18650734 22.14678292 271.61192556 22.14047241 268.03717041 C22.14318471 265.46229453 22.14674698 262.88741942 22.15109253 260.31254578 C22.15995414 254.06253473 22.158079 247.8125719 22.15226725 241.56255901 C22.14773799 236.47995986 22.14714331 231.39737415 22.14931488 226.31477356 C22.14962135 225.58951989 22.14992781 224.86426623 22.15024357 224.11703518 C22.15088306 222.6433841 22.15153149 221.16973301 22.15218875 219.69608194 C22.15788257 205.89965198 22.15134905 192.10324866 22.14058802 178.30682307 C22.13165337 166.48629401 22.13320568 154.66580424 22.14242554 142.84527588 C22.15314494 129.0959221 22.15733334 115.34659163 22.15120101 101.59723425 C22.15056396 100.12920984 22.14993521 98.66118543 22.14931488 97.19316101 C22.14900633 96.47099271 22.14869778 95.74882441 22.14837988 95.00477222 C22.14665794 89.93227833 22.14955719 84.85979932 22.15427399 79.78730774 C22.16049098 72.95167909 22.15602179 66.11612562 22.14448547 59.28050423 C22.14184728 56.77597743 22.14258957 54.27144437 22.1470108 51.76692009 C22.15250086 48.34027799 22.14559011 44.91387091 22.13565063 41.48724365 C22.14011208 40.50346882 22.14457352 39.51969399 22.14917016 38.50610781 C22.11329017 32.09956876 21.97400993 25.36211421 19.88168335 19.25396729 C15.24851527 15.08926647 8.51778317 14.29050437 2.56918335 13.19146729 C0.98775281 12.89870448 -0.59182511 12.59570435 -2.1690979 12.28131104 C-2.85657104 12.15490234 -3.54404419 12.02849365 -4.25234985 11.89825439 C-6.55644206 11.10268991 -7.63852155 10.18143149 -9.11831665 8.25396729 C-9.05581665 5.19146729 -9.05581665 5.19146729 -8.11831665 2.25396729 C-5.38457702 0.48167856 -3.22412455 0.00345829 0 0 Z M58.38168335 19.69146729 C55.91358673 23.90779902 54.63277892 27.36963527 54.62098694 32.27441406 C54.61390213 33.26115112 54.60681732 34.24788818 54.59951782 35.26452637 C54.60199524 36.33579773 54.60447266 37.40706909 54.60702515 38.51080322 C54.60191422 39.64799805 54.59680328 40.78519287 54.59153748 41.95684814 C54.57763437 45.7173997 54.57859917 49.47776807 54.5809021 53.23834229 C54.57701489 55.8552253 54.57268017 58.47210769 54.56791687 61.08898926 C54.55970776 66.57661561 54.5606085 72.06419048 54.56600952 77.55181885 C54.57204069 83.87806172 54.55975846 90.2040817 54.53843945 96.53028655 C54.51863716 102.6326451 54.51565736 108.73490015 54.51917458 114.8372879 C54.51866205 117.42556531 54.51343728 120.01384633 54.50336266 122.60210419 C54.49098364 126.22809334 54.49779994 129.85357183 54.5093689 133.47955322 C54.50172516 134.54272766 54.49408142 135.6059021 54.48620605 136.70129395 C54.54143574 144.5595305 55.69822048 150.94758066 60.06918335 157.56646729 C68.68613492 165.80044323 78.82219796 165.62489784 90.0809021 165.46099854 C103.38338438 165.03840945 116.24696463 159.56360692 125.9793396 150.38677979 C139.76972322 134.9256926 146.15563487 115.80429609 146.88168335 95.25396729 C146.94162476 93.917854 146.94162476 93.917854 147.0027771 92.55474854 C147.53159762 69.75325183 142.85501263 46.37625534 126.88168335 29.25396729 C120.60255564 23.29818336 113.99212718 19.23608034 105.88168335 16.25396729 C104.61711304 15.77443604 104.61711304 15.77443604 103.32699585 15.28521729 C96.39662831 13.11571092 89.46152479 12.91567435 82.25668335 12.81646729 C81.29085327 12.79415039 80.32502319 12.7718335 79.32992554 12.74884033 C71.55689974 12.77337138 64.11146798 14.10492727 58.38168335 19.69146729 Z " fill="#0617C4" transform="translate(609.1183166503906,43.74603271484375)"/>
<path d="M0 0 C23.97007206 18.31919221 37.66137325 49.07188961 41.72216797 78.44433594 C46.76956416 118.01018093 41.76876845 161.30579486 17.41015625 194.1875 C5.25161143 209.08599858 -10.08041527 220.53211097 -29.58984375 223.1875 C-48.68052336 224.77024826 -65.3104366 219.83048874 -80.12109375 207.43359375 C-104.37142475 185.37039703 -116.51252593 152.44552146 -118.58984375 120.1875 C-120.14130475 79.38835133 -113.20368646 40.24562838 -85.52734375 8.84765625 C-62.44906375 -15.39384351 -27.43900328 -19.20316368 0 0 Z M-63.58984375 11.1875 C-82.70552706 36.43613171 -83.7776081 71.30149048 -83.77514648 101.66796875 C-83.77731922 104.65379401 -83.7954967 107.63924038 -83.81445312 110.625 C-83.86334333 127.13557904 -83.07037527 143.70386377 -79.83984375 159.9375 C-79.58714722 161.22116455 -79.58714722 161.22116455 -79.3293457 162.53076172 C-76.08789722 178.10415297 -70.74059747 195.10788038 -57.58984375 205.1875 C-49.1144784 210.29666843 -40.9466231 212.55029429 -31.1015625 210.7265625 C-19.33130492 207.6146748 -12.15664658 200.79509783 -6 190.5390625 C16.7380084 148.30306725 13.98947657 80.50948883 0.70141602 35.99365234 C-3.57728814 22.75095052 -10.07568407 9.38692634 -22.90234375 2.6875 C-37.31935797 -3.17704816 -53.11528928 -0.5527298 -63.58984375 11.1875 Z " fill="#0617C4" transform="translate(1833.58984375,147.8125)"/>
<path d="M0 0 C0.86496094 0.42410156 1.72992187 0.84820312 2.62109375 1.28515625 C17.4659143 9.39670964 26.11200006 23.30165171 30.97265625 39.16015625 C34.7646657 53.33333227 36.18587217 67.11282181 36.25 81.75 C36.2809375 83.53857422 36.2809375 83.53857422 36.3125 85.36328125 C36.36248302 96.54698195 36.36248302 96.54698195 33 101 C29.18043086 103.75333413 24.77793041 103.28512266 20.27172852 103.27124023 C18.95153717 103.27908035 18.95153717 103.27908035 17.60467529 103.28707886 C15.69549402 103.29731238 13.7862849 103.30309813 11.8770771 103.30496025 C8.85500681 103.30862271 5.83326502 103.32534579 2.81126404 103.34571838 C-5.78014014 103.40114506 -14.37159257 103.43182976 -22.96313477 103.45629883 C-28.21980977 103.47217257 -33.47625121 103.50238886 -38.73280525 103.54106331 C-40.73543888 103.55271405 -42.73811427 103.55864366 -44.74078178 103.55874443 C-47.54154734 103.55893646 -50.3416685 103.57720119 -53.14233398 103.59936523 C-54.38231895 103.59249947 -54.38231895 103.59249947 -55.64735413 103.585495 C-60.24264688 103.64331412 -63.2631458 104.02381493 -67 107 C-74.40977735 123.86547162 -65.23102847 157.14189968 -59 174 C-53.62072045 187.18840412 -45.47664988 198.16793361 -32.4375 204.375 C-23.68977698 207.55965492 -14.21098855 207.23945138 -5.5625 203.9375 C7.02801051 197.83607456 13.37921267 187.57818203 17.953125 174.703125 C19.45250189 170.29101467 20.8458338 165.84900492 22.22900391 161.39941406 C25.36731634 151.63268366 25.36731634 151.63268366 27 150 C29.33297433 149.95907063 31.66705225 149.95758277 34 150 C37.95299335 156.69246536 34.91512148 165.13421496 33.13500977 172.24536133 C27.97157476 191.80935615 21.2285994 211.79821349 3.25 223.1875 C-11.45520668 231.58406076 -27.06371506 233.16910518 -43.28930664 228.82958984 C-61.22418641 223.5759604 -75.33254914 209.17764233 -84.47119141 193.23779297 C-105.8864941 154.02322896 -107.34669613 103.31425845 -95 61 C-89.10915014 42.81721933 -80.57270489 27.45347176 -67 14 C-65.94232422 12.89205078 -65.94232422 12.89205078 -64.86328125 11.76171875 C-48.72653204 -4.06766381 -20.59109707 -10.21598479 0 0 Z M-47 19 C-59.89905329 36.24343298 -70.6980743 66.08836628 -68 88 C-66.33267341 90.24546651 -65.43334678 90.92995957 -62.64302063 91.38095093 C-61.25025154 91.3845311 -61.25025154 91.3845311 -59.8293457 91.38818359 C-58.77427322 91.39764008 -57.71920074 91.40709656 -56.63215637 91.4168396 C-55.49155258 91.41076691 -54.35094879 91.40469421 -53.17578125 91.3984375 C-51.41272896 91.40274277 -51.41272896 91.40274277 -49.61405945 91.40713501 C-47.12331665 91.40917854 -44.6325579 91.40362862 -42.1418457 91.39111328 C-38.3448447 91.3751361 -34.54891985 91.39091611 -30.75195312 91.41015625 C-28.33072683 91.40817247 -25.9095012 91.40432601 -23.48828125 91.3984375 C-22.35779861 91.40451019 -21.22731598 91.41058289 -20.06257629 91.4168396 C-13.46273715 91.35855671 -6.70474698 91.28589635 -1.48286438 86.65438843 C4.6283411 79.77122169 4.35368944 72.9857435 4.3125 64.25 C4.30758545 63.03876465 4.3026709 61.8275293 4.29760742 60.57958984 C4.07971322 43.80285396 2.34262474 25.26956026 -10.04296875 12.74609375 C-15.37402895 7.98963884 -20.00207285 7.4494589 -26.97265625 7.65625 C-35.16227843 8.58616839 -41.54237423 12.98433478 -47 19 Z " fill="#0617C4" transform="translate(1054,140)"/>
<path d="M0 0 C1.2514718 2.5029436 1.12715129 4.19069852 1.13028526 6.99263382 C1.13390961 8.05535137 1.13753396 9.11806893 1.14126813 10.21299005 C1.14019988 11.38981087 1.13913163 12.5666317 1.13803101 13.77911377 C1.14085229 15.02207269 1.14367357 16.26503162 1.14658034 17.54565597 C1.15349573 21.00704804 1.15595383 24.46839321 1.15663147 27.92978883 C1.15846762 31.65860745 1.1660725 35.3874144 1.17311096 39.1162262 C1.18464899 45.58175766 1.19288686 52.0472865 1.19923019 58.51282501 C1.2095447 68.73055242 1.23010546 78.94824718 1.25234985 89.16595459 C1.25983001 92.65993108 1.26724369 96.1539077 1.27463722 99.64788437 C1.27741307 100.95775774 1.27741307 100.95775774 1.280245 102.29409321 C1.30118224 112.23984151 1.32000541 122.18559343 1.33789062 132.13134766 C1.33952881 133.0407803 1.34116699 133.95021294 1.34285481 134.88720414 C1.36913735 149.62346531 1.38778145 164.359729 1.40448253 179.09600368 C1.42189777 194.21795144 1.45073771 209.33984995 1.4893719 224.46175838 C1.51278421 233.7929617 1.52676758 243.12408472 1.52869953 252.45531765 C1.53080749 258.85018515 1.54372481 265.24497279 1.56517886 271.63980445 C1.57721729 275.33064396 1.58435301 279.02132489 1.57846642 282.712183 C1.57220029 286.71259522 1.58897571 290.71257993 1.60800171 294.71295166 C1.60247201 295.8808496 1.59694232 297.04874754 1.59124506 298.25203633 C1.63444629 306.05954146 1.63444629 306.05954146 5 313 C10.04566204 315.85899904 15.12475445 316.72882351 20.8125 317.5625 C28.734375 318.734375 28.734375 318.734375 31 321 C31.25 324.5 31.25 324.5 31 328 C28.45188447 330.54811553 26.80220934 330.24806378 23.32681274 330.28216553 C22.53455292 330.27968811 21.74229309 330.27721069 20.92602539 330.2746582 C20.09174515 330.27976913 19.2574649 330.28488007 18.39790344 330.29014587 C15.63108206 330.30408316 12.86450863 330.30308199 10.09765625 330.30078125 C8.17955939 330.30466597 6.2614634 330.30900017 4.34336853 330.31376648 C0.31913466 330.32123763 -3.70501149 330.32093099 -7.72924805 330.31567383 C-12.89237381 330.30987862 -18.05514092 330.32680711 -23.21820736 330.3500185 C-27.18069059 330.36473356 -31.14308702 330.36563058 -35.10559273 330.36250877 C-37.00943271 330.36302313 -38.9132774 330.36828219 -40.81709099 330.37832069 C-43.47717624 330.39062448 -46.13655731 330.38393008 -48.79663086 330.37231445 C-49.58686646 330.37995819 -50.37710205 330.38760193 -51.19128418 330.39547729 C-56.45844521 330.34450748 -56.45844521 330.34450748 -59.03224182 328.7071991 C-60.67212495 325.81432043 -59.64822913 323.1232858 -59 320 C-57.9378125 319.75765625 -56.875625 319.5153125 -55.78125 319.265625 C-43.19934703 316.82257732 -43.19934703 316.82257732 -33.0625 309.6875 C-30.51556805 303.24526037 -30.85538235 296.32931869 -30.86628723 289.50675964 C-30.86402167 288.46244492 -30.86175612 287.4181302 -30.85942191 286.34216958 C-30.85310135 282.84943964 -30.85391003 279.35674869 -30.85473633 275.86401367 C-30.85174363 273.35707041 -30.84834085 270.85012762 -30.84455872 268.34318542 C-30.83664309 262.24403903 -30.83350456 256.14490688 -30.83294634 250.04575583 C-30.83247048 245.08605275 -30.83041224 240.12635285 -30.82724571 235.16665077 C-30.81844333 221.09225556 -30.8138257 207.01786795 -30.81457619 192.94346996 C-30.81463612 191.80634125 -30.81463612 191.80634125 -30.81469727 190.64624023 C-30.81473815 189.88722447 -30.81477903 189.1282087 -30.81482115 188.34619246 C-30.81522753 176.04758013 -30.8056589 163.74899842 -30.7915589 151.45039495 C-30.77718164 138.80980416 -30.77028945 126.1692283 -30.77115268 113.52862912 C-30.77148417 106.43690625 -30.76875783 99.34521548 -30.75797462 92.25349998 C-30.74789641 85.58290698 -30.74821876 78.91239294 -30.75549126 72.24179268 C-30.75653631 69.7965116 -30.75417893 67.35122628 -30.7481308 64.90595245 C-30.74039684 61.56195268 -30.74506515 58.21818615 -30.75276184 54.87419128 C-30.74761828 53.91201177 -30.74247471 52.94983226 -30.73717529 51.9584958 C-30.529895 41.50337926 -30.529895 41.50337926 -34.45167094 32.25378102 C-36.37202424 30.69874819 -37.68546675 30.4644706 -40.125 30.15625 C-40.91390625 30.04410156 -41.7028125 29.93195313 -42.515625 29.81640625 C-43.33546875 29.71199219 -44.1553125 29.60757813 -45 29.5 C-46.62651929 29.29284896 -48.25166317 29.07451847 -49.875 28.84375 C-50.59429688 28.75287109 -51.31359375 28.66199219 -52.0546875 28.56835938 C-54.48405932 27.85857303 -55.51277453 27.04077745 -57 25 C-56.6875 21.3125 -56.6875 21.3125 -56 18 C-51.52369958 16.22813108 -47.03629036 14.69073929 -42.42407227 13.30541992 C-31.3905396 9.97813871 -20.78651655 5.94364516 -10.8671875 -0.01953125 C-6.6540167 -2.23188663 -4.26527553 -2.19027663 0 0 Z " fill="#0617C3" transform="translate(1670,37)"/>
<path d="M0 0 C2.375 0.8125 2.375 0.8125 4.375 2.8125 C4.64001465 5.20349121 4.64001465 5.20349121 4.66210938 8.24023438 C4.67552368 9.37481079 4.68893799 10.50938721 4.70275879 11.67834473 C4.70803589 12.90855347 4.71331299 14.13876221 4.71875 15.40625 C4.7333728 16.66385132 4.74799561 17.92145264 4.76306152 19.21716309 C4.81764122 23.93428282 4.85469971 28.65142372 4.89068604 33.36871338 C4.92684205 37.98554747 4.9775695 42.60207949 5.03125 47.21875 C5.0365271 48.44895874 5.0418042 49.67916748 5.04724121 50.94665527 C5.06065552 52.08123169 5.07406982 53.21580811 5.08789062 54.38476562 C5.09518188 55.38689087 5.10247314 56.38901611 5.10998535 57.42150879 C5.14342529 59.99752866 5.14342529 59.99752866 7.375 61.8125 C9.97722617 62.02154362 12.4817134 62.11358995 15.0859375 62.12109375 C16.65625367 62.14625662 18.22656608 62.1716546 19.796875 62.19726562 C22.27440395 62.22599985 24.75186762 62.25001416 27.22949219 62.26879883 C29.61948809 62.29046978 32.00870976 62.3299132 34.3984375 62.37109375 C35.50643204 62.37126747 35.50643204 62.37126747 36.6368103 62.3714447 C40.80190212 62.45150194 43.42553491 62.7481027 46.375 65.8125 C47.3125 68.1875 47.3125 68.1875 47.375 70.8125 C46.125 73.5625 46.125 73.5625 44.375 75.8125 C40.64079403 77.05723532 37.10134762 77.04459785 33.20703125 77.12890625 C32.41221848 77.14968735 31.6174057 77.17046844 30.79850769 77.19187927 C28.26159237 77.25722087 25.72457427 77.31618808 23.1875 77.375 C21.46678628 77.41819986 19.74608292 77.46181463 18.02539062 77.50585938 C13.80869887 77.61288648 9.5919038 77.71419724 5.375 77.8125 C5.32826013 100.62187457 5.2930014 123.43124123 5.27137566 146.24065399 C5.26106715 156.83167625 5.24701492 167.42266873 5.22412109 178.01367188 C5.20417423 187.24577877 5.19128047 196.47786409 5.18682301 205.70999193 C5.18421784 210.59741416 5.17810333 215.48477469 5.16353989 220.37217712 C5.14993553 224.97513583 5.14578314 229.5780076 5.14878464 234.1809845 C5.14823575 235.86758904 5.14427535 237.55419658 5.13658905 239.24078369 C5.12658303 241.55023576 5.12905155 243.85936306 5.13449097 246.16882324 C5.13172559 248.10458851 5.13172559 248.10458851 5.12890434 250.07946014 C5.40438389 254.25822593 6.25004324 257.78430716 7.375 261.8125 C7.58125 262.575625 7.7875 263.33875 8 264.125 C10.44273646 267.12290384 13.63627906 268.14259266 17.375 268.8125 C23.22167384 268.51142543 27.06133862 266.79968459 31.375 262.8125 C36.99510883 254.56363058 38.79693275 245.50331568 40.375 235.8125 C40.71895812 233.87316169 41.07165849 231.9353295 41.4375 230 C41.57285156 229.23042969 41.70820312 228.46085938 41.84765625 227.66796875 C42.375 225.8125 42.375 225.8125 44.375 223.8125 C47.875 223.5625 47.875 223.5625 51.375 223.8125 C54.27228973 226.70978973 53.67552827 228.82456487 53.6875 232.875 C53.55283881 252.29711708 49.16839091 272.01910909 35.05859375 286.12890625 C26.67536798 293.43563433 17.35046857 296.57739834 6.25390625 296.12890625 C-3.72170533 295.03253646 -12.45302369 291.00462558 -18.9375 283.1875 C-24.9957843 274.4366449 -26.7719864 263.66028807 -26.77648926 253.23297119 C-26.78072167 252.4901328 -26.78495408 251.7472944 -26.78931475 250.98194575 C-26.8022849 248.50391221 -26.80835239 246.0259108 -26.81445312 243.54785156 C-26.82239968 241.76698106 -26.83078797 239.98611248 -26.83958435 238.20524597 C-26.85761087 234.3764324 -26.87263699 230.54762298 -26.88536072 226.71878815 C-26.90560301 220.66884129 -26.93325015 214.61894217 -26.96203613 208.56903076 C-27.02718305 194.64038369 -27.0827103 180.71170139 -27.13802338 166.78301239 C-27.18884306 154.00586126 -27.24167866 141.22872759 -27.30254889 128.45161986 C-27.33094051 122.43257401 -27.35452014 116.41353396 -27.37447357 110.39445448 C-27.38782887 106.65882525 -27.40524213 102.92322309 -27.42378426 99.18761635 C-27.43156094 97.4501215 -27.43762144 95.71261804 -27.44187737 93.97511101 C-27.44789542 91.6113923 -27.45992927 89.24777976 -27.47351074 86.88409424 C-27.47380673 86.189751 -27.47410272 85.49540776 -27.47440767 84.78002381 C-27.46363708 81.17407977 -27.46363708 81.17407977 -28.625 77.8125 C-29.17961914 77.79268066 -29.73423828 77.77286133 -30.30566406 77.75244141 C-32.82923693 77.65692349 -35.35201224 77.54735433 -37.875 77.4375 C-38.74769531 77.4065625 -39.62039063 77.375625 -40.51953125 77.34375 C-41.36386719 77.30507812 -42.20820312 77.26640625 -43.078125 77.2265625 C-44.24069824 77.17943115 -44.24069824 77.17943115 -45.42675781 77.13134766 C-47.89100718 76.77391655 -49.53217414 76.1582157 -51.625 74.8125 C-52.6875 72.0625 -52.6875 72.0625 -52.625 68.8125 C-49.07531785 63.2513313 -43.82148916 59.76008504 -38.625 55.8125 C-23.25600188 43.94046321 -15.31561234 26.56086673 -9.05810547 8.66357422 C-5.76372799 -0.41169486 -5.76372799 -0.41169486 0 0 Z " fill="#0617C4" transform="translate(1943.625,75.1875)"/>
<path d="M0 0 C7.25909341 5.74008795 11.07542508 12.93813118 12.2890625 22.18359375 C12.5398108 29.2699587 11.08771479 34.86677266 6.62890625 40.41015625 C1.55953506 44.41849626 -3.69960449 45.27600937 -10.05859375 44.53515625 C-16.19593653 42.94791243 -18.47665331 40.13626751 -21.64453125 34.9609375 C-22.34449219 33.76017578 -22.34449219 33.76017578 -23.05859375 32.53515625 C-23.97006076 31.03199104 -24.8863706 29.53174645 -25.80859375 28.03515625 C-26.1953125 27.38546875 -26.58203125 26.73578125 -26.98046875 26.06640625 C-27.99397589 24.37001631 -27.99397589 24.37001631 -30.05859375 23.53515625 C-34.82166613 23.01258896 -38.84325134 22.98706065 -43.24609375 24.97265625 C-60.48743196 40.68143106 -64.68108329 65.2902071 -66.05859375 87.53515625 C-66.40056576 96.3891748 -66.36518266 105.25017691 -66.359375 114.109375 C-66.36327259 116.61513844 -66.3676094 119.12090124 -66.37236023 121.62666321 C-66.37976135 126.83633587 -66.37957291 132.04594066 -66.37426758 137.25561523 C-66.36960083 142.58676195 -66.3760506 147.91767863 -66.39477539 153.2487793 C-66.41726118 159.73632061 -66.42502637 166.22370462 -66.42110252 172.71128273 C-66.42161405 175.16837934 -66.42681986 177.62547984 -66.43691444 180.08255577 C-66.44928933 183.51054227 -66.44248387 186.93798857 -66.4309082 190.3659668 C-66.43855194 191.36817261 -66.44619568 192.37037842 -66.45407104 193.4029541 C-66.40903768 199.45517326 -65.82233491 205.05662142 -63.05859375 210.53515625 C-58.3755138 214.14802314 -52.53493997 214.40042822 -46.80859375 215.09765625 C-45.01075426 215.3204763 -43.21379976 215.55059533 -41.41796875 215.7890625 C-40.62874023 215.88517822 -39.83951172 215.98129395 -39.02636719 216.08032227 C-37.05859375 216.53515625 -37.05859375 216.53515625 -35.05859375 218.53515625 C-34.74609375 222.03515625 -34.74609375 222.03515625 -35.05859375 225.53515625 C-38.78509955 228.01949345 -41.65848384 227.81689768 -45.97070312 227.79394531 C-46.77586868 227.79744995 -47.58103424 227.80095459 -48.41059875 227.80456543 C-51.07460121 227.81337472 -53.73833855 227.80753645 -56.40234375 227.80078125 C-58.25175019 227.80212813 -60.10115629 227.80406886 -61.95056152 227.80657959 C-65.82758961 227.80952976 -69.70452558 227.80523662 -73.58154297 227.79589844 C-78.55512576 227.78450397 -83.5284927 227.79106401 -88.50206757 227.80304337 C-92.32128531 227.81026483 -96.14045175 227.80797271 -99.95967102 227.80278778 C-101.79372686 227.80145208 -103.62778734 227.80309623 -105.46183777 227.80774689 C-108.02351246 227.81281681 -110.58483589 227.80509538 -113.14648438 227.79394531 C-114.28740288 227.80001801 -114.28740288 227.80001801 -115.45137024 227.80621338 C-119.2005706 227.77592795 -120.85736286 227.66931018 -124.05859375 225.53515625 C-124.24609375 221.91015625 -124.24609375 221.91015625 -124.05859375 218.53515625 C-118.76348559 216.00794554 -113.56219136 214.61552133 -107.828125 213.37890625 C-104.82708121 212.46462493 -103.22688532 211.8044104 -101.05859375 209.53515625 C-99.42703064 204.78710385 -98.80665633 200.62651631 -98.79789734 195.62156677 C-98.79407179 194.96236726 -98.79024624 194.30316775 -98.78630477 193.6239925 C-98.77605905 191.43471061 -98.77995062 189.24569513 -98.78393555 187.05639648 C-98.7795845 185.47890991 -98.77440004 183.90142544 -98.76844788 182.32394409 C-98.75509167 178.05340684 -98.75447523 173.78295826 -98.75701118 169.5124042 C-98.75808277 165.94367993 -98.75319292 162.37497346 -98.74840575 158.80625302 C-98.73732315 150.38750466 -98.73686673 141.96880094 -98.74291992 133.55004883 C-98.74896515 124.86978205 -98.73663194 116.18967714 -98.71534985 107.50943798 C-98.6977331 100.0493817 -98.69173245 92.58937696 -98.6949876 85.12930065 C-98.69679982 80.67686339 -98.69416996 76.22454173 -98.68027306 71.77212334 C-98.66769742 67.58679041 -98.66963622 63.40171013 -98.68268394 59.21638107 C-98.68504952 57.6821274 -98.6823157 56.14785595 -98.67406082 54.61362267 C-98.66358996 52.5160433 -98.67169553 50.41931131 -98.68437195 48.32176208 C-98.68420421 47.14911521 -98.68403646 45.97646833 -98.68386364 44.76828671 C-99.11047744 41.08750944 -100.11487773 38.67634115 -102.05859375 35.53515625 C-104.66083526 34.24188875 -104.66083526 34.24188875 -107.68359375 33.78515625 C-109.27494141 33.45644531 -109.27494141 33.45644531 -110.8984375 33.12109375 C-111.94128906 32.92773438 -112.98414063 32.734375 -114.05859375 32.53515625 C-122.95048564 30.64326436 -122.95048564 30.64326436 -124.05859375 29.53515625 C-124.43359375 26.66015625 -124.43359375 26.66015625 -124.05859375 23.53515625 C-120.19656421 20.54615254 -115.98524871 19.66104167 -111.30859375 18.66015625 C-99.8943744 15.95881669 -92.22082163 10.33669721 -83.1953125 3.05859375 C-82.65100586 2.62087646 -82.10669922 2.18315918 -81.54589844 1.73217773 C-80.29843664 0.72818805 -79.05149951 -0.27645349 -77.8046875 -1.28125 C-75.43662668 -2.88644559 -73.85656209 -2.83299748 -71.05859375 -2.46484375 C-68.1931378 0.4006122 -68.74229747 2.50330381 -68.64453125 6.51171875 C-68.6251651 7.19696625 -68.60579895 7.88221375 -68.58584595 8.58822632 C-68.52602544 10.77874269 -68.47965619 12.96931155 -68.43359375 15.16015625 C-68.39541612 16.64455427 -68.35636451 18.12893009 -68.31640625 19.61328125 C-68.22032291 23.2537031 -68.13630093 26.89429061 -68.05859375 30.53515625 C-64.71611988 29.92287995 -64.71611988 29.92287995 -62.453125 27.3828125 C-61.93105469 26.46371094 -61.40898438 25.54460937 -60.87109375 24.59765625 C-53.59577963 12.6019563 -43.08745119 1.01050599 -29.17504883 -3.0090332 C-19.98287532 -4.98870652 -8.08761397 -5.0494842 0 0 Z " fill="#0617C4" transform="translate(931.05859375,139.46484375)"/>
<path d="M0 0 C2.17985351 4.39418874 2.28308186 8.46409021 2.25828552 13.26756287 C2.26196123 14.09656272 2.26563693 14.92556258 2.26942402 15.77968365 C2.27939859 18.55557773 2.2752543 21.33127129 2.27124023 24.10717773 C2.27562756 26.09815687 2.28092974 28.08913417 2.28707886 30.08010864 C2.29857889 34.36676087 2.30403828 38.65336365 2.30496025 42.94003105 C2.30690025 49.71772131 2.32494932 56.49530925 2.34571838 63.27296448 C2.39491522 80.1074035 2.42580091 96.94187031 2.44702148 113.77636719 C2.46353801 126.8593372 2.48633247 139.94221955 2.53004223 153.02513081 C2.5518364 159.76316233 2.55987478 166.50102741 2.55764949 173.23909175 C2.55931538 177.43055305 2.57335861 181.62190553 2.59086227 185.81332779 C2.59646491 187.75716041 2.59694414 189.70101556 2.59192467 191.64484978 C2.58579028 194.29863361 2.59800225 196.95172953 2.61473083 199.60545349 C2.60541311 200.75891578 2.60541311 200.75891578 2.59590715 201.93568033 C2.65048658 206.68793143 3.48261354 209.9616584 6 214 C7.75973485 215.27052548 7.75973485 215.27052548 9.875 215.75 C10.65875 215.97300781 11.4425 216.19601562 12.25 216.42578125 C16.52414614 217.31825211 20.83810412 217.83086886 25.1796875 218.27734375 C28 219 28 219 29.92578125 220.8671875 C31 223 31 223 30.3125 226.1875 C29 229 29 229 27 230 C24.42228333 230.1034013 21.87139135 230.14681151 19.29321289 230.14526367 C18.49794693 230.14862228 17.70268097 230.1519809 16.88331604 230.15544128 C14.24641369 230.164964 11.60957474 230.16689503 8.97265625 230.16796875 C7.14424106 230.17118031 5.31582614 230.1745443 3.4874115 230.17805481 C-0.34848629 230.18404931 -4.18436153 230.18589437 -8.02026367 230.18530273 C-12.94117292 230.18520107 -17.86193801 230.19885636 -22.78281307 230.21607494 C-26.55998909 230.22718035 -30.33713008 230.2292224 -34.11432076 230.22869301 C-35.92884379 230.22987521 -37.74336766 230.23431039 -39.55787468 230.24202538 C-42.09329267 230.25179631 -44.62839555 230.24895882 -47.16381836 230.24291992 C-47.916651 230.24853943 -48.66948364 230.25415894 -49.44512939 230.25994873 C-53.18253427 230.23726842 -54.80706679 230.12862214 -58 228 C-58.1875 224.375 -58.1875 224.375 -58 221 C-52.50670153 218.31722633 -47.07491214 217.03869981 -41.0859375 215.84375 C-37.82385231 214.9518381 -35.64352855 214.11482284 -33 212 C-31.16350286 207.61416168 -30.74746074 203.8524863 -30.73930359 199.12400818 C-30.73547804 198.45679042 -30.73165249 197.78957267 -30.72771102 197.10213619 C-30.71744145 194.87977684 -30.72136149 192.65767877 -30.7253418 190.43530273 C-30.72099207 188.83663699 -30.71580805 187.23797332 -30.70985413 185.63931274 C-30.69648355 181.3068023 -30.6958831 176.97437919 -30.69841743 172.64185214 C-30.69948807 169.02337731 -30.69460158 165.40492007 -30.689812 161.78644902 C-30.67872437 153.25125531 -30.67827578 144.71610562 -30.68432617 136.1809082 C-30.69037153 127.37624313 -30.67803902 118.57173764 -30.6567561 109.7670998 C-30.63914741 102.20432022 -30.63313743 94.64159148 -30.63639385 87.07879215 C-30.6382074 82.56321531 -30.63556295 78.04775241 -30.62167931 73.53219414 C-30.60911683 69.28778283 -30.61102998 65.04362083 -30.62409019 60.79921341 C-30.62645867 59.24196476 -30.62371159 57.68469864 -30.61546707 56.12747002 C-30.60502076 54.00102602 -30.61308214 51.87542193 -30.6257782 49.74900818 C-30.62552659 47.96458392 -30.62552659 47.96458392 -30.62526989 46.14411068 C-31.04068199 42.65866454 -31.87958019 40.77511386 -34 38 C-36.6170701 36.82280007 -36.6170701 36.82280007 -39.625 36.3125 C-40.68589844 36.08433594 -41.74679687 35.85617188 -42.83984375 35.62109375 C-43.88269531 35.41613281 -44.92554688 35.21117187 -46 35 C-54.90794224 33.09205776 -54.90794224 33.09205776 -56 32 C-56.375 29.125 -56.375 29.125 -56 26 C-52.20271292 23.0745758 -48.15576891 22.20706981 -43.5625 21.25 C-30.94073906 18.32767745 -20.78444538 12.48918785 -11 4 C-7.06770721 0.59958268 -5.27766107 -0.49094522 0 0 Z " fill="#0617C5" transform="translate(1572,137)"/>
<path d="M0 0 C6.43649925 3.82710766 10.1309124 9.10494675 12.15625 16.25390625 C13.73876686 23.62579727 12.18627952 30.99118638 8.44140625 37.4921875 C4.57957188 42.59024647 -0.28555104 44.80327089 -6.375 46.4375 C-13.18202732 47.27345072 -19.29359098 45.25833261 -25.125 41.8125 C-30.3108347 36.33856337 -33.04683963 30.46941996 -33.4453125 22.921875 C-33.23418741 15.46212195 -31.38271455 9.41209294 -25.95703125 4.03125 C-18.78241271 -2.31339982 -8.88508651 -3.98887314 0 0 Z " fill="#0617C4" transform="translate(1568.375,50.5625)"/>
</svg>
